<?xml version="1.0" standalone="no"?>
<!DOCTYPE svg PUBLIC "-//W3C//DTD SVG 1.1//EN" "http://www.w3.org/Graphics/SVG/1.1/DTD/svg11.dtd" >
<svg xmlns="http://www.w3.org/2000/svg" xmlns:xlink="http://www.w3.org/1999/xlink" version="1.1">
<metadata>
Created by FontForge 20170924 at Sat Apr 13 06:28:41 2019
 By www-data

</metadata>
<defs>
<font id="zihun2hao-liliangcuheiti-Regular" horiz-adv-x="1000" >
  <font-face 
    font-family="zihun2hao-liliangcuheiti"
    font-weight="400"
    font-stretch="normal"
    units-per-em="1000"
    panose-1="0 0 5 0 0 0 0 0 0 0"
    ascent="860"
    descent="-140"
    x-height="429"
    cap-height="606"
    bbox="0 -275 1331 850"
    underline-thickness="50"
    underline-position="-100"
    unicode-range="U+0020-FF5D"
  />
<missing-glyph 
 />
    <glyph glyph-name=".notdef" 
 />
    <glyph glyph-name="space" unicode=" " horiz-adv-x="200" 
 />
    <glyph glyph-name="A" unicode="A" horiz-adv-x="634" 
d="M489 62l-63 156h-216l-65 -156h-105l228 544h105l221 -544h-105zM388 311l-68 168l-71 -168h139z" />
    <glyph glyph-name="B" unicode="B" horiz-adv-x="557" 
d="M156 604v-1h245l96 -34v-141l-81 -65l81 -39v-229l-96 -34h-267v1h-74v542h96zM156 405h245v119h-245v-119zM156 140h245v186h-245v-186z" />
    <glyph glyph-name="C" unicode="C" horiz-adv-x="543" 
d="M156 525v-384h337l-51 -79h-382v542h433l-47 -79h-290z" />
    <glyph glyph-name="D" unicode="D" horiz-adv-x="558" 
d="M498 138l-96 -76h-342v542h342l96 -92v-374zM339 525h-183v-384h184l62 49v286z" />
    <glyph glyph-name="E" unicode="E" horiz-adv-x="598" 
d="M176 525v-119h305l-52 -79h-253v-186h342l-50 -79h-388v542h438l-48 -79h-294z" />
    <glyph glyph-name="F" unicode="F" horiz-adv-x="598" 
d="M518 603l-36 -79h-306v-110h304l-46 -79h-258v-233l-96 -38v541h96v-2h342z" />
    <glyph glyph-name="G" unicode="G" horiz-adv-x="578" 
d="M518 604l-48 -79h-294v-384h246v194h-130l-43 79h269v-318l-96 -34h-342v543h96v-1h342z" />
    <glyph glyph-name="H" unicode="H" horiz-adv-x="609" 
d="M433 392v174l96 38v-541l-96 -1v238h-257v-238h-96v542l96 -1v-211h257z" />
    <glyph glyph-name="I" unicode="I" horiz-adv-x="347" 
d="M80 526v80h187l-47 -80v-385h47v-79h-186v79h44v385h-45z" />
    <glyph glyph-name="J" unicode="J" horiz-adv-x="368" 
d="M80 526v80h258l-48 -80h-28v-416l-96 -47h-86v92h86v371h-86z" />
    <glyph glyph-name="K" unicode="K" horiz-adv-x="538" 
d="M381 606h137l-242 -190l229 -351h-119l-186 292l-24 -19v-275h-96v543h96v-140z" />
    <glyph glyph-name="L" unicode="L" horiz-adv-x="537" 
d="M517 141l-50 -79h-387v543h95v-464h342z" />
    <glyph glyph-name="M" unicode="M" horiz-adv-x="674" 
d="M80 603h47v1h97l108 -365l105 366h49v1h108v-543h-108v371l-102 -370l1 -2h-103l-107 374v-372h-95v539z" />
    <glyph glyph-name="N" unicode="N" horiz-adv-x="597" 
d="M80 602h94l1 1l247 -389v388h95v-536h-1l1 -1h-95l-247 389v-388h-95v536z" />
    <glyph glyph-name="O" unicode="O" horiz-adv-x="576" 
d="M400 605l96 -36v-473l-96 -34h-224l-96 34v473l96 36h224zM176 142h224v384h-224v-384z" />
    <glyph glyph-name="P" unicode="P" horiz-adv-x="557" 
d="M421 604l96 -34v-303l-96 -42h-245v-162h-96v542h96v-1h245zM176 304h245v221h-245v-221z" />
    <glyph glyph-name="Q" unicode="Q" horiz-adv-x="597" 
d="M80 568l96 35h246l95 -35v-395l-95 -33h-35l23 -79h-104l-24 79h-106l-96 33v395zM176 219h246v305h-246v-305z" />
    <glyph glyph-name="R" unicode="R" horiz-adv-x="576" 
d="M421 604l95 -47v-188l-95 -42h-47l135 -263h-105l-134 263h-95v-263h-95v541h95v-1h246zM175 406h246v119h-246v-119z" />
    <glyph glyph-name="S" unicode="S" horiz-adv-x="598" 
d="M176 326l-96 24v255l96 -1h342l-48 -79h-294v-120h342v-298l-96 -44h-342v79h342v184h-246z" />
    <glyph glyph-name="T" unicode="T" horiz-adv-x="513" 
d="M483 604l-47 -79h-139v-421l-95 -42v463h-172v79h453z" />
    <glyph glyph-name="U" unicode="U" horiz-adv-x="598" 
d="M421 141v-79h-341v542h96v-463h245zM422 62v542h96v-497z" />
    <glyph glyph-name="V" unicode="V" horiz-adv-x="608" 
d="M473 605h105l-218 -543h-105l-225 543h105l172 -414z" />
    <glyph glyph-name="W" unicode="W" horiz-adv-x="653" 
d="M274 605h105l71 -341l77 341h96l-120 -543h-105l-73 350l-70 -350h-105l-120 543h99l76 -342z" />
    <glyph glyph-name="X" unicode="X" horiz-adv-x="605" 
d="M302 418l115 187h105l-167 -271l170 -272h-104l-118 187l-115 -187h-104l167 272l-171 271h105z" />
    <glyph glyph-name="Y" unicode="Y" horiz-adv-x="501" 
d="M247 435l112 170h112l-174 -261v-239l-105 -43v284l-162 259h113z" />
    <glyph glyph-name="Z" unicode="Z" horiz-adv-x="539" 
d="M50 606h403l36 -80l-314 -381h314l-46 -79h-393v79l322 381h-322v80z" />
    <glyph glyph-name="a" unicode="a" horiz-adv-x="486" 
d="M318 299v51h-209l-49 80h258l97 -36v-251h51l-37 -80h-272l-97 34v166l97 36h161zM157 143h161v77h-161v-77z" />
    <glyph glyph-name="b" unicode="b" horiz-adv-x="464" 
d="M307 432l97 -42v-291l-97 -34h-247v540h97v-173h150zM157 145h150v207h-150v-207z" />
    <glyph glyph-name="c" unicode="c" horiz-adv-x="439" 
d="M156 352v-207h243l-51 -80h-288v367h339l-45 -80h-198z" />
    <glyph glyph-name="d" unicode="d" horiz-adv-x="455" 
d="M279 432v173h96v-460h60l-51 -80h-228l-96 34v293l96 40h123zM156 145h123v207h-123v-207z" />
    <glyph glyph-name="e" unicode="e" horiz-adv-x="474" 
d="M314 432l96 -34v-166l-96 -36h-158v-51h230l48 -80h-278l-96 36v293l96 38h158zM156 276h158v76h-158v-76z" />
    <glyph glyph-name="f" unicode="f" horiz-adv-x="322" 
d="M103 432v173h179l-42 -79h-41v-94h62v-80h-62v-297l-96 -40v337h-63v80h63z" />
    <glyph glyph-name="g" unicode="g" horiz-adv-x="472" 
d="M156 65l-96 42v287l96 38h160l96 -29v-463l-96 -36h-256l28 80h228v81h-160zM156 145h160v207h-160v-207z" />
    <glyph glyph-name="h" unicode="h" horiz-adv-x="465" 
d="M405 429v-366h-97v274h-152v-274h-96v493l96 46v-173h249z" />
    <glyph glyph-name="i" unicode="i" horiz-adv-x="256" 
d="M80 506v58l96 41v-99h-96zM80 63v369h96v-369h-96z" />
    <glyph glyph-name="j" unicode="j" horiz-adv-x="259" 
d="M95 506v56l104 42v-97zM95 -5v437h104v-473l-104 -57v1h-74l-1 92h75z" />
    <glyph glyph-name="k" unicode="k" horiz-adv-x="413" 
d="M256 429h137l-142 -112l134 -254h-120l-96 190l-13 -10v-180h-96v493l96 46v-233z" />
    <glyph glyph-name="l" unicode="l" horiz-adv-x="230" 
d="M210 156l-30 -92h-23v-1h-97v539h97v-446h53z" />
    <glyph glyph-name="m" unicode="m" horiz-adv-x="607" 
d="M262 429l31 -51l31 51h127l96 -61v-305h-96v287h-92v-287h-97v287h-104v-287h-97v287h-1v79h202z" />
    <glyph glyph-name="n" unicode="n" horiz-adv-x="470" 
d="M410 63h-96v289h-158v-289h-96v369h283l67 -80v-289z" />
    <glyph glyph-name="o" unicode="o" horiz-adv-x="467" 
d="M310 432l97 -36v-299l-97 -34h-153l-97 34v299l97 36h153zM157 143h153v209h-153v-209z" />
    <glyph glyph-name="p" unicode="p" horiz-adv-x="444" 
d="M307 433l97 -34v-290l-97 -42h-150v-143l-97 -31v541h97v-1h150zM157 147h150v206h-150v-206z" />
    <glyph glyph-name="q" unicode="q" horiz-adv-x="463" 
d="M60 393l96 40h151v1h96v-514l-96 -27v174h-151l-96 42v284zM156 147h151v206h-151v-206z" />
    <glyph glyph-name="r" unicode="r" horiz-adv-x="328" 
d="M268 434v-98l-112 -69v-201h-96v368h96v-69z" />
    <glyph glyph-name="s" unicode="s" horiz-adv-x="469" 
d="M156 212l-96 24v157l96 40h253l-49 -79h-204v-63h253v-180l-97 -44v-1h-252v80h252v66h-156z" />
    <glyph glyph-name="t" unicode="t" horiz-adv-x="267" 
d="M78 433v170l96 -42v-128h58v-79h-58v-193h73l-30 -91h-139v284h-58v79h58z" />
    <glyph glyph-name="u" unicode="u" horiz-adv-x="466" 
d="M311 145v289l95 -35v-254l-47 -79h-299v368h95v-289h156z" />
    <glyph glyph-name="v" unicode="v" horiz-adv-x="440" 
d="M306 435h104l-144 -368h-104l-132 368h103l83 -230z" />
    <glyph glyph-name="w" unicode="w" horiz-adv-x="556" 
d="M228 435h104l42 -172l49 172h103l-103 -369h-104l-40 161l-40 -161h-103l-106 369h103l51 -177z" />
    <glyph glyph-name="x" unicode="x" horiz-adv-x="400" 
d="M200 331l67 104h103l-118 -184l118 -184h-103l-67 104l-67 -104h-103l119 184l-119 184h103z" />
    <glyph glyph-name="y" unicode="y" horiz-adv-x="472" 
d="M232 190l107 245h103l-229 -528h-104l70 160l-149 368h104z" />
    <glyph glyph-name="z" unicode="z" horiz-adv-x="393" 
d="M30 429h297l36 -79l-211 -205h211l-46 -78h-287v78l216 205h-216v79z" />
    <glyph glyph-name="uni4E00" unicode="&#x4e00;" 
d="M170 313v97h667v-97h-667z" />
    <glyph glyph-name="uni4E01" unicode="&#x4e01;" 
d="M550 6h3v-97h-225v97h105v693h-274v97h667v-97h-276v-693z" />
    <glyph glyph-name="uni4E03" unicode="&#x4e03;" 
d="M338 495l-41 -3h-4q-5 0 -8 -1l-10 -1l-9 -2l-28 -2l-31 -3l-14 -1l-14 -2l-12 -1l-9 -1v50q0 50 1 50l38 4q5 0 15 1q12 1 26 3l47 4l39 4l14 2q1 0 1 104v104h119v-99q0 -98 1 -98l24 3q169 18 229 21l14 1l15 2l11 1l9 1l27 3q3 1 16 1l6 2h4q11 0 12 1h4v-99l-5 -1
l-36 -4l-35 -3l-114 -12l-64 -5l-11 -1l-12 -2q-3 -1 -17 -1l-25 -3l-37 -4l-14 -2h-2v-494h374l1 -49v-51h-494v292q0 291 -1 291z" />
    <glyph glyph-name="uni4E07" unicode="&#x4e07;" 
d="M204 7l4 15l3 9l2 7q2 8 2 9l6 17l4 16l8 27l2 9l3 8l3 7l4 10v562h-71v99h650v-99h-461v-116h336v2l1 1h116l1 -337v-337h-60q-58 0 -58 2h-184v100h184v469h-336v-356h-2q-3 0 -12 -32l-11 -33l-12 -40l-23 -78l-10 -36h-117l9 31l7 21l8 27z" />
    <glyph glyph-name="uni4E08" unicode="&#x4e08;" 
d="M734 800q1 0 1 -1v-62q1 -1 2 -1h93v-97q0 -1 -1 -1h-94v-137l-171 -237v-1q29 -36 265 -347v-1h-154q-5 4 -68 91l-118 155q-174 -242 -178 -246h-145v1q19 28 249 344q-183 245 -190 254q1 0 1 1l1 -1h145q4 -3 58 -74q55 -72 59 -78l122 168v108h-445q-1 0 -1 1v96
l1 1h3h440q2 0 2 1v62q0 1 1 1h122z" />
    <glyph glyph-name="uni4E09" unicode="&#x4e09;" 
d="M154 653v105h665v-105h-665zM180 390v106h612v-106h-612zM133 -43v105h707v-105h-707z" />
    <glyph glyph-name="uni4E0A" unicode="&#x4e0a;" 
d="M289 -89h-123v99l246 1v793l60 -1h58v-88l1 -85h291v-101h-291v-519h309v-99h-153q-156 0 -156 -1h-119q0 1 -123 1z" />
    <glyph glyph-name="uni4E0B" unicode="&#x4e0b;" 
d="M672 203l-2 3l-1 5l-2 6l-3 8l-6 20q-9 27 -18 57l-44 142l-1 4l-3 7l-2 9l-2 8l-4 12l-4 14q-4 20 -9 30q-4 11 -10 31l-4 13l-4 11l-5 20h114l23 -75q0 -1 3 -6l1 -7l3 -7q7 -26 16 -48l21 -77q6 -20 24 -74l12 -35l9 -33l12 -43q3 -7 9 -30l8 -24l8 -30h-114l-11 38
l-10 38zM834 802v-99h-330v-788h-116v788h-222v99h668z" />
    <glyph glyph-name="uni4E0D" unicode="&#x4e0d;" 
d="M221 328l4 24l3 23q0 15 1 18l2 6v7l2 21l2 16l1 11l1 9q0 9 3 31v5q0 7 1 8l2 8l1 11l1 12l2 14q2 22 4 34l5 40h112v-12q0 -10 -3 -39l-3 -15l-1 -10l-1 -13l-4 -36v-6q0 -4 -2 -10l-1 -12l-1 -14l-7 -48l-4 -40l-4 -34l-3 -20l-2 -23q-2 -9 -4 -28l-2 -14l-1 -12
l-3 -27l-2 -25q-3 -26 -5 -48q-1 -8 -2 -15q-1 -5 -1 -8l-5 -48l-7 -57l-1 -17l-3 -15l-1 -8v-8q0 -6 -2 -12l-2 -24l-3 -9q0 -1 -56 -1h-57l20 183l14 124q8 57 12 103zM718 -46l-3 21l-1 12l-2 10l-14 118q-3 24 -5 47q-2 17 -4 36q-4 32 -4 35l-10 95l-1 14l-3 16l-1 8v7
q0 8 -1 12l-3 29l-5 41l-6 42l-1 13l-1 11q-2 6 -2 9v4l-10 90v2h114l4 -40l13 -115l4 -40l4 -36q3 -20 6 -38q0 -7 1 -14q1 -5 1 -10l4 -36q2 -12 4 -32q2 -13 6 -43l10 -85l3 -40l7 -56l10 -89q1 -11 2 -20l1 -7l1 -5v-2h-114v2l-3 16v6q-1 1 -1 12zM836 804v-98h-281
v-788h-115v788h-273v99z" />
    <glyph glyph-name="uni4E0E" unicode="&#x4e0e;" 
d="M721 14v366h-501v422h118v-85h496v-96h-496v-146h499v-558h-116v3h-202v94h202zM163 139v95h517v-95h-517z" />
    <glyph glyph-name="uni4E10" unicode="&#x4e10;" 
d="M826 799q2 0 2 -1v-96h-275q-1 -1 -1 -2v-71l1 -3h217q2 0 2 -1v-95q0 -2 -2 -2h-217q-1 0 -1 -1v-74q0 -2 1 -2h231q1 0 1 -1v-357q-1 -5 -77 -164q-8 -17 -9 -17h-123q-1 0 -1 2q93 190 94 193v247h-464v294q0 1 2 1h113q1 0 1 -1v-197h115q1 0 1 2v247q0 1 -2 2h-270
q-1 0 -1 1v95q0 1 1 1h661z" />
    <glyph glyph-name="uni4E11" unicode="&#x4e11;" 
d="M264 32l1 5l3 10l3 9l12 36q23 80 28 93l14 48l-1 65v65h-153v103h154v246h-101v103l562 -2l-2 -400v-402h60v-102h-685v102h100l4 17zM444 588v-122h219v245l-218 1q-1 -1 -1 -124zM444 290q0 -76 -2 -78l-2 -11l-3 -9l-4 -11q-4 -9 -24 -72l-23 -72l-6 -24q0 -1 70 -1
h213v351h-218q-1 0 -1 -73z" />
    <glyph glyph-name="uni4E13" unicode="&#x4e13;" 
d="M595 15l65 235h-344l48 203h-201v99h225l23 98h-248v99h272l12 53h116l-14 -53h288v-99h-310l-24 -98h334v-99h-357l-25 -106h364l-113 -429h-366l-74 184h130l36 -87h163z" />
    <glyph glyph-name="uni4E14" unicode="&#x4e14;" 
d="M832 -85h-665v97h76v787h521v-787h68v-97zM355 549h300v154h-300v-154zM355 453v-157h300v157h-300zM655 12v188h-300v-188h300z" />
    <glyph glyph-name="uni4E16" unicode="&#x4e16;" 
d="M230 617v153h114v-153h85v184h115v-184h92v184h114v-184h101v-100h-101v-388h-321v388h-85v-499h507v-100h-621v599h-81v100h81zM544 230h92v287h-92v-287z" />
    <glyph glyph-name="uni4E18" unicode="&#x4e18;" 
d="M797 794v-96q0 -2 -1 -2q-24 -1 -433 -30v-114q0 -1 2 -1h455v-96q0 -1 -1 -1h-81v-442q0 -2 1 -2h100v-96q0 -1 -2 -1h-658q-1 0 -1 1v95q0 1 1 1h66l3 1v745q14 2 548 40zM363 13v-1q1 0 1 1l5 -1h252q1 0 1 1v440q0 1 -1 1h-258v-441z" />
    <glyph glyph-name="uni4E19" unicode="&#x4e19;" 
d="M827 803v-97q0 -1 -1 -1h-276q-2 0 -18 -76h276q-1 -72 -1 -144v-427l1 -4l-45 -144h-118q9 33 19 66q4 13 8 27l3 11l3 10q11 38 11 39v466h-180q-86 -389 -97 -429h-109q3 15 95 429h-109q-1 0 -1 -1v-621h-117q-1 0 -1 2v683q0 18 1 37h246q5 0 5 7q3 14 7 27l4 20
l2 8l1 6q2 5 2 6l-1 2h-278v100h667q1 0 1 -2zM607 360l79 -252h-109q-2 3 -13 46q-8 15 -80 259h105q1 0 18 -53z" />
    <glyph glyph-name="uni4E1A" unicode="&#x4e1a;" 
d="M338 21v107h-103l-80 533h117l66 -434v575h115v-781h80v781h116v-575l65 434h116l-80 -533h-101v-107h220v-102h-220v-1h-116v1h-80v-1h-115v1h-207v102h207z" />
    <glyph glyph-name="uni4E1B" unicode="&#x4e1b;" 
d="M401 804q1 0 1 -1l-26 -204l1 -1h59q0 -2 51 -398h1q1 8 94 601h3h110q-1 -8 -30 -203h57q1 0 9 -48q63 -330 90 -480h-114q-1 0 -11 55q-4 21 -56 306h-1l-54 -366h-22h-77h-77h-20v1l-40 321h-1l-41 -317h-116h-1q18 128 96 719q2 15 3 15h112zM835 14v-97q0 -1 -1 -1
h-661q-1 0 -1 1v95q0 2 1 2h662z" />
    <glyph glyph-name="uni4E1C" unicode="&#x4e1c;" 
d="M167 389v97h1l74 160h-66v96h110l29 65h114l-29 -65h437v-96h-481l-73 -160h157v112h124v-112h266v-97h-266v-475h-200v96h76v379h-273zM164 -59l110 402h125l-109 -402h-126zM695 -59l-109 402h125l110 -402h-126z" />
    <glyph glyph-name="uni4E1D" unicode="&#x4e1d;" 
d="M449 802l-121 -337h34l34 92h113l-127 -339h121v-120h-279l92 247h-143l163 457h113zM768 802l-120 -337h33l33 92h113l-126 -339h94v-120h-252l93 247h-145l163 457h114zM174 -82v97h648v-97h-648z" />
    <glyph glyph-name="uni4E22" unicode="&#x4e22;" 
d="M808 791v-99l-105 -4l-1 -1v1l-3 -1q-6 0 -141 -6v-2v-100q0 -1 1 -1h246v-99h-246q-1 0 -1 -1v-87q0 -2 1 -2h273q1 0 1 -1v-97q0 -1 -1 -1h-181h-156q-135 -239 -160 -282h330v0l-53 161l2 1h110q1 0 36 -107q8 -22 52 -154q-1 0 -1 -1q-202 1 -283 1h-326q-1 0 -1 1
v97q15 25 164 283h-196q-1 0 -1 1v97q0 1 1 1h273v90h-246v99h246v97l-242 -11q-1 -1 -2 -1l-1 2v97q0 1 2 1l170 8l1 1q1 0 1 -1l3 1l76 3h2v0h2l268 12q1 1 2 1v-1l1 1q35 1 38 1l1 1v-1l2 1q35 1 39 1q1 1 2 1z" />
    <glyph glyph-name="uni4E24" unicode="&#x4e24;" 
d="M169 703v96h648v-96h-169v-94h185v-688h-173v97h56v495h-68v-157l68 -244h-106l-29 106l-37 -104h-23v-2h-105l-20 75l-16 -73h-96v-193h-117v688h168v94h-166zM449 609h84v94h-84v-94zM284 132l51 235v146h-51v-381zM449 367l38 -133l46 122v157h-84v-146z" />
    <glyph glyph-name="uni4E25" unicode="&#x4e25;" 
d="M323 438v-271l-39 -252h-114l38 254v368h172v171h-214v99h665v-99h-172v-171h177v-99h-513zM553 537v171h-68v-171h68zM255 561l-43 123h103l42 -123h-102zM725 684h94l-38 -125h-95z" />
    <glyph glyph-name="uni4E27" unicode="&#x4e27;" 
d="M551 795q1 0 1 -1v-38h248q2 0 2 -1v-96q0 -2 -2 -2h-248v-202h276q1 0 1 -1v-96q0 -1 -1 -1h-201q38 -112 53 -157l130 92h1v-131q-3 -4 -89 -64l-6 -5q60 -176 60 -178h-2h-118q-2 0 -10 26q-120 362 -120 365q-1 1 -18 52h-145v-340h85q1 -1 1 -2v-101q0 -1 -1 -1h-59
q-49 0 -132 1q-1 -1 -2 -1q-1 1 -3 1h-4q-1 0 -1 1v442h-77q-1 0 -1 1v96q0 1 1 1h266q1 0 1 2v199q0 1 -1 1h-239q-1 0 -1 2v96q0 1 1 1h239q1 0 1 1v38h114zM337 637q2 0 11 -36q1 0 39 -132l-1 -1h-105q-2 0 -12 41q-2 2 -37 128h1h104zM759 636l-49 -167l-1 -1h-104
q-2 0 -2 1q48 163 50 168h104q2 0 2 -1z" />
    <glyph glyph-name="uni4E2A" unicode="&#x4e2a;" 
d="M709 443l-131 262h-165l-129 -262h-114l175 359h303l175 -359h-114zM441 -82v662h116v-662h-116z" />
    <glyph glyph-name="uni4E2D" unicode="&#x4e2d;" 
d="M443 624v178h113v-178h291q2 0 2 -3v-336h-293v-367h-113v367h-292v339h292zM264 383h179v143h-179v-143zM556 383h180v143h-180v-143z" />
    <glyph glyph-name="uni4E30" unicode="&#x4e30;" 
d="M434 208v162h-254v98h254v151h-265v98h265v79h110v-79h285v-98h-285v-151h266v-98h-266v-162h285v-98h-285v-193h-110v193h-265v98h265z" />
    <glyph glyph-name="uni4E32" unicode="&#x4e32;" 
d="M562 804q1 0 1 -1v-57h242q1 0 1 -1v-301q0 -1 -1 -1h-242v-70h278q2 -1 2 -2v-308q0 -2 -2 -2h-278v-152q0 -1 -1 -1h-115q-1 0 -1 1v152h-273q-1 0 -1 2v308q0 2 1 2h273v70h-239q-1 0 -1 1v301q0 1 1 1h239v57q0 1 1 1h115zM323 534h121v109h-121v-109zM559 534h124
v109h-124v-109zM289 156h155v116h-155v-116zM559 156h161v116h-161v-116z" />
    <glyph glyph-name="uni4E34" unicode="&#x4e34;" 
d="M482 737l1 8l2 7q3 16 4 23l4 19q0 1 57 1q58 0 58 -2l-6 -32h231l2 -49v-50h-53q0 -3 2 -13q3 -13 8 -32q3 -13 6 -22q2 -7 3 -10l3 -7l1 -5l2 -5l1 -4l3 -11l3 -10q3 -10 5 -14l8 -30l5 -16l-37 -2h-77l-6 24l-24 76l-18 67l-3 14h-85l-3 -14l-2 -15q-7 -18 -8 -36
q-3 -13 -6 -25l-2 -10l-2 -5l-2 -12l-3 -12l-1 -10l-3 -11l-1 -9v-10q-3 -10 -3 -13q0 -1 -60 -1h-57l18 86l31 155q2 8 4 17zM163 609l1 87v6h81v-18q-1 -4 -1 -86v-37q-2 -14 -2 -44q0 -92 -1 -108l-1 -52l-2 -54q0 -37 -1 -44v-59l-1 -21v-29l-2 -11v-41l-1 -17v-67
l-3 -88v-6h-70v304q0 193 3 385zM478 -74h-57v511h415v-511h-49q-9 -1 -151 -1q-148 0 -158 1zM266 -84v879h115v-879h-115zM538 23h37v316h-37v-316zM690 23h29v316h-29v-316z" />
    <glyph glyph-name="uni4E38" unicode="&#x4e38;" 
d="M400 713l1 -2h51q47 0 129 1h79l43 1h46v-708q0 -2 1 -2h79v-90q0 -7 -2 -7h-197v708h-230v-250q1 0 7 -5q8 -5 20 -12q32 -22 74 -51h1v-136h-1q-9 6 -101 68v-12q0 -3 -51 -233q-7 -33 -12 -56q-4 -19 -4 -21h-122l72 317v85q-102 68 -117 77v136l117 -77v170h-127v97
h126q1 0 1 2v93h117v-93z" />
    <glyph glyph-name="uni4E39" unicode="&#x4e39;" 
d="M171 -97v4l2 6l1 4l1 4l4 14l19 62l25 86l18 55v209h-67v102h67v129q0 129 -2 129t-2 51t1 52l560 -1l-1 -180v-180h63v-102h-63v-440l-298 -1v103h178v338h-317v-223h-2l-12 -33l-3 -9l-1 -7l-3 -9l-12 -39l-5 -18l-5 -18q-5 -16 -10 -31q-2 -6 -3 -12q-2 -5 -3 -10
l-6 -21l-1 -3l-4 -12h-60q-59 0 -59 1zM459 451v3l-1 6l-2 5l-1 9l-1 11l-4 23l-18 109l-9 54h138l3 -14l4 -25l1 -8l2 -7l1 -12l11 -56l6 -49l8 -51h80v258h-317v-258h50q49 0 49 2z" />
    <glyph glyph-name="uni4E3A" unicode="&#x4e3a;" 
d="M437 483l-9 -37l-10 -42l-9 -40l-7 -28l-23 -110q-1 -4 -3 -15l-3 -9l-1 -8l-4 -15l-3 -14q-7 -33 -9 -35q0 -2 -2 -10l-1 -7l-1 -8q-4 -19 -12 -45q-17 -60 -24 -94l-4 -13l-3 -12l-5 -24q0 -1 -59 -1q-58 0 -58 1l3 15l4 16l5 20l5 20q3 18 8 40l4 18l4 16l3 11
q1 6 2 9q3 8 3 9l2 8l2 9l4 22l7 23l5 25q6 17 11 51l5 22l5 23l20 86l2 4l1 4l3 12l5 20l4 18l1 14l16 71l11 46h-149v99h172l8 32l2 10l3 12l3 16l4 16q4 14 7 30l3 12l2 10q4 17 5 18q0 1 57 1h59l-16 -76l-19 -81h338v-735h-117v636h-244l-5 -33zM301 805l12 -57
q15 -58 15 -60l1 -2h-117l-14 58l-15 60l42 1h76zM485 418q-1 1 -1 4h115l15 -63q14 -48 31 -136l2 -14l4 -16l4 -14l3 -12l5 -20h-2q-1 -1 -10 -1h-106l-31 138l-14 62l-12 61z" />
    <glyph glyph-name="uni4E3B" unicode="&#x4e3b;" 
d="M123 -79v93q0 1 3 1h325v349h-248l-1 1v95l1 1h248v155h-281l-1 1v94l1 2h657q1 0 3 -2v-94q-1 -1 -3 -1h-278v-155h248l1 -1v-95l-1 -1h-248v-349h325q3 0 3 -1v-93q0 -3 -3 -3h-748q-3 0 -3 3zM444 731v18l116 53v-71h-116z" />
    <glyph glyph-name="uni4E3D" unicode="&#x4e3d;" 
d="M166 697v99h668v-99h-668zM483 544v-436h-2l-25 -184h-116l27 189v112l-53 48v150l53 -49v170h-79v-623h-115v722h311v-99h-1zM653 423l64 -57v178h-85v-623h-117v722h316v-3h2v-536h-2l-25 -184h-116l27 189v107l-64 57v150z" />
    <glyph glyph-name="uni4E3E" unicode="&#x4e3e;" 
d="M182 796q-2 4 -2 6h135l14 -39l8 -23l8 -21l3 -9l3 -7q1 -4 2 -7l1 -2l1 -1l12 -31q0 -1 -68 -1h-67l-28 74l-17 49l-3 7zM442 681q-3 11 -6 21q-5 14 -11 29l-3 8l-4 9l-2 8l-3 7l-2 6l-2 5q-3 5 -3 6l-2 7l-3 7l-1 5l-1 3h135l26 -69l13 -36q8 -21 12 -34l1 -2h-136
l-1 2l-1 6l-3 5zM657 702l13 32l11 32l2 5q2 3 3 9q2 6 4 10q1 1 1 5l3 7h68q66 0 66 -2l-18 -50l-23 -57l-10 -32h-136q0 2 16 41zM195 433q3 3 6 7l1 3l1 3l12 22q5 12 14 24l10 16l13 24l-42 1h-42v100h667v-100h-85l4 -4l28 -49l4 -7l2 -8l7 -11l7 -10q7 -13 13 -25
q2 -3 3 -7l1 -2l1 -1l15 -27h-133l-11 16l-38 71l-7 12l-8 13l-9 19l-10 16l-4 4l-227 -1l-52 -90l-13 -22l-12 -20q-4 -10 -6 -10l-4 -8h-134l8 14l12 21l5 9zM168 158h274v79h-274v100h274v107h60l58 -2l1 -52v-53h274v-100h-274v-79h274v-99h-274v-73l-1 -75h-116l-2 75
v72l-274 1v99z" />
    <glyph glyph-name="uni4E43" unicode="&#x4e43;" 
d="M781 792q1 0 1 -1v-98l-125 -174h176l1 -1q-1 -159 -1 -245v-182q0 -1 1 -2l-65 -177h-128q-2 0 -2 1q81 196 81 197v310h-197q-1 0 -1 1v97l129 175h-251q-7 -51 -108 -756q-3 -25 -4 -25h-111l-1 1q15 100 112 780h-111q-1 0 -1 1v97q0 1 1 1h604z" />
    <glyph glyph-name="uni4E45" unicode="&#x4e45;" 
d="M218 -34l5 10l4 6l3 4l2 5l3 7l5 9l6 10l6 10l7 14l7 12l1 2l1 3q2 3 4 9l7 12l8 12l7 12l6 14l5 9l6 8l12 21l6 14l7 11l11 16l9 18l8 13l3 7l2 5l1 2l3 3q3 4 6 10l24 45l26 44l22 44l22 37l24 41l44 78l8 14l8 16l7 13l6 12q2 4 5 8l2 4l1 3q3 4 3 5l17 31h-249
l-20 -53l-1 -8l-4 -8l-2 -6l-2 -6q-2 -6 -3 -8l-13 -39l-8 -22h-69l-68 2q4 6 5 12l6 15l20 57l13 33l45 129l23 62h137l-3 -6l-2 -6l-3 -8l-3 -8l-2 -8l-3 -10l-3 -6l-2 -4q0 -2 202 -2h202q0 -1 -1 -2q0 -1 -5 -11l-8 -13l-4 -9l-4 -10l-6 -10l-8 -12q-10 -17 -20 -35
l-7 -12l-6 -12q-10 -16 -15 -26q-19 -32 -33 -59l-44 -81q-37 -63 -38 -68l-15 -26l29 -53l11 -16l9 -17l18 -35l4 -5q6 -12 9 -19l8 -16l3 -6l2 -4l33 -57l22 -39l20 -37l14 -27l15 -27l4 -9l5 -7q4 -8 6 -10l16 -29l5 -10l4 -6l4 -8l8 -18h-136l-21 38q-5 11 -19 34
l-21 39l-31 56l-34 60q-4 4 -7 12q-5 9 -8 17l-11 18l-6 11l-7 11l-7 13l-6 11q-4 8 -6 9q-1 -1 -1 -4l-9 -15l-8 -14l-4 -8l-5 -8q-3 -4 -7 -12l-7 -13l-21 -36l-21 -43l-8 -12l-3 -5l-3 -4l-2 -4l-2 -3l-2 -4l-46 -81l-29 -55l-5 -8h-135v2l12 24l11 18z" />
    <glyph glyph-name="uni4E48" unicode="&#x4e48;" 
d="M169 373l314 432h137l-302 -432h-149zM741 526l-398 -512h303l-48 102h130l103 -201h-632v98l-2 1l405 512h139z" />
    <glyph glyph-name="uni4E49" unicode="&#x4e49;" 
d="M449 632v93l116 74v-167h-116zM838 -83h-147l-191 296l-192 -296h-144l267 402l-267 414h132l205 -309l206 309h131l-268 -413z" />
    <glyph glyph-name="uni4E4B" unicode="&#x4e4b;" 
d="M441 711v38l118 54v-92h-118zM740 594h-579v96h676l2 3v-99h-1v-72l-496 -508h496v-97h-677v97h4l-4 4z" />
    <glyph glyph-name="uni4E4C" unicode="&#x4e4c;" 
d="M442 800l1 -1l-21 -49h360h1q0 -20 1 -44q-1 -91 -1 -162l-34 -98h-113l33 101v102q0 1 -1 1h-335v-223h499q1 0 1 -1v-336l-56 -178h-1h-115q-1 0 -1 1q58 178 58 183v231h-498q-1 0 -1 1v421q0 1 1 1h68q21 48 23 50h131zM680 208q1 0 1 -1v-93q0 -2 -1 -2h-511
q-1 0 -1 2v93q0 1 1 1h511z" />
    <glyph glyph-name="uni4E4D" unicode="&#x4e4d;" 
d="M357 791l-8 -51h1h482v-94h-366q-2 -1 -2 -2v-196h319v-94q0 -1 -1 -1h-318v-186h346q1 0 1 -1v-93q0 -1 -1 -1h-346v-155q0 -1 -1 -1h-110q-2 0 -2 1v727q0 2 -1 2h-16q-2 0 -10 -54q-1 -1 -29 -169l-2 -1h-116l-1 1l63 368h1h115l1 1z" />
    <glyph glyph-name="uni4E4E" unicode="&#x4e4e;" 
d="M731 702q-3 0 -155 -9v-313h257q1 0 1 -1v-99q0 -1 -1 -1h-257v-175q0 -2 -1 -6q-1 -5 -3 -11q-3 -16 -8 -36q-14 -60 -31 -134q-3 -12 -4 -12h-116q-1 0 -1 1q45 194 45 197v176h-297q-1 0 -1 1v99q0 1 1 1h297v305q-5 0 -69 -4q-78 -5 -190 -12v98q0 2 1 2
q129 8 255 16q50 4 101 7q38 2 83 5q152 10 156 10h3v-100zM365 560q0 -1 3 -12q2 -11 7 -30q10 -49 25 -119h-113q-3 0 -12 49q0 2 -11 50q-3 15 -5 27q-4 16 -7 32q-8 40 -17 81h113q1 0 17 -78zM733 399h-111q48 235 51 239h109q-49 -238 -49 -239z" />
    <glyph glyph-name="uni4E4F" unicode="&#x4e4f;" 
d="M770 693l-386 -25v1l-1 -1q-10 0 -201 -12v110q0 1 2 1q10 0 620 39v-110q0 -3 -34 -3zM552 569q0 -1 -2 -1h-113q-1 0 -1 1v44q4 4 58 28q50 24 56 27h2v-99zM830 557v-96l-16 -15q-9 -9 -18 -17q-13 -12 -27 -25q-35 -34 -75 -71q-50 -47 -104 -99l-242 -231h480
q1 -1 2 -1v-97l-4 1h-647v97q197 182 343 316q53 49 89 82q30 28 34 31q11 10 32 29h-519q-2 0 -2 2v94q0 1 2 1h670q2 0 2 -1z" />
    <glyph glyph-name="uni4E50" unicode="&#x4e50;" 
d="M164 410v332q0 2 2 2l663 60q2 -2 2 -3v-97l-2 -1l-547 -50v-145h167v119h115v-119h269v-98h-269v-497h-190v100h75v397h-285zM168 -87l77 417h118l-75 -417h-120zM712 -87l-76 417h119l76 -417h-119z" />
    <glyph glyph-name="uni4E54" unicode="&#x4e54;" 
d="M695 701q-42 -2 -76 -3q-47 -3 -94 -5q-1 -1 -15 -22l-3 -5l-4 -6q-5 -7 -10 -13q-12 -17 -23 -34h359q2 0 2 -1v-99q0 -1 -2 -1h-121l115 -157h-93v-448q0 -1 -2 -1h-117v474h69q-31 42 -60 83q-10 13 -21 29l-4 6l-4 5l-6 9h-184q-1 -1 -48 -69l-43 -63h66v-302
q0 -2 -30 -172h-117q-1 0 -1 1q13 69 21 122q4 20 6 34q2 12 2 16v277h-92q-1 0 -1 1q6 8 105 155h-112v101h180l51 73q-173 -7 -184 -9h-3v98q0 1 35 3q2 0 26 1q28 1 72 4q115 5 278 14q168 8 177 9v-100q-14 -1 -94 -5z" />
    <glyph glyph-name="uni4E58" unicode="&#x4e58;" 
d="M439 641v43l-10 -1h-26q-2 -2 -12 -2h-7l-9 -1q-30 0 -33 -1l-31 -2l-28 -2l-16 -2h-15q-23 0 -26 -1l-56 -4h-5v97l8 1h12q33 0 61 4l364 22l12 1h31q2 1 9 1h6l30 2l30 2l52 4h37v-95l-3 -2l-109 -6l-11 -2h-9l-17 -1l-24 -1l-24 -2q-59 -2 -63 -4h-4v-48h262v-98h-262
v-628h-114v628h-274v98h274zM260 325l30 1v56h-6l-48 4q-26 0 -31 1q-14 0 -15 1h-4v98h11q11 0 15 -2l76 -4q2 0 2 16v18h113l1 -39v-144l-1 -29v-73q-4 -2 -113 -2l-115 -2h-5v98h31q10 2 59 2zM657 227h-64v285h115v-34l5 1l39 1l16 2l15 1h15q2 1 9 1h4v-98h-2l-101 -6
v-57h40l17 -1h62v-97h-85l-22 1h-23q-34 0 -40 1zM190 -70q1 4 3 9l6 21q7 27 12 47q2 8 3 14q2 5 2 8l3 11l3 12l2 10l1 4l1 3l10 129h114v-7q0 -11 -2 -17v-8q0 -13 -1 -16l-3 -32l-5 -56l-1 -21l-18 -55l-6 -23l-3 -11l-3 -11l-4 -12v-4l-1 -2l-3 -8h-114l3 8q0 3 1 7z
M681 5l-9 36l-6 71l-1 14v7l-1 8l-3 25q-1 3 -1 16v7q-2 2 -2 6v3h115l7 -81l3 -29l3 -32l17 -67l16 -60l4 -14h-114l-8 26q-7 34 -20 64z" />
    <glyph glyph-name="uni4E5D" unicode="&#x4e5d;" 
d="M172 645v98h155l7 61h136l-4 -61h290v-734h70v-97h-207v733h-161l-22 -308v-20l-129 -405h-135l126 406v19l24 308h-150z" />
    <glyph glyph-name="uni4E5E" unicode="&#x4e5e;" 
d="M341 799q-9 -28 -11 -36h514q1 0 1 -1v-95q0 -2 -1 -2h-544q-22 -72 -25 -79h531q2 0 2 -1q-337 -460 -352 -482q-1 0 -68 -93h456q1 0 1 -1v-94q0 -1 -1 -1h-605q-1 0 -1 1v94l354 481h-326q-1 0 -1 1v61h-117q-1 0 -1 2l76 246h117q1 0 1 -1z" />
    <glyph glyph-name="uni4E5F" unicode="&#x4e5f;" 
d="M826 -83h-600v564l-59 -18v102l59 18v182h115v-146l120 37v144h116v-108l237 73v-492l-53 -128h-127l64 160v322l-121 -37v-456h-116v420l-120 -37v-501h485v-99z" />
    <glyph glyph-name="uni4E60" unicode="&#x4e60;" 
d="M199 699q-1 0 -1 2v98q0 3 1 3h627v-884h-289v107h168v674h-506zM459 444l-220 211h127l173 -166zM174 111v127l483 255v-124z" />
    <glyph glyph-name="uni4E61" unicode="&#x4e61;" 
d="M377 -82h-165l318 331h-294v98l160 134h-228v97l279 225h177l-278 -225h166l63 53h188l-325 -284h187l62 65h149z" />
    <glyph glyph-name="uni4E66" unicode="&#x4e66;" 
d="M745 789l5 2q5 2 11 4q13 5 17 9l6 2l4 2l8 3v-91h-117v20l1 18l62 29zM171 425h169v176h-142v99h142v92h118v-92h336v-1l-14 -101l-2 -11v-5l-1 -8l-4 -29l-7 -51l-5 -31l-5 -35q0 -2 40 -2h40v-258l-2 -257h-289v97h173v318h-260v-207l-2 -208h-114l-2 208v207h-169v99
zM640 426l5 39l4 25v9l2 11l4 25q8 62 9 63v3h-206v-176h90q91 0 92 1z" />
    <glyph glyph-name="uni4E70" unicode="&#x4e70;" 
d="M829 802v-144h-116v47h-539v97h655zM400 566l-137 26v98l137 -25v-99zM417 440l86 173h121l-85 -173h296v-97h-343l-206 -425h-121l206 425h-198v97h244zM363 449l-137 25v99l137 -25v-99zM712 -79l-151 394h117l149 -394h-115z" />
    <glyph glyph-name="uni4E71" unicode="&#x4e71;" 
d="M525 702l-13 -1q-7 0 -27 -2l-29 -1l-43 -1v-108h136v-100h-136v-88h136v-50q0 -50 -1 -50q-2 -2 -2 -143q0 -144 2 -144q1 -1 1 -51q0 -49 -1 -49q-1 -1 -196 -1l-192 1v487h135v88h-135v100h135v101h-5l-47 -3h-6q-6 0 -13 -1h-16q-8 -1 -24 -1q-16 -1 -17 0
q-1 0 -1 48v50h10l10 2h13l17 1l19 1l51 3l83 4l87 4q28 2 48 3q7 1 12 1h10l-1 -51v-49zM685 798h38v-393l2 -392l65 -2h67v-100h-132q-1 -1 -59 -1h-58v889h44q22 0 33 -1zM431 13v287h-78l-75 1v-288h153z" />
    <glyph glyph-name="uni4E73" unicode="&#x4e73;" 
d="M648 -80h-59v880h45q29 0 34 -1l38 -2v-778h135v-99h-135q0 -1 -15 -1h-18q-21 0 -25 1zM160 671v97h3l23 3l362 22h1v-98h-3q-1 -1 -4 -15l-2 -8l-3 -9l-1 -4l-2 -6q-2 -10 -4 -14l-20 -65l-1 -14h-49q-49 0 -49 2l18 65q9 27 11 36l4 13l3 12h-12l-7 -1l-35 -2l-18 -2
q-2 0 10 -57l12 -63v-3h-87l-12 59l-4 21l-2 9l-1 8q-1 14 -3 15v5h-5q-10 0 -12 -1h-16q-3 0 -3 -1q0 -2 12 -40l1 -3l1 -3q1 -5 2 -9l3 -8l3 -10l6 -27l7 -19q0 -1 -44 -1l-43 1l-17 47l-20 60zM192 148l-13 -3v99l37 8l63 14l24 5l1 6q0 9 6 18l1 2l2 3l4 10l4 8l6 9
l4 12l5 10l12 28q3 1 9 20q6 11 6 14l2 4l11 23h-212v97q0 1 200 1q201 0 201 -1l-3 -5l-2 -6l-4 -6l-6 -8l-28 -48l-13 -25l-18 -35l-16 -28l-19 -36l-19 -35q0 -2 2 0l48 11l57 13l9 2q1 0 1 -48v-49l-5 -3l-64 -13q-18 -7 -34 -8l-14 -3l-9 -4h-4l-4 -1v-141l-1 -143
h-115v129l-1 128h-1z" />
    <glyph glyph-name="uni4E7E" unicode="&#x4e7e;" 
d="M623 798l2 -1q-2 -3 -7 -31h226q1 0 1 -1v-96q0 -1 -1 -1h-245q-1 0 -7 -32l-2 -1h-112l-1 1l33 161l1 1h112zM361 797q2 0 2 -1v-44h84q1 -1 1 -2v-92q0 -1 -1 -1h-84v-49h84q1 -1 1 -2v-317v-2h-27h-58v-68h84q1 0 1 -1v-92q0 -2 -1 -2h-84v-210q0 -1 -2 -1h-118
q-2 0 -2 1v210h-97q-1 0 -1 2v92q0 1 1 1h97v68h-97l-1 2v317q0 2 1 2h97v49h-97q-1 0 -1 1v92q0 2 1 2h97v44q1 1 2 1h118zM845 605q1 0 1 -1q-200 -594 -200 -595h198q1 0 1 -1v-94q0 -1 -1 -1h-362q-1 0 -1 1q197 557 210 595h-209q-1 0 -1 1v94q0 1 1 1h363zM242 372
h107q1 0 1 1v31h-108v-32zM242 489h108v34h-108v-34z" />
    <glyph glyph-name="uni4E86" unicode="&#x4e86;" 
d="M839 707l-269 -259v-534h-248v97h111v486h1l219 210h-490v99h677v-99h-1z" />
    <glyph glyph-name="uni4E88" unicode="&#x4e88;" 
d="M722 799l2 4l3 2q5 -3 19 -17l1 -1l2 -1l5 -5l5 -5l7 -7l17 -17q5 -4 12 -10l4 -4l4 -3q-2 -2 -4 -5l-4 -6l-4 -6l-23 -36q-2 -4 -21 -31l-8 -12l-9 -13l-12 -17l-11 -17q-10 -15 -21 -31l-18 -27q-22 -32 -27 -40q-15 -24 -19 -29q2 -2 31 -2h30q13 0 39 2h101v-8
q-4 -10 -8 -50l-3 -22q-2 -18 -4 -28q-2 -26 -4 -39q-4 -49 -8 -58l-1 -6v-10q0 -2 -57 -2h-57v3q0 1 1 6v5l1 6v7l2 8l1 9l1 10q2 8 4 22l1 7v5l2 10v10q1 3 1 8v3q0 1 -60 1h-62v-229l-3 -9l-1 -4v-4l-2 -4l-4 -13l-4 -14l-5 -16l-4 -16l-5 -16l-4 -14q-5 -15 -7 -23
q-8 -28 -12 -38l-5 -16l-3 -12q-5 -13 -5 -15l-3 -9h-57q-56 0 -56 1q-1 0 3 13q0 1 2 7l2 8l2 8q3 9 8 26l4 13l4 15q8 30 18 60q4 21 12 46l12 41v214h-288v101h107q106 0 106 2q-6 9 -27 44q-1 4 -24 37q-7 11 -13 21l-2 4l-2 3q-2 4 -3 5q-5 8 -13 23l-4 6l-4 8l-5 10
l-5 8l-16 24h45q22 0 32 1h38l16 -29q16 -21 46 -76l38 -64q10 -16 11 -17q2 3 8 10l4 7l6 8q4 6 23 33l10 15l11 15q12 19 23 34q65 91 65 92l12 17l-218 2h-218v99h499l1 -4z" />
    <glyph glyph-name="uni4E89" unicode="&#x4e89;" 
d="M387 763h256q0 -1 2 -1h57l-48 -144h112v-167h64v-101q0 -2 -2 -2h-62v-153h-225q-1 0 -1 -1v-143l1 -1q-5 -11 -24 -52l-4 -9l-5 -10q-5 -12 -10 -22q-13 -26 -24 -51h-122q75 153 76 155v134h-219v103h219v50h-270l-2 2v101h272v64q0 1 -2 1h-150v13h-104q0 2 84 230
q4 10 7 19q3 7 5 14q5 12 5 13h127zM337 618h184q11 29 16 43h-185q-5 -14 -15 -43zM541 451h112v65h-112q-1 0 -1 -1v-63zM653 298v50h-113v-50h113z" />
    <glyph glyph-name="uni4E8B" unicode="&#x4e8b;" 
d="M434 78v42h-257v98h257v17l-1 19h-257v99h258v42h-258v248h257l1 18v19h-257v100h257v24h116v-24h269v-100h-269v-19l1 -18l114 1q132 0 135 -1h19v-97h-20v-51l9 -1h11v-99h-269v-42h269v-373h-269v-67h-116v67h-257v97zM550 235v-17h153v36h-152q-1 -1 -1 -19zM292 495
h142v51h-142v-51zM550 495h132v51h-132v-51zM550 78h153v42h-153v-42z" />
    <glyph glyph-name="uni4E8C" unicode="&#x4e8c;" 
d="M203 627v100h597v-100h-597zM168 -14v98h667v-98h-667z" />
    <glyph glyph-name="uni4E8E" unicode="&#x4e8e;" 
d="M441 22v349h-286v101h286v229h-263v100h644v-100h-258v-229h281v-101h-281v-452h-123v2h-121v101h121z" />
    <glyph glyph-name="uni4E8F" unicode="&#x4e8f;" 
d="M203 711v92h590v-92h-590zM237 265v95l41 122h-111v93h662v-93h-445l-43 -122h452v-3h2v-446h-254v93h137v261h-441z" />
    <glyph glyph-name="uni4E91" unicode="&#x4e91;" 
d="M806 801v-99h-603v99h603zM768 276l69 -367h-666v96l111 410h-111v96h666v-96h-425l-112 -410h392l-51 271h127z" />
    <glyph glyph-name="uni4E92" unicode="&#x4e92;" 
d="M827 802l-1 -4v-94h-383q-6 -39 -26 -126h347l2 -2l-31 -158q-16 -86 -33 -174q-23 -115 -46 -237h170v-99h-668q-1 0 -1 1v96q0 2 1 2h365l29 147h-345q-1 0 -1 3l104 547h-152q-1 0 -1 1v97q0 1 1 1h667zM354 254h215q7 0 7 14q1 4 44 209h-223l-45 -222z" />
    <glyph glyph-name="uni4E94" unicode="&#x4e94;" 
d="M170 433v100h196l22 168h-203v101h620v-101h-294l-23 -168h288v-514h66v-101h-684v101h140l54 414h-182zM420 19h237v414h-182z" />
    <glyph glyph-name="uni4E95" unicode="&#x4e95;" 
d="M749 244v-330h-129v330h-222l-64 -329h-128l63 329h-100v95h102v242h-83v98h83v119h130v-119h219v119h129v-119h61v-98h-61v-242h80v-95h-80zM620 581h-219v-242h219v242z" />
    <glyph glyph-name="uni4E9A" unicode="&#x4e9a;" 
d="M834 -78h-666v96h191v692h-172v96h627v-96h-172v-692h192v-96zM526 18v692h-52v-692h52zM215 94l-27 528h124l25 -528h-122zM689 622h123l-26 -528h-123z" />
    <glyph glyph-name="uni4E9B" unicode="&#x4e9b;" 
d="M295 719v-343h2l20 1l19 3l1 217v216h120v-140h68v-101h-68v-88q0 -89 1 -89l28 4l31 4h1v-102l-2 -1l-273 -33l-11 -2l-13 -1l-11 -1l-9 -1q-4 -2 -12 -2h-5l-20 -4h-10v103l23 1v359h120zM677 642l1 3l3 4q2 3 14 25l27 45l8 12h37l23 2h60l-6 -11l-4 -5l-4 -7l-9 -17
l-44 -80l-12 -21l-4 -7l-2 -5l-6 -8l-12 -22l-8 -1q-3 -1 -36 -1q-27 0 -29 -2v-153h44q36 0 52 2q48 0 56 1h18v-101l-20 -2l-126 -2l-125 -2l-19 -1v525h120v-173zM196 106v101h602v-101h-602zM163 -93v103h672v-103h-672z" />
    <glyph glyph-name="uni4EA1" unicode="&#x4ea1;" 
d="M380 12h410v-97h-506v1h-21v703h-93v97h255v45l128 41v-86h278v-97h-451v-607z" />
    <glyph glyph-name="uni4EA4" unicode="&#x4ea4;" 
d="M560 810v-70h-116v17zM172 737h662v-98h-662v98zM414 604l-89 -152h-127l89 152h127zM776 452h-127l-77 152h127zM504 130l-162 -223h-152l240 320l-153 196h138l84 -104l77 104h140l-142 -197l258 -319h-153z" />
    <glyph glyph-name="uni4EA5" unicode="&#x4ea5;" 
d="M559 799v-54h289q1 0 1 -2v-96q0 -1 -1 -1h-339q-42 -52 -139 -177h114l98 88h171v-1q-7 -7 -435 -390h-171v1q1 0 228 204h-152v95v3q11 13 139 177h-215q-1 0 -1 1v96q0 2 1 2h289v9q0 2 113 42q1 1 10 4v-1zM805 352v0q-1 -2 -177 -170h50q5 -4 70 -109
q84 -129 102 -159h-155q-9 14 -132 206q-11 -11 -216 -206h-157v1q4 4 380 363q67 65 78 74h157z" />
    <glyph glyph-name="uni4EA6" unicode="&#x4ea6;" 
d="M557 799v-56h287q2 0 2 -1v-96q0 -1 -2 -1h-196v-727q0 -1 -1 -1h-114q-1 0 -1 1v727h-71v-454q0 -6 -40 -274h-125q-2 0 -2 1q50 285 51 297v430h-199q-1 0 -1 1v96q0 1 1 1h288v11q0 2 48 18q7 3 74 28zM320 554h2l-54 -486h-1h-121h-1q2 14 53 486h1h121zM791 554
q3 0 4 -24q3 -19 51 -462h-2h-120q-3 0 -9 67q-8 73 -45 419h1h120z" />
    <glyph glyph-name="uni4EA7" unicode="&#x4ea7;" 
d="M561 801v-62h270v-98h-655v98h269v8zM331 482l-36 123h101l37 -123h-102zM568 482l36 123h102l-36 -123h-102zM284 381v-462h-114v561h661v-99h-547z" />
    <glyph glyph-name="uni4EA8" unicode="&#x4ea8;" 
d="M825 650h-667v100h276v4l118 53v-57h273v-100zM784 615v-255h-586v255h586zM320 458h344v59h-344v-59zM651 128v-214h-417v98h298v138h4l98 75h-455v100h583v-2l2 2l53 -62z" />
    <glyph glyph-name="uni4EA9" unicode="&#x4ea9;" 
d="M570 798v-54h281q1 0 1 -1v-96q0 -2 -1 -2h-701q-1 0 -1 2v96q0 1 1 1h296v9q0 3 48 19q2 1 75 28zM810 585q1 0 1 -1v-668q0 -1 -1 -1h-67q-161 0 -233 -1q-74 1 -235 1h-74h-1v245v424q1 1 2 1h608zM317 325h134v161h-134v-161zM567 325h127v161h-127v-161zM317 14h134
v212h-134v-212zM567 14h127v212h-127v-212z" />
    <glyph glyph-name="uni4EAB" unicode="&#x4eab;" 
d="M554 805v-69h274v-100h-652v100h261v13zM212 390v213h576v-213h-576zM330 480h341v31h-341v-31zM176 209h331l99 53h-394v98h576v-98l-92 -53h132v-99h-267v-105l-47 -93h-116l47 93v105h-269v99z" />
    <glyph glyph-name="uni4EAC" unicode="&#x4eac;" 
d="M553 802v-53h292v-96h-690v96h292v1zM773 628v-316h-213v-394h-105v394h-216v316h534zM346 408h323v124h-323v-124zM206 -82l24 324h86l-25 -324h-85zM709 -82l-16 324h77l16 -324h-77z" />
    <glyph glyph-name="uni4EAD" unicode="&#x4ead;" 
d="M560 799v-52h288q1 0 1 -1v-96q0 -1 -1 -1h-700q-1 0 -1 1v96q0 1 1 1h288v8q5 3 83 30q4 2 40 15zM780 615q2 0 2 -1v-206l-1 -1h-277h-26h-277l-1 1v206q1 1 2 1h578zM843 388q1 0 1 -1v-96l-1 -2v-28q0 -1 -1 -1h-121q-2 0 -2 1v29h-448v-29q0 -1 -2 -1h-121
q-1 0 -1 1v126q0 1 1 1h695zM808 246q2 -1 2 -2v-88q0 -1 -2 -1h-248v-121q-6 -22 -40 -119h-129v1q45 125 45 127v112h-253q-1 0 -1 1v88q0 2 1 2h625zM312 498h358v26h-358v-26z" />
    <glyph glyph-name="uni4EAE" unicode="&#x4eae;" 
d="M560 809v-71h278v-100h-675v100h278v16zM189 404v208h621v-208h-621zM307 494h386v27h-386v-27zM720 252v29h-440v-29h-118v128h676v-128h-118zM764 11h70v-100h-189v228h-311v-85h-2l-52 -143h-118l53 148v180h549v-228z" />
    <glyph glyph-name="uni4EB2" unicode="&#x4eb2;" 
d="M439 367v55h-254v48l1 46h114q0 4 -7 18q0 1 -1 4t-3 8l-7 13l-6 16q-19 44 -20 45l-7 19h-31l-32 1v95h263v18l65 31l42 20h3v-69h268v-96h-72l-14 -35l-10 -25l-4 -12l-3 -7l-3 -6l-2 -5l-3 -5q-11 -25 -11 -26q0 -2 62 -2h60v-94h-275v-55h275v-96h-275v-358h-113v358
h-253v96h253zM600 536q17 40 19 47q3 6 12 28l4 13l5 11l3 4h-281l5 -11l4 -12l3 -8l4 -8l33 -84h181l4 10q0 2 4 10zM173 -19l13 39q6 15 10 26l2 7l2 8l4 13l5 12q15 40 27 76l4 16l2 7l3 5l8 25l3 8v3h113l-12 -37l-10 -27l-9 -26l-8 -24l-33 -94l-4 -14l-5 -16l-6 -12
l-2 -11l-3 -7l-2 -6q-1 -6 -2 -7l-8 -22h-95v26q0 20 3 32zM704 -60l-7 19l-6 19l-17 48l-14 40v1l-1 3q-1 5 -3 10l-2 5v8q-5 11 -7 19q-4 5 -8 20l-3 8l-1 8q-2 3 -4 9q-1 3 -1 5l-19 52q0 1 57 1l55 -1l24 -64l1 -4v-5q1 -3 2 -8l2 -5l5 -15l6 -16q6 -14 10 -27
q3 -10 4 -16l2 -4l2 -5l3 -8l3 -7l14 -40q11 -25 15 -42q5 -17 5 -19l4 -16h-112l-2 10l-3 5l-1 5z" />
    <glyph glyph-name="uni4EBA" unicode="&#x4eba;" 
d="M568 804q-57 -180 -105 -342h104l1 1q8 -10 258 -552h-137q-3 0 -110 234q-12 23 -128 275h-1q-156 -508 -160 -515h-128l-4 -1l-1 3q11 41 258 839l17 59h133q3 0 3 -1z" />
    <glyph glyph-name="uni4EBF" unicode="&#x4ebf;" 
d="M344 706v-800h-119v651h-69v1l88 217q5 13 8 22q3 7 4 9h128zM705 805q0 1 2 1h63v-1l1 1h59v-1q-118 -379 -120 -386q-7 -23 -38 -123l-7 -24l-8 -25q-10 -31 -18 -57q-22 -70 -42 -135l-16 -52h247v-97h-415q27 83 53 162q19 60 38 117q6 20 14 42q2 8 5 17l2 7l3 7
q8 27 9 29q1 3 30 91q18 57 33 105q23 72 47 145l27 79h-261v98l1 1h288q2 0 3 -1z" />
    <glyph glyph-name="uni4EC0" unicode="&#x4ec0;" 
d="M354 -85h-116v641h-69l100 244h125l-40 -100v-785zM659 446v-531h-116v531h-166v95h166v259h116v-259h169v-95h-169z" />
    <glyph glyph-name="uni4EC1" unicode="&#x4ec1;" 
d="M233 566h-63l91 243h114l-36 -96v-795h-106v648zM796 714v-98h-380v98h380zM375 78h462v-98h-462v98z" />
    <glyph glyph-name="uni4EC5" unicode="&#x4ec5;" 
d="M362 800l-37 -101l-2 -779h-113l-1 537l-91 2l138 343h106v-2zM849 -78h-112l-123 259l-132 -261h-111l188 374l-174 365h110l121 -251l135 267h-369v97h481v-97l-192 -381z" />
    <glyph glyph-name="uni4EC6" unicode="&#x4ec6;" 
d="M378 803q-23 -55 -40 -97q1 0 1 -2v-787q0 -1 -1 -1h-114q-2 0 -2 1v631h-75l-1 1l106 254h122q1 0 2 1zM609 799q1 0 1 -1v-876q0 -2 -1 -2h-108q-1 0 -1 2v876q0 1 1 1h108zM766 498q2 -3 17 -60q2 -3 69 -241h-119l-1 -1q-2 4 -87 301l1 1h120z" />
    <glyph glyph-name="uni4EC7" unicode="&#x4ec7;" 
d="M344 804l1 -1q-40 -96 -40 -99v-795q0 -1 -1 -1h-115q-2 0 -2 1v646q0 1 -1 2h-68v1q99 246 100 246h126zM571 798l-13 -124h207q2 0 2 -1v-665h114q1 0 1 -1v-97h-31q-64 0 -122 -1q-25 1 -74 1v665h-107q-1 0 -5 -42l-66 -619l-2 -1h-99q-1 0 -1 2q15 148 70 660h-78
q-1 0 -1 1v97q0 1 1 1h89q12 113 14 125h100z" />
    <glyph glyph-name="uni4ECA" unicode="&#x4eca;" 
d="M283 395h430q1 0 1 -2l-166 -475q0 -1 -3 -1h-109v1l135 382h-288v95zM725 469l-150 241h-162l-138 -241h-110l191 334h270l209 -334h-110zM451 431l-32 125h113l32 -125h-113z" />
    <glyph glyph-name="uni4ECB" unicode="&#x4ecb;" 
d="M687 802l9 -18q6 -12 12 -22q7 -15 15 -31q21 -41 44 -86q29 -57 61 -120h-134q-1 0 -24 48q-2 4 -67 133v2h-212q-2 0 -4 -6q-32 -59 -95 -178h-134q144 268 150 281h374q5 0 5 -3zM381 105q0 -2 -7 -51q-8 -60 -21 -148h-118q13 91 21 149q7 50 7 55v398h118v-403z
M741 507v-601h-119v601q0 1 1 1h116q2 0 2 -1z" />
    <glyph glyph-name="uni4ECD" unicode="&#x4ecd;" 
d="M771 713l2 -4l-83 -181h117v-440l-52 -181h-109q-1 0 -1 2q48 178 52 199v319q0 1 -2 1h-121q-1 0 -1 1v97q2 4 22 49q23 51 59 130v1h-100q-57 -790 -57 -797h-112q1 7 53 741l4 55l-1 1h-33q-2 0 -2 1v98q0 1 2 1h363v-93zM349 705v-798q0 -1 -1 -1h-111q-1 0 -1 1v650
h-65l94 248h122z" />
    <glyph glyph-name="uni4ECE" unicode="&#x4ece;" 
d="M334 262l-40 -350h-120l101 884h122l-40 -341h63l78 -543h-115zM514 -88l102 884h119l-39 -341h58l77 -543h-113l-47 327l-37 -327h-120z" />
    <glyph glyph-name="uni4ED1" unicode="&#x4ed1;" 
d="M696 800q2 -1 87 -190q56 -123 63 -140h-2h-118q-2 0 -21 45q-3 6 -86 189h-251q-99 -225 -106 -236h-119l-1 1l149 331h1h404zM363 449q1 0 1 -1v-165q266 85 450 144v-1v-110q0 -1 -61 -20q-366 -117 -389 -124v-162h472q1 0 1 -2v-94q0 -1 -1 -1h-590v535q1 1 2 1h115
z" />
    <glyph glyph-name="uni4ED3" unicode="&#x4ed3;" 
d="M823 -94h-572v599h-94l147 302h386l148 -301h-104v-213h-2l-50 -101h-139l72 140v132h-245v-457h453v-101zM370 565v-2h245v2h75l-69 142h-247l-69 -142h65z" />
    <glyph glyph-name="uni4ED4" unicode="&#x4ed4;" 
d="M238 -85v646h-69l100 246h126l-40 -99v-793h-117zM639 -85h-120l39 136h-2l2 339h-176v99h188l109 222h-272v96h410v-96h-1l-112 -222h132v-99h-160v-339z" />
    <glyph glyph-name="uni4ED6" unicode="&#x4ed6;" 
d="M349 -86h-115v641h-70l99 244h126l-40 -100v-785zM721 622l-48 -12v-471h-113v443l-40 -11v-559h306v-97h-421v627l-33 -8v97l33 8v100h115v-71l40 11v120h113v-92l48 12v2l108 29l-2 -543l-37 -128h-108l39 149v394z" />
    <glyph glyph-name="uni4ED7" unicode="&#x4ed7;" 
d="M845 796q1 0 1 -1v-139q0 -11 1 -19q-1 -5 -1 -18v-113q0 -1 -131 -299l113 -294l-1 -1h-125q-2 1 -46 113q-1 3 -10 25h-1q-50 -116 -61 -138h-134q-1 0 -1 1q132 295 132 297v1q-127 318 -154 385h1q63 1 92 1h45q3 -4 31 -80q1 0 57 -148h1q60 136 60 137v127h-286
q-1 0 -1 1v113q0 2 1 2h286v46q0 1 2 1h129zM391 794q-33 -78 -43 -102h2q0 -90 -2 -382v0v-3q0 -69 -2 -184h1l-1 -3q0 -48 -1 -207l-1 -1h-124l-1 1q1 43 1 69v24v531h-77q-1 0 -1 2l109 256h139z" />
    <glyph glyph-name="uni4ED8" unicode="&#x4ed8;" 
d="M375 803l-39 -93h2v-793h-114v653h-67l97 233h121zM398 574v100h256v112h114v-112h75v-100h-75v-656h-273v95h159v561h-256zM484 200l-52 201h113l52 -201h-113z" />
    <glyph glyph-name="uni4ED9" unicode="&#x4ed9;" 
d="M347 707v-800h-117q-2 0 -2 1v650h-69v1l100 248h128zM661 66h48v673h114q2 0 2 -1v-830q0 -1 -2 -1h-114v64h-321v772h116v-677h41v738h116v-738z" />
    <glyph glyph-name="uni4EE3" unicode="&#x4ee3;" 
d="M539 646l-40 156h113l40 -156h174v-98h-150l155 -630h-114l-154 630h-164v98h140zM392 799l-40 -97v-784h-114v642h-69l98 239h125zM716 694v28l115 52v-80h-115z" />
    <glyph glyph-name="uni4EE4" unicode="&#x4ee4;" 
d="M163 467l139 331h384l139 -330h-113l-100 234h-236l-100 -235h-113zM450 544l113 52v-99h-113v47zM599 -88h-149l-152 213h147l35 -49l162 240h-454v96h637l-278 -428z" />
    <glyph glyph-name="uni4EE5" unicode="&#x4ee5;" 
d="M747 343l87 -425h-128l-70 348l-70 -348h-134l176 884h135l-91 -459h95zM302 800v-738l87 56v-140l-87 -62v4h-135v880h135zM363 255l-40 506h129l40 -506h-129z" />
    <glyph glyph-name="uni4EEA" unicode="&#x4eea;" 
d="M233 -88v647h-69l100 246h126l-40 -98v-795h-117zM662 805v-148h-117v95zM604 150l-97 -237h-131l166 394l-161 401h121l104 -249l104 248h122l-164 -400l164 -394h-133z" />
    <glyph glyph-name="uni4EEC" unicode="&#x4eec;" 
d="M385 805q-18 -45 -32 -82q-11 -27 -16 -40v-776q0 -1 -2 -1h-114q-2 0 -2 1v650h-58v1l98 248h124q2 0 2 -1zM500 707h-104q-1 0 -1 2v28q6 4 107 69v-97q0 -2 -2 -2zM821 -93q0 -1 -1 -1h-112q-1 0 -1 1v778h-151q-1 0 -1 1v99q0 1 1 1h265v-879zM506 658v-751
q0 -1 -2 -1h-111q-2 0 -2 1v751q0 1 2 1h111q2 0 2 -1z" />
    <glyph glyph-name="uni4EF0" unicode="&#x4ef0;" 
d="M234 556h-69l100 247h126l-40 -98v-795h-117v646zM378 -9v743l168 52v-104l-51 -16v-542l60 16v-103zM688 3l45 145v510h-45v-749h-118v848h63v1h200v-660l-32 -95h-113z" />
    <glyph glyph-name="uni4EF2" unicode="&#x4ef2;" 
d="M350 -89h-117v647h-69l98 246h127l-39 -98v-795zM832 116h-164v-205h-117v205h-166v562h166v126h117v-126h164v-562zM551 582h-49v-370h49v370zM668 582v-370h47v370h-47z" />
    <glyph glyph-name="uni4EF6" unicode="&#x4ef6;" 
d="M396 799l-40 -95v-784h-116v641h-67l98 238h125zM583 274v319h-216l65 193h117l-34 -97h68v109h115v-109h128v-96h-128v-319h129v-95h-129v-259h-115v259h-199v95h199z" />
    <glyph glyph-name="uni4EF7" unicode="&#x4ef7;" 
d="M354 584l97 214q0 1 1 1h309q3 0 3 -1l106 -214q0 -2 -1 -2h-115l-1 2h-1l-58 114q0 1 -2 1h-171q-1 0 -1 -1l-49 -114l-2 -2h-114q-1 0 -1 2zM541 140l-49 -221q0 -1 -1 -2h-141l65 230v399h126v-406zM689 -81l1 626q0 1 2 1h113q2 0 2 -2v-625q0 -1 -2 -1h-113
q-3 0 -3 1zM378 803l-38 -104l-2 -782h-114l-1 538l-93 1l140 347h108z" />
    <glyph glyph-name="uni4EFB" unicode="&#x4efb;" 
d="M665 531h170v-98h-170v-419h170v-97h-170v-1h-116v1h-161v97h161v419h-161v98h161v142l-162 -13v98l448 37v-98l-170 -14v-152zM351 -84h-116v638h-68l98 240h126l-40 -97v-781z" />
    <glyph glyph-name="uni4EFD" unicode="&#x4efd;" 
d="M397 806l-54 -132v-759h-118v649h-54l100 242h126zM380 526l78 279h102l-79 -279h-101zM730 526l-79 279h100l80 -279h-101zM397 506h417v-469l-27 -123h-113l28 125v369h-165v-371l-27 -123h-113l27 125v369h-27v98z" />
    <glyph glyph-name="uni4EFF" unicode="&#x4eff;" 
d="M353 731q-10 -25 -10 -26v-796q0 -2 -1 -2h-116q-2 0 -2 2v647q0 1 -1 1h-66l-2 1l100 247h128q-19 -46 -30 -74zM680 738h147q2 0 2 -1v-95q0 -1 -2 -1h-287v-59h265v-672q0 -1 -2 -1h-150q-1 0 -1 1v95l1 1h36v479h-149v-226q0 -3 -12 -77q-14 -85 -37 -221l-10 -52
h-115q49 286 58 350v382h-52v96q0 1 2 1h190v13q0 2 42 20q5 2 13 6l8 4l8 4q23 11 43 20l2 -2v-65z" />
    <glyph glyph-name="uni4F01" unicode="&#x4f01;" 
d="M171 512l147 288v1h374v-3l140 -284h-133l-90 190h-209l-97 -192h-132zM832 14v-98h-660v98h83v402h107v-402h82v565h114v-189h245v-97h-245v-279h274z" />
    <glyph glyph-name="uni4F0A" unicode="&#x4f0a;" 
d="M826 792q2 0 2 -1v-15q0 -45 -1 -138l2 -1h31v-96q0 -1 -1 -1h-31q0 -1 -1 -2q1 -96 1 -145v-11h-3h-232q-68 -470 -70 -478h-116q-2 0 -2 1q68 472 68 477h-63q-1 0 -1 2v94q0 2 1 2h78l8 60h-96q-2 0 -2 1v96h109q5 0 5 13q3 16 6 44h-108q-1 0 -1 2v95q0 1 1 1h416z
M384 790v-1l-44 -103h3q0 -69 -5 -781l-1 -1h-128l-1 1l4 627h-78q1 4 108 254q1 4 3 4h139zM630 638l3 -1h66q1 0 1 1v56h-62zM700 480v60h-84q-1 0 -6 -36l-3 -24h93z" />
    <glyph glyph-name="uni4F0F" unicode="&#x4f0f;" 
d="M388 802q-32 -79 -39 -97v-796q0 -2 -1 -2h-116q-2 0 -2 2v648h-67q-2 0 -2 1q4 8 100 245l1 2h124q2 0 2 -3zM628 803l-20 -128h217q2 0 2 -1v-100q0 -1 -2 -1h-233q-55 -357 -105 -663h-121q99 605 108 663h-106q-2 0 -2 1v100q1 1 2 1h122l21 128l2 2h114q1 0 1 -2z
M800 698h-114q-2 0 -2 1v48q0 1 29 15q34 16 88 40v-103q0 -1 -1 -1zM716 472q3 -13 6 -32q6 -28 105 -533h-116l-8 38l-107 537h116q1 0 4 -10z" />
    <glyph glyph-name="uni4F10" unicode="&#x4f10;" 
d="M384 806q-18 -43 -29 -73q-10 -24 -11 -28v-799h-115l-4 -1v653h-67q-2 0 -2 2l100 246l1 1h126q1 0 1 -1zM545 782q17 -48 33 -100h250q2 0 2 -1v-95q0 -1 -2 -1h-218v-1l77 -236q22 19 143 116v-145q-17 -17 -105 -88q44 -138 78 -242q12 -36 20 -61q7 -21 7 -22h-125
q-1 0 -7 19q-8 21 -19 57l-53 169l-230 -188h-1v145q65 53 194 159q-89 276 -101 318h-120q-1 0 -1 1v95q0 1 1 1h88l-40 124l1 1h120q1 0 8 -25zM810 707h-116q-1 0 -1 2v34q2 4 118 56v-90q0 -2 -1 -2z" />
    <glyph glyph-name="uni4F11" unicode="&#x4f11;" 
d="M651 -81h-112v727h-139v95h139v62h112v-62h157v-95h-157v-727zM343 -82h-116v639h-69l99 239h125l-39 -94v-784zM524 582l-37 -663h-108l39 663h106zM701 -81l-37 663h106l39 -663h-108z" />
    <glyph glyph-name="uni4F17" unicode="&#x4f17;" 
d="M675 178l-56 -265h-114l126 604h20l-103 191h-83l-106 -191h91l-63 -235h49l69 -369h-114l-43 228l-63 -228h-114l142 522l-8 -15h-134l222 382v3h222l224 -383h-113l-29 -140h73l68 -369h-113z" />
    <glyph glyph-name="uni4F18" unicode="&#x4f18;" 
d="M384 804l-40 -96v-796h-118v650h-67l97 242h128zM461 665l17 139h118l-22 -139h255v-101h-106v-552h104v-100h-225v652h-39l-88 -652h-118l89 652h-73v101h88zM712 687v37l117 51v-88h-117z" />
    <glyph glyph-name="uni4F19" unicode="&#x4f19;" 
d="M350 -88h-115v641h-70l99 244h126l-40 -100v-785zM828 -85l-130 -3l-99 329l-92 -329h-134l166 560v318h118v-340l-16 -58h42zM492 750l42 -279h-118l-43 279h119zM669 471l42 279h119l-43 -279h-118z" />
    <glyph glyph-name="uni4F1A" unicode="&#x4f1a;" 
d="M682 801l147 -293h-116l-95 194h-239v1l-96 -198h-117l144 294h1l-1 2h372zM298 431v98h400v-98h-400zM170 347h664v-99h-331l-145 -230h324v70h113v-169h-573v99l145 230h-197v99z" />
    <glyph glyph-name="uni4F1E" unicode="&#x4f1e;" 
d="M184 581h-14q26 42 72 109l72 108h377l152 -215v-3h-118l-81 117h-279l-77 -117h-86q-17 0 -18 1zM261 302l-2 7l-2 6l-16 56l-5 17l-6 19l-4 19l-2 6l-3 7l-5 14q-8 36 -12 50l-3 10l-3 11q-2 13 -4 16h118l1 -4l18 -68l23 -82l16 -54l11 -38h-117l-2 1q0 4 -1 7z
M636 386l8 30l24 83l10 40q1 1 61 1h58v-3l-4 -12l-1 -5l-1 -7l-3 -9l-3 -8l-46 -164l-11 -38h-118l10 37l8 31l4 12zM446 246v406h117v-406h258v-100h-258v-234h-117v234h-276v100h276z" />
    <glyph glyph-name="uni4F1F" unicode="&#x4f1f;" 
d="M644 792q1 0 1 -1v-82h204q1 0 1 -1v-105q0 -2 -1 -2h-204v-77l3 -1h184v-3v-104h-187v-81h214h2v-79v-202q0 -3 -24 -106q-8 -32 -10 -34h-116l-1 1l33 138v1v173h-98v-313q0 -1 -1 -1h-56q-21 0 -64 -1v1v110v204h-140q-1 0 -1 1v106q0 1 1 1h139q1 0 1 1v78q0 2 -1 2
h-139q-1 0 -1 1v105q0 1 1 1h139q1 0 1 1v77h-140q-1 0 -1 2v105q0 1 1 1h140v83h33h87zM377 788q0 -1 -43 -102h1h2q-1 -17 -1 -20q0 -88 -5 -752l-1 -1h-127l-2 1q0 1 1 10q0 63 4 610h-77h-1l110 254h139v0z" />
    <glyph glyph-name="uni4F20" unicode="&#x4f20;" 
d="M609 14l64 236h-124v-2h-132l55 205h-94v99h119l27 98h-146v99h173l14 57h127l-15 -57h157v-99h-182l-26 -98h208v-99h-233l-26 -108h256l-109 -428h-250l-74 183h131l40 -86h40zM391 805l-53 -131v-760h-118v648h-54l98 243h127z" />
    <glyph glyph-name="uni4F24" unicode="&#x4f24;" 
d="M350 703v-788h-117v642h-68l98 243h125l-39 -97h1zM355 557l99 243h125l-20 -50h266v-95h-305l-40 -98h-125zM826 40h-1l-47 -126h-129l61 158v350l-103 -1l-107 -507h-122l104 506h-111v98l131 1l15 72l126 -1l-15 -70l194 1v-2h4v-479z" />
    <glyph glyph-name="uni4F26" unicode="&#x4f26;" 
d="M746 796l2 -6l2 -6q3 -9 6 -17q2 -5 75 -203v-2h-115q0 1 -1 4q-2 3 -3 7q-5 12 -10 29q-3 4 -40 107h-124q-1 0 -31 -71l-29 -72l-1 -1h-115v1l100 240h280q1 -1 4 -10zM345 706v-800h-117q-2 0 -2 1v651h-69l100 248h128zM778 340l-7 -6l-8 -6q-9 -7 -19 -15
q-6 -5 -61 -47l-14 -10l-15 -12q-18 -14 -34 -26q-44 -34 -86 -66q-5 -3 -9 -6l-3 -3l-1 -1v-136h302v-99q0 -1 -2 -1h-418v594h118v-197l272 209v-161q-1 -1 -15 -11z" />
    <glyph glyph-name="uni4F2A" unicode="&#x4f2a;" 
d="M672 799l-25 -135h205q1 0 1 -1v-744q0 -1 -1 -1h-184q-1 0 -1 1v92q0 2 1 2h83l1 3v129q0 1 -1 1h-101q-2 0 -7 34q-1 0 -42 208h1h103q1 0 13 -64l33 -166h1v2q0 2 -1 2l1 3v373l-1 3h-126q-2 0 -8 -37q-14 -71 -108 -579q-2 -8 -4 -8h-112h-1q110 599 114 624h-107h-1
l-1 1v121q0 1 2 1h130q23 128 25 135h79h37l2 1v-1zM378 799h2l-43 -105v0v-3v-17v-2v-3q-5 -687 -5 -752l-1 -1h-122q-1 0 -1 1q0 47 4 623h-74v1q1 4 106 258h1h133zM488 799q2 0 25 -118h-96q-1 8 -24 117l2 1h93zM751 156h1v1h-1v-1z" />
    <glyph glyph-name="uni4F2F" unicode="&#x4f2f;" 
d="M265 791h139v0q-5 -11 -45 -103q-5 -693 -5 -775l-1 -1h-128q-1 0 -1 1q0 160 1 178q0 1 -1 1l1 3q0 71 1 181v1v3q1 195 1 254h-77v1q0 1 111 257zM704 792q-1 -3 -67 -116l-2 -2h204q1 -1 1 -2v-759q0 -1 -1 -1q-73 0 -194 1q-125 -1 -196 -1l-1 1v97l2 2v660q0 2 1 2
h56q68 116 70 118h127zM565 395h158l1 4v173l-1 3h-156q-2 0 -2 -1v-179zM565 11h158q1 0 1 2v282q0 2 -1 2h-158v-286z" />
    <glyph glyph-name="uni4F30" unicode="&#x4f30;" 
d="M678 399h134v-489h-391v489h140v179h-151v106h151v117h117v-117h141v-106h-141v-179zM356 700v-794h-118v646h-69l100 247h127zM537 301v-293h158v293h-158z" />
    <glyph glyph-name="uni4F34" unicode="&#x4f34;" 
d="M372 806l-35 -93v-799h-106v650h-65l90 242h116zM538 255v200h-181v99h181v252h119v-252h178v-99h-178v-200h179v-99h-179v-239h-119v239h-179v99h179zM405 576l-25 217h117l25 -217h-117zM677 576l26 217h117l-26 -217h-117z" />
    <glyph glyph-name="uni4F36" unicode="&#x4f36;" 
d="M789 796q2 0 13 -53q10 -44 58 -259h-1h-110q-2 0 -11 46l-39 170h-119q-39 -180 -48 -216h-112q0 3 68 311l2 1h299zM397 795v-1q0 -2 -45 -104v0l-3 -417h1q0 -1 -1 -3q-2 -297 -2 -340v-18h-130q0 38 3 624h-77h-1l112 258l1 1h142zM695 442q0 -1 -1 -1h-111
q-1 0 -1 1v45q5 4 98 46q12 6 15 6v-97zM862 411q0 -1 1 -1q-160 -365 -170 -386q63 -107 64 -110v-1h-135q-5 8 -118 202h1h108q2 1 56 129q5 10 30 71h-268q-1 0 -1 1v93q0 2 1 2h173h219h39z" />
    <glyph glyph-name="uni4F38" unicode="&#x4f38;" 
d="M359 798l-41 -104q0 -1 1 -1q0 -2 -1 -16q0 -89 -5 -768l-1 -1h-118l3 602q1 20 1 25l-1 2h-70l-1 1l103 261h129zM670 796v-62q0 -1 1 -1h184q1 -1 1 -2v-436q0 -1 -1 -1h-184q-1 0 -1 -1v-382h-112h-1l1 3v379q0 1 -2 1h-185q-1 0 -1 1v436q0 2 1 2h186l1 3v56l-1 4
h113zM476 574q0 -2 1 -2h79q1 0 2 2v42q0 1 -2 1h-80v-43zM670 574q0 -2 1 -2h82q2 0 2 2v43h-84q-1 0 -1 -1v-42zM476 407h80q2 0 2 1v64q0 2 -2 2h-80v-67zM670 408q0 -1 1 -1h84v67h-84q-1 -1 -1 -2v-64z" />
    <glyph glyph-name="uni4F3A" unicode="&#x4f3a;" 
d="M373 795q-42 -97 -45 -103q-1 -213 -1 -256v-1v-2l-4 -513l-1 -1h-127q-2 0 -2 1q2 260 2 331l1 2q0 1 -1 1l1 3v12q0 2 -1 2l1 3q1 213 1 245q1 15 1 20h-78v0q4 11 111 257h141zM859 791v-874q0 -1 -1 -1h-219q-1 0 -1 1v92q0 1 1 1h106v688h-343q-1 0 -1 1v93h175h282
zM701 655q1 0 1 -1v-93q0 -2 -1 -2h-329l1 4v89l-1 3h2h327zM406 516q99 0 143 -1q50 1 145 1h5v-451l-3 -2h-294q-1 0 -1 1v451q0 1 1 1h4zM514 157h72v264h-72v-264z" />
    <glyph glyph-name="uni4F3C" unicode="&#x4f3c;" 
d="M385 805q-19 -45 -30 -73q-10 -24 -10 -26v-796q0 -1 -1 -1h-116q-1 0 -1 1v648h-69l99 247v1h127q1 0 1 -1zM501 55l47 45v-142q-10 -10 -26 -27l-11 -12l-10 -10h-113v897h113v-751zM738 447h31q1 0 2 -27q10 -88 19 -161q11 -102 22 -201q0 -1 16 -149h-98q-1 0 -3 24
q-1 7 -4 31l-1 11l-1 12q-2 15 -3 29q-10 81 -19 166q-4 -29 -41 -276h-116v1q54 360 56 376l1 6q1 7 2 17q4 28 10 65h-94v41l-1 1h1v2l-1 2l-2 116l-1 1h1q-1 1 -1 3l-3 161v19q0 11 -1 22h101q1 -69 2 -133q1 -50 2 -96v-47l1 -11v-21l2 -2h-2l2 -4v-17q5 32 57 381
q2 17 3 17h115q-49 -321 -54 -359z" />
    <glyph glyph-name="uni4F3D" unicode="&#x4f3d;" 
d="M448 803v-61q0 -2 1 -2h127v-830q0 -1 -2 -1h-90l-2 1h-50q-2 0 -2 1v89q0 2 2 2h52v641h-36v-495q0 -5 -48 -238h-92q48 236 48 242v490q0 1 -1 1h-22q-1 0 -1 2v95h23q0 1 1 2v62h90q2 0 2 -1zM304 703v-790h-92v642h-53v2q0 3 77 246h99zM827 782l-1 -4v-865l1 -3
l-1 -1h-231q-1 0 -1 1v872q0 1 1 1h231q0 -1 1 -1zM727 6q2 0 2 1v676q0 2 -2 2h-34v-679h34z" />
    <glyph glyph-name="uni4F43" unicode="&#x4f43;" 
d="M371 799l-45 -104q0 -85 -5 -778h-1h-130v0q0 12 1 43q0 1 -1 1l1 2q0 59 3 578h-77q-1 0 -1 1l112 258h142q1 0 1 -1zM520 800l2 -1h48l2 1h129l2 -1h45l2 1h129q1 0 1 -1v-882l-1 -1l-3 1h-246q-76 0 -171 -1q-8 1 -68 1v614q0 92 -1 268l2 1h128zM521 421h50v271h-50
v-271zM702 421h48v271h-48v-271zM521 26h50v288h-50v-288zM702 26h48v288h-48v-288z" />
    <glyph glyph-name="uni4F46" unicode="&#x4f46;" 
d="M388 806l-53 -131v-760h-117v649h-55l99 242h126zM819 774v-626h-429v627h421v-1h8zM513 514h192v163h-192v-163zM513 247h192v169h-192v-169zM384 -86v103h453v-103h-453z" />
    <glyph glyph-name="uni4F4D" unicode="&#x4f4d;" 
d="M234 -88v646h-69l99 246h127l-40 -99v-793h-117zM384 737h171v22l117 45v-67h155v-99h-443v99zM513 571l63 -535h-119l-62 535h118zM688 571h118l-50 -535h-118zM384 -88v99h443v-99h-443z" />
    <glyph glyph-name="uni4F4E" unicode="&#x4f4e;" 
d="M834 708l-308 -43v-152h127l-13 127h113l14 -127h67v-94h-57l57 -503h-114l-56 503h-138v-503h-116v833h33l391 53v-94zM390 800l-39 -95v-789h-117v643h-70l99 241h127zM559 -60v62l117 54v-116h-117z" />
    <glyph glyph-name="uni4F4F" unicode="&#x4f4f;" 
d="M238 -84v646h-69l100 246h126l-40 -99v-793h-117zM674 807v-82h-118v28zM823 333h-149v-320h162v-97h-454v97h174v320h-161v97h161v184h-161v95h441v-95h-162v-184h149v-97z" />
    <glyph glyph-name="uni4F51" unicode="&#x4f51;" 
d="M217 -83v663h-75q0 2 11 19l14 29l16 31l22 38q4 8 9 16l3 6l2 5l3 4l3 4l2 4l2 3l9 21l4 7l3 5l2 4l2 3l1 1l11 21h126l-4 -5l-7 -12l-2 -5l-3 -6q-2 -3 -4 -7l-4 -10l-16 -27l-3 -5l-1 -4l-2 -4l-2 -3l-5 -9l1 -222v-221l3 6l4 8l2 7l3 8l7 13q2 8 17 47l3 9l4 10l5 14
l9 28l8 40l12 52l6 28l2 15l3 13q1 5 2 12l2 8l3 13l1 12q4 22 4 23l5 18h-74v100l48 2h46l7 26l5 31q0 1 60 1q57 0 57 -1v-5l-1 -4l-4 -22l-5 -26h246v-102h-268l-2 -17l-10 -48q-7 -42 -9 -42v-3h278q3 0 3 -313v-311h-410v321h-73v-315h-117zM524 11h174v426h-174v-426z
" />
    <glyph glyph-name="uni4F53" unicode="&#x4f53;" 
d="M372 801l-36 -96v-786h-106v642h-63l91 240h114zM537 158v488h-158v97h158v58h100v-58h188v-97h-188v-488h65v-97h-65v-142h-100v142h-57v97h57zM352 -81l64 706h99l-64 -706h-99zM733 -81l-64 706h100l64 -706h-100z" />
    <glyph glyph-name="uni4F55" unicode="&#x4f55;" 
d="M352 703h1v-788h-117v640h-68l98 245h125zM793 702v-635l-33 -151h-114l33 151h-1v635h-275v98h426v-98h-36zM393 642h262v-577h-262v577zM539 164v379h-31v-379h31z" />
    <glyph glyph-name="uni4F59" unicode="&#x4f59;" 
d="M167 554l149 249h378v-2l140 -246h-133l-83 151h-228l-90 -152h-133zM558 32l-41 -122h-126l49 128v221h-241v96h241v87h-217v96h548v-96h-214v-87h238v-96h-238v-227h1zM372 215l-73 -302h-111l74 302h110zM818 -87h-109l-73 302h110z" />
    <glyph glyph-name="uni4F5B" unicode="&#x4f5b;" 
d="M352 802q-44 -123 -44 -124v-768q0 -1 -1 -1h-91q-1 0 -1 1v644q0 2 -1 2h-57q-2 0 -2 1l87 246h109q1 0 1 -1zM556 753h46v50h91q1 0 1 -1v-49h135v-280q0 -1 -2 -1h-133v-119h133q2 0 2 -1v-327l-23 -116h-86q-2 0 -2 1q23 118 23 119v229q0 1 -1 1h-44q-2 0 -2 -1
v-345q0 -2 -1 -2h-89q-2 0 -2 2v345q0 1 -1 1h-44q-1 0 -1 -1v-176q-4 -28 -33 -171h-103l-1 2q44 184 44 186v159q0 1 -2 1h-134v307h136v92h-121q-2 0 -2 1v94h123v50h93v-50zM602 566v92h-46v-92h46zM741 566v92h-47v-92h47zM463 353v119h-51v-119h51zM602 353v119h-46
v-119h46z" />
    <glyph glyph-name="uni4F5C" unicode="&#x4f5c;" 
d="M391 802q1 -1 0 -1l-37 -103l-2 -780h-113l-1 539h-92l137 345h108zM360 521l115 281h125l-33 -83h287v-102h-174v-73h149v-101h-149v-94h163v-102h-163v-329h-116v699h-40l-39 -96h-125z" />
    <glyph glyph-name="uni4F5D" unicode="&#x4f5d;" 
d="M384 806q-6 -16 -13 -33l-6 -15l-5 -13q-12 -29 -16 -39v-800q0 -1 -1 -1h-116q-1 0 -1 1v652h-68q-2 0 -2 2l100 247h127q1 0 1 -1zM534 805q-8 -54 -8 -55h303v-701q-3 -8 -46 -142h-117q47 146 47 148v595h-204q-4 -21 -5 -21h-113l-2 1l30 176h114q1 0 1 -1zM673 589
v-567q-6 -1 -11 -1h-269q-4 0 -9 1v567q0 1 1 1h287q1 0 1 -1zM553 122v367h-49q-2 0 -2 -1v-366h51z" />
    <glyph glyph-name="uni4F60" unicode="&#x4f60;" 
d="M382 802l-40 -96v-794h-115v649h-71l100 241h126zM354 621l96 173h127l-20 -39h267v-145h-116v45h-205l-21 -34h-128zM543 -86v704h119v-704h-119zM381 -48l28 562h100l-31 -562h-97zM731 -48l-29 562h100l29 -562h-100z" />
    <glyph glyph-name="uni4F63" unicode="&#x4f63;" 
d="M357 705v-797q0 -2 -2 -2h-112q-1 0 -1 2v649h-66l95 248h123q-35 -91 -37 -100zM822 781v-711q0 -6 -4 -45q-4 -45 -12 -113h-105q-1 0 -1 1q7 68 12 115q4 39 4 43v105h-59v-268q0 -2 -1 -2h-105q-1 0 -1 2v268h-51v-268q0 -2 -1 -2h-105q-2 0 -2 2v873q1 1 2 1h428z
M550 517v168h-51v-168h51zM716 517v168h-59v-168h59zM550 274v146h-51v-146h51zM716 274v146h-59v-146h59z" />
    <glyph glyph-name="uni4F69" unicode="&#x4f69;" 
d="M350 764q-6 -15 -11 -30q-11 -28 -11 -29v-792h1q15 110 26 191q3 29 6 48l2 16v609h442v-782h24v-89h-122q-1 0 -1 2v781h-243v-524l-1 -4q-1 -6 -2 -14q-3 -22 -6 -50q-12 -84 -25 -189q0 -2 -1 -2h-208v651h-64q1 2 24 64q27 73 68 184h117q-8 -21 -15 -41zM652 573
q-11 -2 -40 -3v-47h70v-542h-54q-2 0 -2 1v454h-14v-526h-72v526h-16v-455h-55q-1 0 -1 1v541h72v41l-72 -7v88q6 0 17 1q176 17 195 18v-88q-9 -1 -28 -3z" />
    <glyph glyph-name="uni4F70" unicode="&#x4f70;" 
d="M345 705v-798q0 -1 -1 -1h-117v651h-69l-2 1l100 248h128q-39 -97 -39 -101zM828 802v-97q0 -2 -1 -2h-153l-17 -77h171q2 0 2 -1q0 -9 -1 -62v-57q-1 -37 -1 -73q0 -46 2 -136q-2 -110 -2 -170q0 -20 1 -80v-61q1 -41 1 -75h-445q-1 0 -1 2v712l1 1h153l18 77h-171
q-1 0 -1 2v98h443q1 0 1 -1zM711 341v183q0 1 -1 1h-208v-184h209zM710 11q1 0 1 2v229q0 1 -1 1h-204l-4 -1v-231h208z" />
    <glyph glyph-name="uni4F73" unicode="&#x4f73;" 
d="M386 803l-55 -133v-753h-116v645h-54l98 241h127zM392 658v99h148v42h113v-42h149v-99h-149v-132h186v-97h-471v97h172v132h-148zM392 243v98h148v55h113v-55h149v-98h-149v-228h186v-97h-471v97h172v228h-148z" />
    <glyph glyph-name="uni4F7F" unicode="&#x4f7f;" 
d="M457 799l-42 -96h149v99h117v-99h156v-97h-156v-28h154v-251h-154v-36l-49 -104l206 -269h-136l-121 158l-73 -158h-134l127 261l-94 122h136l10 -13l11 23v16h-157v251h157v28h-157v79l-61 -137v-630h-118v546h-66l150 335h145zM523 424h41v58h-41v-58zM681 424h39v58
h-39v-58z" />
    <glyph glyph-name="uni4F84" unicode="&#x4f84;" 
d="M349 795q-39 -96 -39 -99v-780h-113q-2 0 -2 1v636h-66q-1 0 -1 1l97 242h123zM857 794v-110q0 -1 -2 -1h-223q-86 -92 -102 -111h180q0 1 -23 74l1 1h105q2 0 64 -191h-1h-1h-67h-33h-33h-53v-138h160q1 -1 1 -2v-118q0 -1 -1 -1h-160v-158q0 -1 1 -1h187v-121h-501v121
h186q1 0 1 1v158h-155q-1 0 -1 1v118q0 2 1 2h155v137q0 1 -1 1h-162q-2 0 -2 1v111v4q80 86 102 111h-111q-1 0 -1 1v109q0 1 1 1h488z" />
    <glyph glyph-name="uni4F88" unicode="&#x4f88;" 
d="M381 792l2 -1q-39 -94 -39 -98v-780q0 -1 -2 -1h-113q-1 0 -1 1v634q0 1 -2 2h-66v1q97 242 98 242h123zM569 791l-6 -37h290q2 -1 2 -2v-94q0 -5 -34 -105q-25 -77 -51 -153h-342q-1 0 -1 2v96h111q2 1 18 53q12 40 13 41h102q0 -2 -29 -94h58l51 158h-205
q-6 -36 -8 -36h-110q-1 0 -1 1q27 161 29 171h113v-1zM538 352l-6 -38h292v-97q0 -4 -84 -303q-7 0 -12 -1q-143 1 -234 1h-96l-2 -1v2v96q0 1 1 1h107q30 127 34 141h102q0 -2 -33 -141h57q57 202 57 204h-206l-6 -36h-1h-111q-1 0 -1 1q25 149 29 172h113v-1z" />
    <glyph glyph-name="uni4F8B" unicode="&#x4f8b;" 
d="M826 -86h-132v76h48v810h84v-886zM322 -86h-93v641h-64l90 244h116l-49 -133v-752zM593 738v-96h-112l-6 -40h112v-351l-82 -337h-94l67 266l-95 71v123l120 -90v222h-44l-17 -100h-94l40 236h-33v96h238zM621 44v670h88v-670h-88z" />
    <glyph glyph-name="uni4F8D" unicode="&#x4f8d;" 
d="M403 803l-37 -94v-792h-114v652h-66l96 234h121zM396 650v95h168v58h113v-58h137v-95h-137v-62h137v-95h-418v95h168v62h-168zM396 347v94h265v33h113v-33h40v-94h-40v-430h-285v94h172v336h-265zM485 58l-33 242h113l33 -242h-113z" />
    <glyph glyph-name="uni4F9B" unicode="&#x4f9b;" 
d="M366 807l-36 -96v-797h-108v650h-63l91 243h116zM352 586v93h64v128h119v-128h118v128h117v-128h63v-93h-63v-169h63v-93h-481v93h64v169h-64zM535 417h118v169h-118v-169zM374 -92l58 372h119l-59 -372h-118zM706 -92l-58 372h117l58 -372h-117z" />
    <glyph glyph-name="uni4F9D" unicode="&#x4f9d;" 
d="M797 742q1 0 1 -2v-97q0 -1 -1 -1h-186q-3 -4 -48 -117h69q2 0 9 -31l24 -92h2l6 27l6 26q8 32 12 50q12 53 20 85h89v-1q-1 -6 -81 -384l79 -298h-98q-3 4 -19 71q-119 442 -126 472q-3 5 -9 31l-16 -41q1 0 1 -2v-415h56v-117h-149q-2 0 -2 3v396q0 2 -1 2h-68v-398
q0 -2 -1 -2h-104q-1 0 -1 2v649h-63l89 248h115l-35 -100v-383q4 8 37 86q39 94 98 233h-111q-1 0 -1 1v97q0 2 1 2h163v8q0 1 11 7q12 6 31 15q1 1 67 35v-65h134z" />
    <glyph glyph-name="uni4FA0" unicode="&#x4fa0;" 
d="M351 804l1 -1q-39 -94 -39 -98v-779q0 -1 -1 -1h-113q-1 0 -1 1v634q0 1 -2 2h-66v0q97 242 98 242h123zM663 799q2 0 2 -1v-62h174q1 -1 1 -2v-94q0 -1 -1 -1h-174v-202h34q31 151 33 159h96v-1l-32 -158h63q1 -1 1 -2v-94q0 -1 -1 -1h-220q-5 -1 -5 -9
q-98 -328 -108 -362q-2 -5 -13 -43l-1 -1h-106q-1 0 -1 2q111 373 123 413h-168v95q0 2 1 2h61l-31 153h1h94q2 -2 8 -33l25 -120h36v201q0 1 -1 1h-173q-1 0 -1 1v96h175v62q0 1 1 1h107zM753 301q3 -1 21 -69q4 -9 92 -306l-2 -1h-106q-1 0 -28 94q-4 11 -84 282h2h105z
" />
    <glyph glyph-name="uni4FA3" unicode="&#x4fa3;" 
d="M369 799l-34 -89v-789h-106v637h-65l90 241h115zM411 419v362h399v-362h-399zM527 517h166v165h-166v-165zM834 344v-423h-117v1h-336v422h453zM498 21h219v223h-219v-223z" />
    <glyph glyph-name="uni4FA5" unicode="&#x4fa5;" 
d="M642 804q2 0 11 -28q2 -1 17 -47h204v-93q0 -1 -1 -1h-168l25 -72l137 28v-1v-104q0 -2 -36 -9l-65 -14q9 -25 10 -25h90q1 0 1 -1v-92q0 -1 -1 -1h-157q-3 3 -18 47l-19 53h-1q-2 0 -282 -59l-1 1v106q0 2 26 6l221 46l-32 91h-221q-1 0 -1 1v92q0 1 1 1h187
q-5 15 -27 74l1 1h99zM342 803h1q-39 -96 -39 -99v-789q0 -2 -2 -2h-114q-1 0 -1 2v641q0 1 -2 2h-67v1q98 244 99 244h125zM873 321q1 0 1 -1v-93q0 -1 -1 -1h-77v-217q0 -1 1 -1h70v-93q0 -1 -1 -1h-180q-2 0 -2 1v311h-135v-176q0 -1 1 -2l-23 -134h-122q-2 0 -2 1
q34 134 34 138v173h-55q-1 0 -1 1v93q0 1 1 1h491z" />
    <glyph glyph-name="uni4FA6" unicode="&#x4fa6;" 
d="M240 803h109l6 1v-1l1 1h1q0 -2 -39 -98v-782q0 -2 -1 -2h-114q-1 0 -1 2v636h-1h-66q-1 0 -1 1q91 225 99 243zM568 786l1 1h100q1 0 1 -1l1 1l3 -1v-54q0 -2 1 -2h178l5 1v-1q0 1 1 1l1 -1v-92q0 -1 -2 -1h-184v-55h182q1 0 1 -1v-418q0 -1 -1 -1h-113q-1 0 -2 2v319v1
h-2h-255h-3h-2v-320q0 -1 -1 -2h-113q-1 0 -1 1v418q0 1 1 1h198h1v8v191v1v1q0 4 4 4v-1zM693 440q4 -1 4 -2l-83 -295h102q3 -2 52 -73l102 -142l-2 -1h-149q-5 5 -117 168q-2 0 -26 -88q-3 -11 -23 -82h-1h-120v0q5 18 144 514l7 1h110z" />
    <glyph glyph-name="uni4FA7" unicode="&#x4fa7;" 
d="M299 706v-799q0 -1 -2 -1h-85v651h-52v1l5 16q5 18 13 47q22 76 55 185h95zM827 -91q0 -2 -1 -2h-114q-1 0 -1 2v98q1 1 1 2h35v796h80v-896zM497 766h27q23 0 50 1q9 -1 45 -1v-639h-78q-2 0 -2 1v541h-121v-507h2l18 54v404q1 1 2 1h78q1 0 1 -1v-436l95 -273h-89
l-49 159h-2l-49 -159h-96l77 216h-76q-1 0 -1 1v638q6 0 11 1h54q48 0 103 -1zM724 726v-673q0 -2 -1 -2h-78q-2 0 -2 2v673q0 1 2 1h78q1 0 1 -1z" />
    <glyph glyph-name="uni4FA8" unicode="&#x4fa8;" 
d="M354 731q-7 -16 -11 -24v-797h-117v648h-69v1l100 247h126zM769 704l-140 -12l-34 -85h231v-97h-56q52 -134 56 -146h-116q-1 0 -13 34q0 1 -10 29q-13 33 -32 83h-100q-1 -1 -8 -17q-9 -20 -20 -49l-32 -79h-124l60 145h-67v96q0 1 2 1h105q1 2 32 75l-96 -8l-1 1v97
q0 2 1 2q6 0 370 30l7 1h4l5 1v-99q0 -1 -24 -3zM543 345v-265l-8 -47q-4 -26 -9 -52q-5 -34 -11 -70q0 -3 -2 -3h-117v2q27 154 28 170v265q0 1 2 1h115q2 0 2 -1zM762 -92h-117v438h117v-438z" />
    <glyph glyph-name="uni4FAE" unicode="&#x4fae;" 
d="M361 800v-1q-39 -96 -39 -98v-788q0 -1 -1 -1h-115q-1 0 -1 1v642h-4h-65v1q91 225 98 244h127zM497 799l-8 -33h363q1 0 1 -2v-93q0 -1 -1 -1h-386q-11 -47 -12 -47h-1q-17 0 -92 -1v1l42 177h93zM816 597l1 -1q0 -15 1 -26q-1 -109 -1 -183v-63h35q1 -1 1 -2v-93
q0 -1 -1 -1h-34q-1 0 -1 -1v-179q0 -1 1 -1h33l2 1v-2v-94h-33q-5 0 -5 -9q-7 -27 -9 -28h-101q-1 0 -1 1l10 35l-1 1h-58q-86 0 -247 -1l-1 2v275h-29q-2 0 -2 1v93q1 2 2 2h29v272q1 1 2 1h407zM644 476q1 -3 26 -126h-1h-92q-2 0 -14 66q-6 24 -12 60l1 1q66 -1 92 -1z
M506 48q1 -1 2 -1h210q1 0 1 1v179q0 1 -1 1h-212v-180zM553 196h91q2 0 10 -44q4 -14 17 -76q-1 0 -1 -1l-6 1h-86q-2 0 -6 22q-1 2 -21 98h1h1zM506 324h213v177h-213v-177z" />
    <glyph glyph-name="uni4FAF" unicode="&#x4faf;" 
d="M357 799q-39 -95 -39 -98v-783q0 -2 -1 -2h-115v638q0 1 -2 2h-60h-2q-4 0 -4 1q15 37 98 243h124zM802 780q1 0 1 -1v-177q0 -1 1 -1h45q1 0 1 -1v-91l-1 -1q-41 0 -59 -1q-167 1 -279 1h-153q-1 0 -1 1v91q0 1 1 1h328q2 0 2 1v83q0 1 -2 1h-277q-2 0 -2 2v91q1 1 2 1
h393zM477 443h361q2 0 2 -1v-93q0 -1 -2 -1h-155q-30 -101 -30 -103h185q2 0 2 -1v-91q0 -1 -2 -1h-214q-70 -232 -72 -235h-114l-1 1q68 222 71 234h-138q-1 0 -1 1v91q0 1 1 1h164q3 0 4 6l29 97h-112q-2 0 -9 -35q-3 -12 -4 -12h-91l-2 1q38 159 43 175h1q25 0 91 1
q0 -3 -7 -35zM633 118h112q4 -6 90 -200l-1 -1h-114q-2 3 -61 136q-29 63 -29 65v0h3z" />
    <glyph glyph-name="uni4FB5" unicode="&#x4fb5;" 
d="M391 558h304v36h-295v85h295v40h-304v85h416v-332h-416v86zM349 -83h-115v641h-68l98 245h125l-40 -100v-786zM827 329h-112v27h-238v-27h-112v115h63v1h399v-116zM815 -82h-159l-56 62l-51 -62h-142l121 142l-128 141h142l56 -58l69 81h-274v87h409l1 -86v-1h-1
l-130 -158z" />
    <glyph glyph-name="uni4FBF" unicode="&#x4fbf;" 
d="M391 790l-40 -94h2v-777h-115v634h-66l95 237h124zM542 282l13 45h-151v350h151v16h-151v97h422v-97h-155v-16h155v-350h-157l-44 -153l201 -255h-125l-113 141l-40 -141h-114l73 245l-103 129h128zM519 545h36v44h-36v-44zM671 545h41v44h-41v-44zM519 415h36v45h-36
v-45zM671 415h41v45h-41v-45z" />
    <glyph glyph-name="uni4FC3" unicode="&#x4fc3;" 
d="M398 805l-42 -96v-797h-117v649h-69l101 244h127zM565 12v430h-154v363h407v-363h-133v-159h133v-100h-133v-171h136v-100h-414v448h114v-348h44zM529 538h173v171h-173v-171z" />
    <glyph glyph-name="uni4FC4" unicode="&#x4fc4;" 
d="M344 704v-796q0 -2 -1 -2h-116q-1 0 -1 2v647q0 1 -2 1h-66l-1 1l99 247h127q-39 -99 -39 -100zM712 746l2 -13l2 -14q2 -18 5 -33q5 -41 11 -81q90 12 95 12v-96h-1q-4 0 -24 -2q-23 -3 -58 -8l28 -200l54 37h1v-118l-40 -28v-1l40 -295h-98q-2 0 -7 38q-1 2 -25 195h-1
l-80 -54h-2v118l3 2l5 4l14 10l45 30q-28 210 -33 250l-105 -14v-151l70 45h1v-113q-16 -10 -69 -45q-1 -2 -2 -3v-133q-2 -10 -12 -52q-13 -54 -31 -127h-114q51 190 53 203v42l-44 -28v114q5 5 44 29v206l-55 -7l-1 2v93q0 3 42 7q5 0 14 1v110q-52 -12 -56 -12v95
q0 2 64 15q1 0 32 7q20 4 37 8q25 5 51 11v-94q0 -2 -24 -7v-120q2 0 93 12l-30 211h98q1 -6 8 -58zM827 690h-91v52q3 3 90 55h1v-107z" />
    <glyph glyph-name="uni4FC9" unicode="&#x4fc9;" horiz-adv-x="996" 
d="M852 796q1 0 1 -1v-95q0 -1 -1 -1h-229v-54h229q1 0 1 -2v-305q0 -2 -1 -2h-422q-1 0 -1 2v95h83v113q0 1 -1 1h-81v98h82v54h-82q-1 0 -1 1v95q0 1 1 1h422zM398 793q-43 -100 -44 -103h1q1 0 2 -1q-5 -687 -5 -787l-2 -1h-130q-1 0 -1 1q4 594 4 632h-79v1q0 1 112 259
h141zM623 433h134v113q0 1 -2 1h-130q-2 0 -2 -1v-113zM852 309q1 0 1 -1v-405q0 -2 -1 -2h-59q-1 -1 -2 -1h-333l-2 1h-18q-2 0 -2 2v164v241l1 1h415zM568 -3h153v214q0 1 -1 1h-150q-2 0 -2 -1v-214z" />
    <glyph glyph-name="uni4FCA" unicode="&#x4fca;" 
d="M167 551q2 4 32 60q1 1 2 3l1 3l2 3l7 11l4 7q2 3 3 5l22 42l32 58l22 37q12 23 12 24h65l62 -1l-14 -30l-19 -32l-21 -38l-30 -51l-2 -8v-728h-121v534h-75v73zM407 651l2 5l4 7l6 8l4 6l21 36q20 35 39 63q3 6 9 16l2 4l2 3q4 2 57 2h57l-20 -37l-22 -33h113l-9 20
l-4 9l-3 5l-3 7h105l10 -19l2 -6l8 -18l30 -68l8 -16l5 -11l1 -4h-8q-6 -2 -36 -2l-394 2q2 0 14 21zM381 480q5 7 20 42q2 2 6 12l4 9l5 11q3 6 5 11l2 5l2 4q3 7 4 8l8 18h91l9 -1h20l-5 -11l-3 -8l-24 -52l-23 -48l-59 -1q-62 0 -62 1zM693 562l-4 9q-5 9 -8 15l-2 5
l-2 4q-1 3 -1 4q1 1 59 1h60l55 -120q0 -1 -60 -1l-60 1l-9 22l-24 50zM550 130l-14 18l-52 69q-36 48 -40 52l-1 1h-40l-40 3q2 0 12 22v3l1 3l3 5l2 7l12 22l3 7l4 7l3 6l9 20l24 50l4 9l3 5l2 7l6 8l1 1h112l-8 -17l-7 -16q0 -1 84 -1h85l1 1l7 13q2 5 4 8q2 2 3 2
q4 0 11 -1q8 -1 19 -3l35 -8q17 -4 27 -4q22 -4 22 -6l-16 -28q-17 -35 -37 -68l-13 -22l-11 -22q-5 -11 -12 -20l-5 -9l-4 -8l-24 -42l-20 -36q-21 -38 -20 -39l80 -108q13 -17 23 -30q8 -10 13 -16l25 -34l8 -12l4 -4l8 -12h-7l-5 -1h-117l-20 27l-6 6l-2 4l-3 4l-4 5
l-4 5l-22 29l-24 32q-4 4 -6 4l-4 -8l-4 -5l-2 -6q-4 -8 -7 -13l-5 -9l-6 -11l-10 -20l-10 -16l-6 -10l-4 -8l-4 -7q-3 -3 -69 -3l-66 1l66 118q58 97 55 99zM618 244l4 8l8 14l7 11l7 12l16 30h-112l-2 -1h-4q0 -1 8 -12l26 -32l32 -44l6 8q0 2 4 6z" />
    <glyph glyph-name="uni4FCF" unicode="&#x4fcf;" 
d="M352 804q-40 -100 -40 -101v-799h-117q-2 0 -2 1v650q0 1 -1 1h-68l100 248h128zM679 803q1 0 1 -1v-220h29q30 189 32 194h95h1q-30 -184 -31 -194h61q1 0 1 -1v-39v-39v-58v-536h-109q-1 0 -1 1v204h-269q-2 -1 -2 -2v-46q0 -1 1 -3l-35 -154h-2h-102v0q33 164 33 167
v316v190h2h64q-1 8 -31 194h1h95q2 0 8 -47q4 -16 24 -147h38v220q0 1 1 1h95zM487 396l1 -3h270v89h-269q-2 0 -2 -1v-85zM487 216l1 -3h270v79q0 2 -1 2h-268q-2 -1 -2 -2v-76z" />
    <glyph glyph-name="uni4FD0" unicode="&#x4fd0;" 
d="M892 796q1 0 1 -1v-873q0 -2 -1 -2h-168q-1 0 -1 2v96h3h87q1 0 1 1v776q0 1 1 1h77zM326 795l-49 -123v-755q0 -1 -1 -1h-103q-1 0 -1 1v634q0 1 -1 1h-67l97 243h125zM695 782v-96q0 -2 -61 -5l-78 -7q-1 -1 -1 -3v-100l1 -3h124q1 -1 1 -2v-95q0 -1 -1 -1h-123
q-2 -1 -2 -2v-549h-99v549q0 2 -1 2h-124q-1 0 -1 1v95q0 2 1 2h124q1 0 1 1v96l-1 1q-90 -7 -121 -9v96q0 2 42 4q9 1 319 26v-1zM783 665q1 0 1 -1v-611q0 -1 -1 -1h-76q-2 0 -2 1v611q1 1 2 1h76zM649 434q2 0 2 -1q6 -130 6 -138q1 -1 1 -2h-1l1 -1l17 -372v-1h-1h-78
q-1 0 -1 1q-2 39 -2 47l-1 2h1l-1 2l-4 114l-1 2h1l-1 2l-10 245v1v1v2q0 7 -4 96h1h75zM435 429q1 0 1 -1l-24 -509h-2h-78h-1q3 38 3 50v0v0v3l5 92v0v1v2l5 93v0v0v3l5 92v0v1v2l5 92v0v1v2l4 76h1h76z" />
    <glyph glyph-name="uni4FD7" unicode="&#x4fd7;" 
d="M391 805q-40 -98 -40 -99v-801h-119v652h-69v1q2 5 32 79q15 38 30 73q19 47 38 96h128v-1zM513 632h-122q-1 0 -1 1l67 173h122zM769 766q15 -38 30 -77q5 -14 12 -31l5 -14l5 -12h-124q-2 2 -9 26l-56 148h121q2 -3 16 -40zM745 589q15 -43 29 -85q11 -32 23 -66
q22 -66 24 -71h-124q-6 19 -19 58q-1 1 -7 21l-2 5l-2 6l-4 14q-5 17 -11 34h-101q-4 -7 -56 -138h-124q96 236 96 237h273q1 0 5 -15zM794 -95h-389v442h389v-442zM676 5v241h-152v-241h152z" />
    <glyph glyph-name="uni4FD8" unicode="&#x4fd8;" 
d="M377 800q-40 -98 -40 -100v-788h-115q-1 0 -1 1v641q0 1 -2 1h-67l98 245h127zM826 787v-97q0 -1 -2 -1q-397 -27 -423 -29v98q0 2 50 4q32 3 374 26zM517 636q2 0 10 -58q15 -80 17 -96h-115q-2 0 -8 41q-1 0 -20 113h116zM666 635q25 -141 27 -153l-1 -1h-114
q-3 0 -5 23q-3 12 -23 131h116zM816 446q1 0 1 -1q-99 -202 -99 -203v-33q0 -1 1 -1h143v-99h-143q-1 0 -1 -1v-193h-1h-227v98h110v96h-208q-1 0 -1 2v96q0 1 1 1h208v34q0 1 51 103v2h-248q-2 0 -2 1v97q0 1 2 1h413zM840 636l1 -1l-26 -153h-117l27 154h115z" />
    <glyph glyph-name="uni4FDD" unicode="&#x4fdd;" 
d="M249 571h-70v1l116 215q0 1 1 1h120v-1l-49 -92q-2 -2 -2 -4v-765h-114v642q0 3 -2 3zM560 406v47h-135v340h381v-340h-132v-47h157v-96h-36l36 -388h-89l-37 388h-31v-388h-114v388h-24l-36 -388h-91l39 388h-52v96h164zM541 552h150v143h-150v-143z" />
    <glyph glyph-name="uni4FE1" unicode="&#x4fe1;" 
d="M384 802q3 0 0 -3l-37 -101l-1 -777h-114l-1 536l-90 1l135 344h108zM557 802l113 -53q0 -19 2 -23v-8h187v-98h-491v98h188v56zM451 472v101h326v-101h-326zM451 311v102h326v-102h-326zM396 -82v328h435v-328h-435zM513 19h203v124h-203v-124z" />
    <glyph glyph-name="uni4FE9" unicode="&#x4fe9;" 
d="M379 798h447q1 -1 1 -2v-95q0 -2 -1 -2h-119l-5 -71h119q2 0 2 -2v-574q-10 -118 -12 -130h-87h-2q2 6 10 92h-51q-2 0 -6 29q-2 5 -10 50v0q-6 -73 -6 -83l-1 -1h-128q-2 0 -12 57v0q-3 -57 -5 -57h-69q-2 0 -2 1q35 511 35 516q1 0 1 1h-38v-612q0 -1 -2 -1h-74
q-1 0 -1 1v711q0 2 1 2h119q2 0 2 2l4 69h-110q-1 0 -1 2v95v0q-38 -93 -38 -95v-779q0 -1 -1 -1h-113q-1 0 -1 1v634q0 1 -1 1h-67q13 33 98 243h124v-2zM556 628h65q4 64 4 71h-64zM534 301l1 -1h11q2 0 17 -89q1 -3 26 -151h1l25 467h-66zM679 306h18q2 0 8 -41
q4 -19 29 -165h1v427h-40q0 -6 -16 -221z" />
    <glyph glyph-name="uni4FED" unicode="&#x4fed;" 
d="M394 799l-39 -97v-779q0 -1 -1 -1h-113q-1 0 -1 1v634h-68v1q11 28 98 242h124v-1zM776 732q5 -14 53 -147l-2 -1h-116q-3 2 -17 44q-1 2 -23 61h-149q-38 -104 -40 -105h-117l-1 1q75 207 78 214h309q2 -1 25 -67zM807 549q1 -1 1 -2v-106q0 -1 -1 -1h-421q-1 0 -1 1
v106q0 2 1 2h421zM492 398q1 0 1 -1q2 -33 28 -375h-1h-102q-2 0 -3 34l-26 341l1 1h102zM637 398q3 0 5 -48q1 -1 24 -328h-1h-99q-2 0 -3 33q-1 4 -26 342l2 1h98zM827 9q2 0 2 -1v-93q0 -1 -2 -1h-462q-1 0 -1 1v93q0 1 1 1h462zM786 22l-1 -1h-98l-1 1l27 375h100z" />
    <glyph glyph-name="uni4FEE" unicode="&#x4fee;" 
d="M577 565l-57 56l-8 -25h-113l69 205h112l-12 -36h270v-94h-1l-120 -109l128 -126h-137l-63 61l-66 -58h-138zM417 783l-90 -217v-647h-105v541h-67l133 323h129zM693 671h-88l43 -41zM346 114v452h87v-452h-87zM459 222v111l380 91v-112zM459 69v111l380 91v-112z
M459 -79v110l380 91v-112z" />
    <glyph glyph-name="uni4FEF" unicode="&#x4fef;" 
d="M654 799v-64h170q1 0 1 -1v-97q0 -1 -1 -1h-337v-163h1q0 2 40 153h79q1 0 1 -1l-29 -111h144v111q0 1 1 1h77q1 0 1 -1v-111h19q1 0 1 -1v-75q0 -2 -1 -2h-19v-383q0 -5 -32 -135h-77q-1 0 -1 1q31 131 31 134v383h-143q-1 0 -1 -1v-516q0 -1 -1 -1h-69q-1 0 -1 1v476
q0 2 -2 2h-19v-228q0 -6 -32 -254h-93v1q32 253 32 259v559q0 1 1 1h151v12q0 2 108 53v-1zM391 799l1 -1q-38 -96 -38 -97v-786q0 -1 -2 -1h-113q-1 0 -1 1v639h-67l-1 1l98 243l1 1h122zM673 370q2 0 4 -35q7 -60 29 -265l-1 -1h-72q-2 0 -5 38q-1 8 -29 262l2 1h72z" />
    <glyph glyph-name="uni4FF1" unicode="&#x4ff1;" 
d="M371 799l-37 -92v-786h-114v645h-66l96 233h121zM815 795v-518h27v-93h-486v93h49v518h410zM536 665h148v37h-148v-37zM536 537h148v36h-148v-36zM536 408h148v37h-148v-37zM536 277h148v38h-148v-38zM352 -79l100 243h131l-100 -243h-131zM718 -79l-100 243h128
l100 -243h-128z" />
    <glyph glyph-name="uni4FFA" unicode="&#x4ffa;" 
d="M643 799q-24 -41 -27 -48h207q1 0 1 -2v-87q0 -2 -1 -2h-90q2 -5 90 -172l-1 -1h-25v-366q0 -2 -1 -2h-154v-108h154q1 -1 1 -2v-94q0 -1 -1 -1h-249q-1 0 -1 1v204h-152q-1 0 -1 2v366h-25l-1 1l99 171v1h-99v65h-1q-10 -25 -10 -26v-777q0 -2 -1 -2h-113q-1 0 -1 2v632
h-67l-1 1l97 241h123l2 -1q-9 -19 -18 -44h141q3 2 29 49h95zM546 516v54q0 1 1 1h95v-55h70v0q-71 136 -76 144h-72q-2 0 -42 -72q-4 -4 -43 -72h67zM473 371q0 -2 1 -2h72v44h-72q-1 0 -1 -1v-41zM642 371q0 -2 1 -2h69v44h-69q-1 0 -1 -1v-41zM473 222h73v44h-73v-44z
M642 222h70v44h-70v-44z" />
    <glyph glyph-name="uni500D" unicode="&#x500d;" 
d="M403 644v98h149v11l116 53v-64h149v-98h-414zM348 702h2v-788h-117v642h-68l98 245h125zM826 380h-432v98h54l-37 139h116l36 -139h88l37 139h116l-37 -139h59v-98zM410 -86v437h400v-437h-400zM525 10h169v246h-169v-246z" />
    <glyph glyph-name="uni5012" unicode="&#x5012;" 
d="M385 806l-54 -132v-760h-117v650h-55l100 242h126zM384 798h241v-100h-84l-57 -194h40v40h94v-139h-249v99l60 194h-45v100zM842 785v-868h-128v98h35v770h93zM638 39v675h93v-675h-93zM365 202v99h68v83h108v-83h67v-99h-67v-187h67v-98h-243v98h68v187h-68z" />
    <glyph glyph-name="uni5014" unicode="&#x5014;" 
d="M601 799q40 0 224 1l1 -1v-261q0 -1 -1 -1h-334v-375q-11 -119 -25 -244h-98h-1q25 237 25 247v634l1 1q170 -1 208 -1zM391 799q-39 -96 -39 -99v-781q0 -1 -1 -1h-114q-1 0 -1 1v637h-67q-1 0 -1 2l98 241h125v0zM707 511q1 -1 1 -2v-194h30v186q0 1 1 1h85q1 0 1 -1
v-265q-3 -2 -3 -4h-114v-236h29q1 0 1 2v183q0 1 1 1h85q1 0 1 -1v-265q0 -1 -1 -1h-325q-1 0 -1 1v265q0 1 1 1h83q1 0 1 -1v-183q0 -2 1 -2h37v236h-111l-2 2h-9q-1 0 -1 1v266h84q1 0 1 -1v-185h38v194q0 2 1 2h85zM491 632h227v69h-227v-69z" />
    <glyph glyph-name="uni5018" unicode="&#x5018;" 
d="M666 804l2 -1v-42v-64q0 -30 1 -82h1h197l1 -2v-571l-23 -129h-111q-2 0 -2 1q30 139 30 143v459h-309q-1 0 -1 -1v-599l1 -3l-1 -1h-98q-2 0 -2 1v700q1 2 2 2h206v50v138l1 1h105zM351 800h1q-39 -96 -39 -98v-787q0 -1 -1 -1h-114q-2 0 -2 1v640h-67q-1 0 -1 2l98 243
h2h123zM523 785q2 0 7 -35q1 -5 21 -112l-2 -1h-103q-2 0 -8 41l-20 106l2 1h103zM813 784l-27 -146l-1 -1h-103q-2 0 -2 1l27 147h105zM739 450q1 0 1 -2q0 -49 1 -63q-1 -71 -1 -100q0 -46 1 -213q-1 -2 -2 -2h-266l-1 1q1 161 1 266v110l-1 3h267zM560 177h91v166h-91
v-166z" />
    <glyph glyph-name="uni5019" unicode="&#x5019;" 
d="M365 803q-34 -88 -36 -98v-800h-111v652h-63l91 249h116q3 0 3 -3zM807 803v-146h17l1 -1v-99h-368q-3 0 -3 3v94q0 3 3 3h242v49h-242q-3 0 -3 3v94q0 3 3 3h347q3 0 3 -3zM435 666v-636h-91l1 5v631q0 3 1 3h88q1 -1 1 -3zM603 543l-12 -46h232q2 0 2 -1v-99h-123
q-2 0 -3 -4v-93q0 -1 1 -1h124l1 -1v-99h-111l111 -290l-2 -1h-101q-4 4 -58 141q-28 69 -28 73h-2q-36 -94 -61 -158q-20 -52 -22 -56h-110q-3 0 -3 2q42 96 79 183q13 32 27 63q5 11 10 24q3 8 8 19h-96v100h115v96q0 2 -2 2h-14q-4 0 -15 -47l-3 -2h-106q-3 0 -3 3
q22 78 38 133q14 47 18 61h108q1 0 1 -2z" />
    <glyph glyph-name="uni501A" unicode="&#x501a;" 
d="M365 796q1 0 1 -1q-38 -95 -38 -97v-786h-115q-1 0 -1 1v639h-67h-1l97 243l2 1h122zM655 796v-1l-43 -72v0h1h3h217h3h3v-105h-100q9 -11 110 -130v0h-92q-15 0 -43 -1q-97 116 -111 131h-56q0 -1 -79 -130h-128v1l82 129h-64q-1 0 -1 1v104h133q46 72 48 73h117z
M424 482q1 0 1 1l4 -1q88 0 268 -1q0 1 1 1h112l3 -2h23h1q-1 -26 -1 -38v-74q0 -1 -1 -1h-23v-452q0 -2 -2 -2h-200q-1 0 -1 2v100h88v353h-9h-71v0h-3q-84 0 -260 2l-1 1q0 18 1 111l1 1q24 0 69 -1zM670 343q2 0 2 -1v-299l-2 -2q-145 1 -222 1h-53v300q0 1 1 1h274z
M488 247v-124q0 -2 2 -2h91v129h-92z" />
    <glyph glyph-name="uni501F" unicode="&#x501f;" 
d="M359 791q0 -1 -38 -97v-1v-3v-781h-114q-1 0 -1 1v638h-67q-1 0 -1 1l97 243h124v-1zM553 791q2 0 2 -1v-85q0 -2 1 -2h118l3 1v-1l1 2v85q0 1 1 1h121q1 0 1 -1v-85q1 -2 2 -2h61v-96q0 -1 -1 -1h-62v-90h61q1 -1 1 -2v-94q0 -2 -1 -2h-497q-1 0 -1 2v96h66v90h-66v97
h64q2 0 2 2v85q0 1 1 1h122zM843 381q1 0 1 -1v-471q0 -1 -1 -1h-472q-1 0 -1 1v471q0 1 1 1h472zM555 516h123v90h-123v-90zM503 193h209v93h-209v-93zM503 3h209v94h-209v-94z" />
    <glyph glyph-name="uni5021" unicode="&#x5021;" 
d="M355 731q-10 -25 -10 -26v-798q0 -1 -2 -1h-116q-1 0 -1 1v651h-69l40 98q13 34 30 74q27 69 30 76h128q-18 -44 -30 -75zM556 793h240v-369q0 -1 -2 -1h-392v370q36 0 42 1q54 -1 112 -1zM522 512h155v50h-157v-49q0 -1 2 -1zM825 -93q0 -1 -1 -1h-442q-1 0 -1 1v473
h444v-473zM704 203q1 0 1 1v72h-206v-73h205zM677 653v50h-157v-50h157zM705 9v90h-206v-90h206z" />
    <glyph glyph-name="uni5026" unicode="&#x5026;" 
d="M362 792l1 -1q-33 -81 -38 -97v-781q0 -1 -2 -1h-112q-2 0 -2 1v636h-66h-1l97 242l1 1h122zM480 791q2 0 11 -34q1 -3 26 -90h-1h-98q-2 0 -19 63l-18 61h2h97zM693 791q-2 -8 -56 -154h196q1 0 1 -1v-107h-236q-2 -6 -15 -42h251v-108h-30l42 -144h-71v-79
q-1 0 -15 -85q-2 -13 -3 -13h-109q-1 0 -1 1l17 99v24h-128v-152h308q2 0 2 -1v-116q0 -1 -2 -1h-410q-2 0 -2 1v308h-59q0 2 56 158h-50q-1 0 -1 1v106q0 1 1 1h91q15 41 15 42h-106q-1 0 -1 2v105q0 1 1 1h145q2 1 32 88q2 4 25 66h1h111zM829 789q-40 -121 -42 -122h-101
q-2 0 -2 1l42 121h1h102zM718 287v0l-27 92h-146q-2 -1 -17 -46q-1 0 -17 -46h207z" />
    <glyph glyph-name="uni503A" unicode="&#x503a;" 
d="M359 796l1 -1q-39 -94 -39 -98v-782q0 -2 -1 -2h-113q-1 0 -1 2v637h-67q-1 0 -1 1l97 242l2 1h122zM658 796q1 0 1 -1v-31h174q1 0 1 -1v-97q0 -1 -1 -1h-174v-34h166q2 0 2 -1v-96q0 -1 -2 -1h-166v-29h199q2 0 2 -1v-96q0 -2 -2 -2h-506q-1 0 -1 2v96q0 1 1 1h199v29
h-164q-1 0 -1 1v96q0 1 1 1h164v34h-171q-1 0 -1 1v97q0 1 1 1h171v31q0 1 2 1h105zM824 383q1 0 1 -1v-339q0 -1 -1 -1h-81q10 -12 121 -128q1 -1 1 -2h-141q-134 142 -135 143q-112 -139 -117 -143h-125v1q102 128 103 129h-63q-1 0 -1 1v339q0 1 1 1h437zM494 98
q8 7 59 71v96q0 1 1 1h104q1 0 1 -1v-124l-31 -39h57l31 -32v215h-220q-2 0 -2 -1v-186z" />
    <glyph glyph-name="uni503C" unicode="&#x503c;" 
d="M365 -92v103h34v607l3 1h113l15 48h-149v103h182l11 36h116l-11 -36h165v-103h-197l-15 -48h191l2 -1v-607h34v-103h-494zM334 -90h-113l-1 531l-91 1l137 344h107l1 -2l-38 -102zM710 463v58h-195v-58h195zM515 309h195v71h-195v-71zM710 225h-195v-70h195v70zM515 71
v-60h195v60h-195z" />
    <glyph glyph-name="uni503E" unicode="&#x503e;" 
d="M228 559h-64l92 246h117l-37 -100v-792h-108v646zM479 -87l106 236h-74v512h88l12 35h-116v100h308v-100h-91l-12 -35h103v-512h-92v412h-108v-371l12 27v286h84v-324l-19 -45h50l102 -221h-96l-78 170l-72 -170h-107zM365 110v623h93v-277l41 16v-108l-41 -14v-203
l37 15v-93l-142 -57v93z" />
    <glyph glyph-name="uni5047" unicode="&#x5047;" 
d="M394 803l-55 -132v-754h-117v645h-53l98 241h127zM500 447v-58h123v-96h-123v-149h123v-95h-123v-131h-106v877h233v-348h-127zM722 560v139h-81v96h197v-333h-116v2h-81v96h81zM500 542h17v159h-17v-159zM741 288l4 9v48h-104v84h197v-132l-60 -151l60 -228h-88l-25 95
l-37 -95h-93l93 236l-47 179h88z" />
    <glyph glyph-name="uni504E" unicode="&#x504e;" horiz-adv-x="1003" 
d="M355 795q-38 -93 -39 -99v-779q0 -2 -1 -2h-112q-2 0 -2 2v636h-67q0 2 97 243h124v-1zM834 795q1 0 1 -2v-364q0 -1 -1 -1h-434q-1 0 -1 1v364q0 2 1 2h434zM488 660q0 -1 1 -1h75q1 0 1 1v36h-76q-1 0 -1 -1v-35zM667 660q0 -1 1 -1h74v37h-75v-36zM488 527q0 -1 1 -1
h76v43h-77v-42zM844 406q2 0 2 -1v-96q0 -2 -2 -2h-348q-1 0 -1 -1v-19h76q1 -1 54 -88l220 88l1 -2v-102q0 -1 -82 -36q-79 -34 -84 -37q49 -81 119 -195l-1 -1l-1 1h-134q-5 9 -167 276h-1v-273l1 -3l-1 -1h-109q-2 0 -2 1v490q0 1 2 1h458zM667 526h75v43h-75v-43z" />
    <glyph glyph-name="uni504F" unicode="&#x504f;" 
d="M681 803v-48h157l2 -1h8v-270q-14 -1 -20 -1h-352q-1 0 -1 -1v-159l1 -3q-1 -1 -2 -1q-44 -383 -48 -407l-3 1q-15 0 -91 1q0 1 -1 1l48 404q-1 0 -1 2v432v1q48 1 75 1h114v8q0 1 50 19q55 19 63 22zM358 803q-39 -96 -39 -98v-791q0 -1 -1 -1h-115q-1 0 -1 1v643h-67
q-1 0 -1 2l98 244h125h1zM475 581q0 -1 1 -1h280q2 0 2 1t-1 1l1 3v66l-1 3q1 0 1 1h-2h-280q-1 0 -1 -1v-73zM846 467q1 0 1 -1v-453q-1 -16 -14 -100l-1 -1h-72q-1 0 -1 1q12 84 13 100v130h-21v-228q0 -2 -1 -2h-71v229q0 1 -2 1h-21v-228q0 -2 -2 -2h-71v229q0 1 -1 1
h-18v-228q0 -2 -2 -2h-72q-1 0 -1 2v68v228v101v147q0 8 1 8h356zM656 248h23v121q0 1 -2 1h-21v-122zM564 248h19v119l-1 3h-18v-122zM751 248h21v122h-21v-122z" />
    <glyph glyph-name="uni505A" unicode="&#x505a;" 
d="M351 799l-48 -117v-760h-113v644h-48l96 233h113zM326 604v93h85v102h94v-102h84v-93h-84v-79h78v-562l75 293v2l-32 158h74l38 152v103h-37l-17 -182h-92l22 310h95l-3 -33h139v-201l-76 -306l89 -338h-108l-33 166l-36 -166h-353v604h83v79h-85zM411 15h90v414h-90
v-414z" />
    <glyph glyph-name="uni505C" unicode="&#x505c;" 
d="M658 809v-74h179v-99h-491v99h195v20zM370 807l-35 -92v-802h-108v651h-65l92 243h116zM370 443v173h444v-173h-444zM487 516h209v26h-209v-26zM721 297v40h-257v-40h-117v127h491v-127h-117zM347 184v100h491v-100h-186v-273h-156v100h37v173h-186z" />
    <glyph glyph-name="uni5065" unicode="&#x5065;" 
d="M194 -96v670h-34l89 230h112l-27 -69h-7v-19l-37 -97h7v-715h-103zM821 323v-86h-140v-52h140v-87h-140v-87h157v-87h-524v87h43l16 338h-76l69 286h-39v81l7 19h150l-76 -317h66l-20 -407h108v87h-87v87h87v52h-87v86h87v58h-78v86h78v51h-98v86h98v60h-78v87h78v53h119
v-53h140v-147h17v-86h-17v-137h-140v-58h140zM732 664h-51v-60h51v60zM732 518h-51v-51h51v51z" />
    <glyph glyph-name="uni5076" unicode="&#x5076;" horiz-adv-x="1003" 
d="M377 799q-42 -97 -42 -98v-786q0 -1 -1 -1h-121q-2 0 -2 1v640h-71l-1 1q104 242 105 244h133v-1zM813 762q1 0 1 -1v-395q0 -1 -1 -1h-174v-32h201h1v-21v-265q0 -7 -23 -132l-1 -1h-115v1l19 98h-237q-1 0 -1 1v97q0 1 1 1h46v122h-66v-318q0 -1 -2 -1h-110q-1 0 -1 1
v182q0 81 -1 224q1 4 1 11h1h178v32h-159q-1 0 -1 1v395q0 1 1 1h442zM483 613q0 -1 1 -1h44q2 0 2 1v50h-47v-50zM639 112h14l-3 55l1 1h62q1 0 1 -1q0 -7 9 -144v0q6 29 6 35v175q0 1 -1 1h-89v-122zM639 612h59v51h-59v-51zM483 464h47v50h-47v-50zM639 464h59v50h-59
v-50z" />
    <glyph glyph-name="uni5077" unicode="&#x5077;" horiz-adv-x="1003" 
d="M383 796q1 0 1 -1q-48 -118 -48 -122v-764q0 -1 -1 -1h-106q-1 0 -1 1v641l-3 1h-62l-3 -1q0 3 60 152q38 93 39 94h124zM692 796q7 0 10 -11q123 -216 124 -220h-47v-66q0 -1 -1 -1h-389q-2 0 -2 1v59h-41q4 10 113 214q13 24 14 24h219zM687 597v0q-55 101 -56 102h-89
q-2 -2 -54 -102h199zM588 470q1 0 1 -1v-431q-5 -36 -25 -130h-88v1q25 142 25 146v34h-53v-180q0 -1 -1 -1h-84q-2 0 -2 1v560q1 1 2 1h225zM800 470q1 0 1 -1v-560q0 -1 -1 -1h-84l-5 1h-15v97q0 2 1 2h17v461q0 1 1 1h85zM692 445h2q-1 -161 -1 -251v-69q0 -39 -1 -110
h-82q-1 0 -1 2v427q0 1 1 1h82zM448 332h53v39h-53v-39zM448 188h53v45h-53v-45z" />
    <glyph glyph-name="uni507F" unicode="&#x507f;" 
d="M381 791q-39 -96 -39 -97v-778h-114q-1 0 -1 1v632q0 1 -1 1h-66v1q1 4 97 241h123q1 0 1 -1zM647 792q1 0 1 -1v-169h164q1 -1 1 -2v-145h-112l-3 -1v49q0 1 -2 1h-212q-1 0 -1 -1v-48h-116v145q1 2 2 2h163v169q0 1 1 1h114zM483 763q1 0 15 -64q1 -4 15 -64l-1 -1
h-108q-3 0 -8 32q-2 6 -23 97h1h109zM805 763l-30 -129h-108q-1 0 -1 2l28 127h110h1zM792 449q2 0 2 -1v-96h-398v97h396zM811 304v-97h-212q-2 0 -19 -40q-5 -9 -73 -153h165q-30 101 -38 131v1h109q2 0 10 -33q8 -23 60 -196l-1 -1h-391q-14 0 -41 1l1 3v89q0 3 -1 6
q78 161 93 192h-96v96q1 1 2 1h432z" />
    <glyph glyph-name="uni5080" unicode="&#x5080;" horiz-adv-x="1003" 
d="M377 795q-39 -94 -40 -99v-787q0 -1 -1 -1h-114q-1 0 -1 1v641q0 1 -2 1h-67v0l99 245h125zM598 796q1 0 1 -1l-27 -56h1h210v-437q0 -1 -1 -1h-244q0 -2 -2 -9h92q2 0 2 -1v-282h184q1 0 1 -1v-96q0 -1 -1 -1h-278l-2 1v119v250h-1q-20 -95 -79 -372l-2 -1h-97l-2 1
l84 392h-70v438h45h37q2 1 28 56l1 1h120zM473 572h49v3v64q0 1 -1 1h-48v-68zM473 400h48q1 0 1 1v71q0 1 -1 1h-48v-73zM630 400h43v72q0 1 -1 1h-42v-73zM720 285h1l-1 -2q-1 -31 -13 -188h31l-12 147h66l17 -203h-1h-169q-1 0 -1 1v48q0 13 14 197h1h67zM630 572h43v68
h-43v-68z" />
    <glyph glyph-name="uni5085" unicode="&#x5085;" 
d="M336 700v-793h-117v646h-70l100 246h127zM394 659v84h165v56h95v-56h46v1l118 54v-55h1v-84h-165v-28h165v-373h-95v64h-70v-48h-95v48h-57v-64h-94v373h151v28h-165zM502 519h57v28h-57v-28zM654 519h70v28h-70v-28zM559 436h-57v-30h57v30zM724 436h-70v-30h70v30z
M782 121v-87l-38 -126h-102l38 134v79h-286v95h286v33h102v-33h40v-95h-40zM639 -32h-101l-36 104h101z" />
    <glyph glyph-name="uni508D" unicode="&#x508d;" 
d="M386 796q1 0 1 -1l-39 -98h1l-1 -3v-782h-116v638q0 1 -2 2h-63l-3 -1v1q3 9 97 241q1 3 2 3h123zM662 794v-49h146q2 0 2 -1v-96q0 -1 -2 -1h-420q-1 0 -1 1v96q0 1 1 1h162q4 0 75 34l37 16v-1zM527 632q2 -1 30 -79h87q27 73 30 79h116v-1l-29 -78h62q1 -1 1 -2v-134
q0 -1 -1 -1h-104q-2 0 -2 1v36q0 1 -1 1h-231q-2 0 -2 -1v-37h-105q-2 0 -2 1v134q1 2 2 2h63l-30 78l2 1h114zM635 447v-48h173q2 0 2 -1v-96q0 -2 -2 -2h-274v-17h259q1 0 3 -5v-365q0 -1 -2 -1h-129q-1 0 -1 1v96q0 2 1 2h28v174h-159v-109q-1 -3 -39 -157q-1 -7 -3 -7
h-102l-2 1q43 191 43 194v193h-34q-1 0 -1 2v96q0 1 1 1h143q0 3 13 8q80 40 81 40h1z" />
    <glyph glyph-name="uni50A8" unicode="&#x50a8;" 
d="M334 699v-788h-107v641h-62l88 240q1 3 2 5h115q-35 -95 -36 -98zM684 748h81v-96h-81v-69l130 110v-129l-25 -21h36v-96h-146q-6 -4 -54 -45h176q1 0 1 -1v-488q0 -1 -1 -1h-267q-2 0 -2 1v409l-45 -39h-1v128q4 4 41 36h-20v96h73v109h-62v96h62v49h104v-49zM370 705
v36q0 1 32 18q3 2 74 37v-91h-106zM476 9h26v-98h-132v680h-21q-2 0 -2 1v96q1 1 2 1h127v-680zM692 202v104h-49v-104h49zM692 8v98h-49v-98h49z" />
    <glyph glyph-name="uni50AC" unicode="&#x50ac;" 
d="M382 806l-55 -132v-760h-117v650h-55l100 242h127zM509 777v-153h52v153h115v-153h52v153h114v-153h2v-99h-450v99h1v153h114zM564 509l-55 -132v-462h-117v352h-54l100 242h126zM637 416v37l117 53v-90h-117zM548 50v98h91v31h-91v98h91v34h-91v98h296v-98h-91v-34h91
v-98h-91v-31h91v-98h-91v-36h91v-97h-296v97h91v36h-91z" />
    <glyph glyph-name="uni50B2" unicode="&#x50b2;" 
d="M530 802v-41h59q1 0 1 -1v-95h1q0 2 3 37l1 9v10q1 12 2 23q3 29 5 58h94v-5q0 -5 -1 -12q-1 -17 -3 -41h137q2 0 2 -2v-96q0 -1 -2 -1h-12q-1 0 -1 -1q0 -2 1 -2l-1 -2v-153q-1 -6 -14 -55q-15 -57 -39 -144q-1 -1 -13 -45q37 -149 60 -245q20 -83 22 -92h-93
q-1 0 -29 118q-1 0 -3 10q-4 11 -7 28h-1q0 -2 -3 -12q-4 -12 -8 -30q-14 -49 -32 -114h-87v2q36 127 65 233q9 33 17 63l3 10l2 7q2 8 2 9l-76 313h93q1 0 19 -75q13 -43 14 -57h2q0 3 20 72l-2 2v160h-44q-6 -72 -6 -76l-2 -1h-93v1l7 92h-60v-69h39v-100h-39v-73h53
q1 -1 2 -1v-99q0 -1 -2 -1h-112q-8 -51 -8 -55h127v-231l-29 -126h-98l-1 2q40 148 41 160v93h-56l-40 -255h-90l-1 2q63 407 64 410h-34q-1 0 -1 1v99q0 1 1 1h91v73h-80q-1 0 -1 1v98l1 1h80v69h-91q-1 0 -1 1v98q0 1 1 1h91v43h92q1 0 1 -2zM356 801q-10 -27 -19 -54
q-4 -10 -8 -22q-3 -8 -7 -19q-14 -38 -16 -44v-754q0 -2 -1 -2h-101q-1 0 -1 2v645h-47v2q10 30 20 58q4 12 8 23q3 9 7 19l12 34v16q0 1 6 1q13 40 35 96h110q2 0 2 -1z" />
    <glyph glyph-name="uni50BB" unicode="&#x50bb;" 
d="M677 385l-2 3l-1 2l-3 6l-2 4l-3 4l-1 4q-1 4 -3 4l-1 4h-84l-44 -72h-92q-17 0 -20 1h-18l2 6l8 13l9 16l15 25l2 3l2 2q1 2 1 4q-2 0 -4 2h-59v46q1 9 1 173v127h84l85 1l12 15q15 18 15 21l4 5h117l-4 -5l-15 -23l-11 -13l82 -1h79v-346h-47l39 -72q0 -1 -59 -1h-60
l-19 33q-4 6 -5 9zM155 559l11 28l1 3l1 4l3 7l4 6l5 11q3 7 6 13l5 14l5 14l31 79l21 49l7 16h128l-10 -25l-9 -20l-3 -8l-2 -8l-3 -7l-1 -1l-2 -3l-10 -25v-795h-119v324l-1 323h-67q-1 0 -1 1zM735 686h-261v-19h104l19 -14l2 -3q4 -2 6 -4l4 -3l2 -1l6 -4l20 17l21 16
h77v15zM695 577l7 -6l7 -5q26 -21 26 -20v99l-60 -54l8 -4zM396 -90l52 65l41 49l25 36q16 19 16 20q0 2 -32 34l-45 48l-4 -6l-49 -1h-39q-5 0 -6 1h-2l10 16l8 9l8 11q11 15 18 24l5 6l5 6l6 9l7 8l6 8l16 24l18 23l20 25h367l-23 -28l-50 -68l-5 -6l-8 -10l-7 -9
l-76 -100l-4 -4l-3 -4l-1 -1l-3 -3l-2 -1l-2 -3l-1 -1l-1 -4l50 -55l14 -12l12 -14l22 -23l11 -10l8 -8l4 -4l4 -4l2 -4l20 -20l19 -20h-128l-97 98l-3 -1l-30 -41l-16 -22l-15 -18l-13 -16h-128q-2 0 -1 1zM639 215l8 12l4 5l4 4q3 3 3 4l3 4h-147l-2 -4l16 -17
q13 -18 40 -42q23 -23 24 -23l29 35l5 7l5 7zM501 540l5 4l15 13l5 4l4 4l6 5l6 7l11 6l-1 3l-3 3l-19 16l-22 17l-18 12l-16 13v-127l11 8l4 2l5 6zM677 501l-18 1l-45 36l-40 -36l-50 -1h-50v-23h261v22l-20 1h-38z" />
    <glyph glyph-name="uni50CF" unicode="&#x50cf;" 
d="M544 783h219q-6 -21 -41 -121h103v-252h-168q-1 0 -1 -1v-28h16l1 -1h28v-84q116 62 126 66v-107q-1 -2 -33 -19l-89 -47q3 -7 34 -78l8 -18l9 -20q11 -25 21 -46q26 -59 50 -114h-109q-1 0 -28 65q-1 1 -1 2h-2q0 -1 -6 -17q-7 -20 -19 -49h-106l37 97v12q-1 0 -53 -23
l-13 -6l-16 -7q-19 -9 -35 -16q-47 -20 -91 -40v108q2 1 7 3q7 3 16 7q24 11 56 25l129 57v36l-208 -92v109l149 67q13 5 25 11q8 3 18 7l16 7v17h-69q-23 -8 -140 -64v114q5 2 141 66q3 0 3 1h-33q-28 0 -58 -1v1h-21v169h-55l-1 2l34 88q12 31 27 67q24 63 27 71h105
q-7 -21 -9 -24zM345 706v-799q0 -1 -1 -1h-116q-1 0 -1 1v651h-69l100 248h127zM507 688q-4 -11 -10 -26h111q4 12 13 36h-111q0 -2 -3 -10zM513 510h56v51h-57v-49q0 -2 1 -2zM727 510v51h-61v-51h61z" />
    <glyph glyph-name="uni50DA" unicode="&#x50da;" 
d="M382 799q-39 -95 -40 -100v-790q0 -1 -1 -1h-115q-1 0 -1 1v643q0 1 -1 1h-64h-3l-1 1l99 246h125zM664 800q0 -2 -18 -32h2h175v-96h-231q-6 -9 -6 -11h41q26 0 76 -1q16 -23 16 -26h101q1 0 1 -2l-38 -100q36 -59 39 -65h-38q-2 -1 -2 -2v-283q0 -2 -1 -2h-103h-3
q0 1 -1 1h-23q-1 0 -1 -1v-163q0 -2 -36 -109h-117l-1 1q29 86 36 109v162l-1 1q-54 -1 -86 -1h-56v285q0 2 -1 2h-40h-1q46 80 49 86l-30 81h78q9 13 22 37v1h-91v96h147q2 0 19 31l1 1h122zM671 506q-75 127 -88 149v0q-27 -45 -86 -149h174zM496 388h178q1 0 1 1v20l-1 3
h-178v-24zM496 270h178q1 0 1 2v21q0 1 -1 1h-177q-1 0 -1 -1v-23zM498 150q-24 -217 -28 -241l-1 -1h-106q-1 0 -1 1q27 234 29 243h106q1 -1 1 -2zM780 152q3 0 7 -53q1 -1 23 -190l-2 -1h-105q-3 0 -6 35q-1 11 -24 208l1 1h106z" />
    <glyph glyph-name="uni50E7" unicode="&#x50e7;" 
d="M385 792q1 0 1 -1q-39 -96 -39 -97v-781q0 -1 -1 -1h-113q-2 0 -2 1v635q0 1 -1 1h-66v1q96 241 98 242h123zM546 791q3 -3 25 -63l2 -4h54q2 1 24 62q2 5 3 5h114h1l-25 -67h76q1 0 1 -1v-384q0 -1 -1 -1h-446q-1 0 -1 1v384q0 1 1 1h82l-25 67h1h114zM469 434
q0 -1 1 -1h80v196h-80q-1 0 -1 -1v-194zM541 569v-105q-1 0 -53 27q-9 4 -9 6v103v1q61 -31 62 -32zM712 599v-104q-4 -3 -58 -32h-2v104q0 1 58 32h2zM786 326q1 0 1 -2v-122v-77v-88v-106v-19h-381q-2 0 -2 1v411q1 2 2 2h380zM640 433h85v196h-85v-196zM508 166h176v72
h-176v-72zM508 -1h176v80h-176v-80z" />
    <glyph glyph-name="uni50ED" unicode="&#x50ed;" 
d="M193 698l4 6l3 8q5 9 9 20l11 19l10 18l19 32h127l-15 -26l-8 -15l-7 -11l-24 -45v-793h-118v667h-56v40zM397 482l20 52l2 7l3 5l1 2v3h-63v8q0 1 5 71l5 61q0 1 36 1l15 -1h24v-4q-3 -13 -3 -31l-3 -28q0 -1 8 -1h7l9 21l2 7l5 9l1 3v3l3 5l1 7h27q18 0 30 -1
q11 0 13 -1h14l-21 -52l25 -1h26v-76h-15v-80h25v-66h-45l-47 1v144l-13 -36q-10 -28 -16 -43l-8 -14l-5 -15l-16 -40h-83l3 7l3 8l4 9zM654 514l14 37h-65v7q1 1 1 72q0 60 2 62h17l9 -1h50v-31l-2 -4v-29h11l8 1l5 12l2 4l2 7q4 10 7 16l5 15h43q4 -1 10 -1q6 -1 14 -1h16
l-10 -25l-2 -11l-4 -8l-3 -8q0 -1 27 -1h29v-76h-27v-28q0 -20 -1 -24v-28h25v-66h-89v133q0 -1 -1 -4t-3 -8t-6 -14l-3 -8l-4 -9l-20 -46l-3 -8l-2 -8l-3 -7l-3 -5l-4 -14l-2 -5h-83l1 3l3 8l11 28zM513 80v-65h193v66h-96q-97 0 -97 -1zM385 724v80h217v-80h-217zM839 724
h-211v40l-1 40h212v-80zM513 362h312v-448h-429v453h106l11 -2v-3zM513 182h193v79h-193v-79z" />
    <glyph glyph-name="uni50F5" unicode="&#x50f5;" 
d="M390 796q1 0 1 -1q-47 -116 -47 -119v-764h-115v638q0 1 -2 2h-59q0 1 98 243l1 1h123zM812 783q2 0 2 -2v-88q0 -1 -2 -1h-420q-1 0 -1 1v88q0 2 1 2h420zM798 679q2 0 2 -1v-270h-31h-88h-58h-208h-10q-1 0 -1 2v268q0 1 1 1h393zM496 486q0 -1 1 -1h59v22h-59
q-1 0 -1 -1v-20zM829 394v-89q0 -2 -1 -2h-450q-1 0 -1 2v89h452zM798 290q2 -1 2 -2v-269q0 -1 -2 -1h-371q-7 0 -23 1v269q0 2 1 2h393zM496 192q0 -1 1 -1h59v21h-59q-1 0 -1 -1v-19zM496 96q0 -1 1 -1h58q1 0 1 1v18h-59q-1 0 -1 -1v-17zM649 96q0 -1 1 -1h57v19h-58
v-18zM372 3h457v-90q0 -1 -1 -1h-459q-1 0 -1 1v90q1 0 1 1zM496 584h60v19h-60v-19zM649 584h58v19h-58v-19zM649 485h58v22h-58v-22zM649 191h58v21h-58v-21z" />
    <glyph glyph-name="uni50FB" unicode="&#x50fb;" 
d="M772 734h49q2 0 2 -1v-87q0 -1 -2 -1h-219q-2 0 -2 1v87q1 1 2 1h50v17q8 5 119 55l1 -1v-71zM326 683v-776q0 -1 -1 -1h-99q-1 0 -1 1v627h-57q-2 0 -2 2l86 247h107q-33 -97 -33 -100zM481 761h110q1 0 1 -2v-295q0 -2 -1 -2h-148v-358q0 -3 -7 -52q-8 -58 -21 -146
h-84q-1 0 -1 1l12 82q3 16 5 33l2 14l2 13q8 50 8 51v661q0 1 2 1q59 -1 120 -1zM689 554q1 -1 3 -27q2 -30 5 -80h-73q-1 0 -2 13q-1 14 -2 37q-2 2 -9 119h73q3 0 5 -62zM812 614q-4 -87 -11 -167h-74q10 158 12 169h72q1 0 1 -2zM809 429v-86q0 -2 -1 -2h-57v-135h57
q1 0 1 -2v-85q0 -1 -1 -1h-57v-211q0 -1 -2 -1h-86q-1 0 -1 1v211h-47q-1 0 -1 1v85q0 2 1 2h47v135h-47q-1 0 -1 2v86q0 2 1 2h193q1 -1 1 -2zM602 416v-509q0 -1 -2 -1h-150q-1 0 -1 1v509q0 1 1 1h150q2 0 2 -1zM532 -5v333h-14q-2 0 -2 -1v-332h16zM507 552v119h-64
v-119h64z" />
    <glyph glyph-name="uni5112" unicode="&#x5112;" 
d="M378 803q-39 -95 -40 -99v-791q0 -1 -1 -1h-115q-1 0 -1 1v645h-69v0l100 246h125zM809 798q1 0 1 -1v-91q0 -2 -1 -2h-160v-19h169q1 0 1 -1v-118v-1h-2h-95v27h-73v-220q0 -1 -1 -1h-105q-1 0 -1 1v220h-73v-27h-98v119q1 1 2 1h169v19h-155q-1 0 -1 2v91q0 1 1 1h422z
M497 546q2 0 22 -74h-118q-2 0 -13 41q-8 26 -9 33h118zM809 546q0 -2 -21 -74h-1h-117q-1 0 -1 1l21 73h119zM519 453q-20 -73 -22 -75h-117q-1 0 -1 2q12 45 21 72l1 1h118zM788 453q1 0 21 -74l-1 -1h-117q-2 0 -13 42q-8 26 -9 33h119zM818 354q1 -1 1 -2v-91h-155
q-2 0 -6 -20h160q1 -1 1 -2v-326q0 -1 -1 -1h-84v229q0 1 -1 1h-33v-229q0 -1 -1 -1h-84q-1 0 -1 1v229h-31q-2 0 -2 -1v-228q0 -1 -1 -1h-83q-2 0 -2 1v228q0 1 -1 1h-31v-229q0 -1 -1 -1h-83q-2 0 -2 1v303q0 1 2 5v20h162l4 19l-1 1h-165v89l-1 3l1 1h439z" />
    <glyph glyph-name="uni5121" unicode="&#x5121;" 
d="M382 800l1 -1q-42 -96 -42 -99v-785h-123v639q0 2 -1 2h-71v0q103 243 105 244h131zM811 776q1 0 2 -6q-1 -151 -1 -234v-155q0 -2 -1 -2h-412q-1 0 -1 2v394q0 1 1 1h412zM503 627h46v49q0 2 -1 2h-44q-1 -1 -1 -2v-49zM656 627h48v51h-47q-1 -1 -1 -2v-49zM656 480
q0 -2 1 -2h47v50h-48v-48zM512 355h84q1 -1 1 -2v-437q0 -1 -1 -1h-234v438v2h9h141zM726 355h121l1 -2v-437q0 -1 -1 -1h-234q-1 0 -1 1v437v2h11h103zM426 13h19q2 0 2 2v65h-21v-67zM510 13h19q1 0 1 2v65h-20v-67zM677 13h20v64h-19q-1 0 -1 -1v-63zM503 478h46v50h-46
v-50zM426 179h21v77h-21v-77zM510 179h20v77h-20v-77zM677 175h20v81h-20v-81zM760 175h20v81h-20v-81zM760 13h20v64h-20v-64z" />
    <glyph glyph-name="uni513F" unicode="&#x513f;" 
d="M688 18h148v-100h-264v884h115v-783q0 -1 1 -1zM399 355l-124 -445h-113l123 445v447h114v-447z" />
    <glyph glyph-name="uni5141" unicode="&#x5141;" 
d="M381 132l-2 -8l-2 -4l-1 -6l-3 -6l-1 -8l-12 -32l-3 -10l-4 -10l-5 -16l-5 -18l-16 -50l-14 -45q-1 -3 -58 -3q-59 0 -59 1v4l4 11l2 7l2 5l2 9q3 15 18 65q17 50 23 72q8 30 9 32l8 28v330h-89l9 27l6 19l6 16q0 1 2 6l1 3l2 4q1 4 3 9l7 23l4 13l5 16l33 93l14 40
l10 31v2l2 3l2 5q0 7 3 8l1 2v2q0 2 56 2q55 0 55 -2l-16 -49l-8 -25l-3 -9l-4 -8l-5 -16l-3 -8l-2 -6l-3 -6l-7 -19l-6 -21l-18 -52l96 -2h254v3l-5 72l-7 81q-1 1 -1 9v10h101l2 -15l2 -22l3 -24l4 -60l1 -15l2 -15l2 -32l2 -30l2 -27l3 -32v-4h-93v-466h138v-99h-138
q0 -2 -59 -2h-58v567h-189v-171q0 -175 -2 -177z" />
    <glyph glyph-name="uni5143" unicode="&#x5143;" 
d="M193 670v99q0 2 1 2h616q1 0 1 -2v-99q0 -1 -1 -1h-616q-1 0 -1 1zM157 448v98q0 3 2 3h686q2 0 2 -3v-98l-2 -2h-156v-423q0 -1 1 -1h156q3 0 3 -1v-100q0 -2 -3 -2l-277 -1q-1 0 -1 1v527h-128l-8 -228l-134 -300q0 -1 -2 -1h-145l152 315l7 214h-151z" />
    <glyph glyph-name="uni5144" unicode="&#x5144;" 
d="M809 798q1 0 1 -1v-394q0 -1 -1 -1h-117v-398h143v-90q0 -1 -1 -1h-265q-1 0 -1 1v488h-162l-130 -459q-7 -26 -9 -30h-123q-1 0 -1 1q20 70 139 488h-125q-1 0 -1 1v394q0 1 1 1h652zM267 494q1 -1 2 -1h428q2 0 2 1v213h-432v-213z" />
    <glyph glyph-name="uni5145" unicode="&#x5145;" 
d="M239 32q7 15 11 24l6 13l6 10q7 16 9 20l17 34l16 159l7 71v4h-96l1 7l2 6l2 10l3 9q3 24 19 85q20 84 22 95l4 17l2 13l2 10h-50l-51 1l-1 48v48h266v33l21 9q34 13 56 28l38 15v-85h262v-48l-2 -48l-410 -1l-9 -40l-17 -78l-9 -37h266l-14 49l-10 52q0 2 65 2h65l2 -7
q1 -2 2 -6q1 -5 2 -11l1 -10l1 -8l3 -13l3 -11l12 -45l4 -16l1 -13l1 -6l1 -4q1 -5 2 -7l10 -42q0 -1 -49 -1h-50v-371h138v-83h-250v454h-147v-4q0 -1 -4 -21l-2 -23q-1 -15 -2 -27q-5 -48 -5 -74l-1 -11l-2 -9l-2 -16l-6 -63l-17 -30l-2 -6l-2 -4l-2 -4l-11 -21l-23 -42
l-9 -15l-4 -9l-5 -12l-6 -11l-6 -11l-2 -4l-1 -2l-1 -3l-4 -7l-4 -8l-3 -6l-3 -4l-4 -6l-2 -5h-112l38 80q13 23 23 43z" />
    <glyph glyph-name="uni5146" unicode="&#x5146;" 
d="M270 -68l6 88l6 64l5 61l4 53q0 3 -4 -1l-36 -24l-24 -19l-8 -5l-9 -7l-19 -14l-33 -23q-2 0 -2 68l2 68l2 1l2 3l2 1l27 19q35 26 60 45l8 4l11 7l16 12l6 5l8 8l6 61l1 17l1 19l3 32q2 35 4 48l4 44v14l1 3l-68 31l-17 6l-16 7l-12 5l-12 6q-9 5 -16 6l-4 2q-2 1 -3 1
l-10 5v109l9 -2l24 -10l9 -4l5 -2l5 -2l6 -3l7 -3l23 -9l26 -12l15 -7l15 -5l6 -3l7 -3l4 -2l4 -2q1 0 2 12v6l2 6v7l1 5v13q1 5 1 18l4 42v3h136v-3l-4 -50l-10 -144l-3 -44l-3 -38l-2 -15q0 -9 -2 -15l-2 -36q-5 -75 -12 -155l-2 -10v-12q-1 -4 -1 -14l-3 -36l-2 -28
l-3 -28l-3 -36l-1 -20l-1 -21l-2 -16l-1 -15l-3 -29q-1 -2 -1 -12v-8l-7 -77l-1 -30q0 -1 -68 -1h-68v4q2 2 2 16zM701 712q2 2 22 9q3 3 19 10l21 9q25 10 43 17q6 2 11 4l4 1q1 0 1 -54v-55l-13 -5q-1 0 -20 -8l-12 -5l-14 -6l-16 -7l-7 -4l-6 -3l-21 -10l-19 -6l-30 -14
l-8 -2v-220l17 -13l53 -36l17 -15l22 -14l8 -6l6 -5l4 -3l4 -2q4 -4 6 -4l33 -24v-136q-4 4 -28 20l-59 41l-4 4l-8 4l-8 7l-9 6l-5 4l-4 4l-4 3l-4 3l-7 5l-28 19h-2v-209h189v-100h-152q-21 -1 -91 -1h-64v890h118v-112z" />
    <glyph glyph-name="uni5148" unicode="&#x5148;" 
d="M185 -82l147 442h-163v100h285v170h-159l-14 -32h-116l86 205h115l-32 -76h120v77h117v-77h267v-97h-267v-170h267v-100h-131v-346h131v-97h-249v443h-127l-148 -442h-129z" />
    <glyph glyph-name="uni5149" unicode="&#x5149;" 
d="M834 -91h-278v554h-113l-160 -554h-117l161 554h-157v96h262v240h117v-240h285v-96h-161v-456h161v-98zM363 582h-116l-38 190h115zM784 772l-39 -190h-116l39 190h116z" />
    <glyph glyph-name="uni514B" unicode="&#x514b;" 
d="M554 751h275v-97h-275v-72h235v-322h-102v-257h142v-97h-260v354h-158l-81 -343q-1 -5 -2 -8t-2 -3h-114q71 302 84 354h-99v322h238v72h-276v97h275q1 0 1 2v52h119v-54zM671 357v128h-357v-128h357z" />
    <glyph glyph-name="uni514D" unicode="&#x514d;" 
d="M559 601l26 69h-191l-19 -30h-107l99 162h105l-21 -35h171v-1l66 -72l-31 -93h123v-332h-144v-254h175v-97h-291v351h-67l-145 -351h-119l145 351h-145v332h370zM303 368h71l55 134h-126v-134zM495 368h170v134h-116z" />
    <glyph glyph-name="uni5151" unicode="&#x5151;" 
d="M198 311h-1v372h1v38h101v30l117 54v-84h155v30l117 54v-84h113v-414h-153v-292h174v-100h-267v2h-26v390h-121v-164l-100 -228h-130l113 255v137h-93v4zM314 403h370v222h-370v-222z" />
    <glyph glyph-name="uni5154" unicode="&#x5154;" 
d="M367 808q0 -2 -20 -35h255q1 0 2 -5q9 -8 78 -81l-37 -79h154q2 0 2 -1v-335q0 -1 -2 -1h-161v-259h191q1 0 1 -1v-97q0 -1 -1 -1h-306l-3 -1v359h-37q-9 -14 -199 -356l-1 -2h-122q-1 0 -1 1q15 26 199 357h-174q-1 0 -1 1v335q0 1 1 1h334q2 2 32 65h-263l-20 -31h-104
l-3 -1v1q0 2 80 135q12 23 18 31h108zM522 371h161v137h-147q-3 -34 -14 -137zM780 228q3 0 6 -27q21 -115 26 -147h-111q-2 0 -12 68q-1 1 -17 105l1 1h107zM302 371h102l14 137h-116v-137z" />
    <glyph glyph-name="uni515A" unicode="&#x515a;" 
d="M748 731h77q3 0 3 -2v-154q0 -3 -3 -3h-113q-1 0 -1 3v56h-431q-3 0 -3 -1v-55q0 -3 -3 -3h-111q-3 0 -3 3v154q0 2 3 2h81v17q2 2 32 16q32 16 85 39h1v-72h80v64q2 2 3 2h113q3 -1 3 -2v-64h69v17q8 6 117 56l1 -3v-70zM788 544q-1 -27 -1 -55v-222q0 -1 -2 -1h-103
q-3 -1 -3 -3v-250h146q3 -1 3 -2v-98q0 -1 -3 -1h-260q-3 0 -3 1v352l-205 -3v-122q-1 -6 -11 -42q-13 -42 -33 -103q-24 -78 -28 -82h-113q-1 0 -1 3q63 214 69 233v112h-51q-1 0 -1 2v275q0 2 1 2q117 0 598 6q0 -2 1 -2zM305 442v-81l365 4v80h-32q-111 0 -333 -3z" />
    <glyph glyph-name="uni515C" unicode="&#x515c;" 
d="M429 755l35 19l4 1h4l5 2l4 2l6 4l5 3l9 4l8 4l8 3l7 1q10 5 11 5q4 4 8 4v-33l1 -34h73v-434h-270v434h41l41 -2v17zM209 308h-30q-1 1 -1 180t1 180l11 20q3 5 12 21q3 3 7 11q4 12 7 17l8 16l7 13l1 4l2 3l4 2h113l-3 -4l-4 -6l-12 -23l-4 -9l-4 -7l-2 -3l-1 -3
q-1 -2 -2 -3l-9 -19l-6 -9q-2 -6 -4 -8l-2 -5l-3 -4l-3 -8v-273h24v-84h-68q-9 1 -39 1zM664 638l-16 2v96h14q17 0 18 1q0 1 54 1h59v-430h-35q-64 0 -70 -1h-35v98h27v233h-16zM483 513l-7 2h-15q-1 -1 -1 -58v-57h45l-1 59v54h-21zM179 -84v1l1 3q1 5 3 10q4 9 6 20l2 11
l4 12l3 9l4 11l4 12l3 9l3 16l3 8l29 101l3 37l1 11l2 12q0 16 1 19q1 4 1 16v6l2 27q0 1 57 1h56v-17q-1 -1 -1 -12q-2 -4 -2 -28l-1 -16q0 -12 -1 -12l-4 -58l-11 -38l-11 -32l-10 -32l-11 -33l-11 -34l-12 -42h-57q-56 0 -56 2zM756 10l58 -1v-96h-58q-60 0 -60 -1h-113
v356h113v-258h60zM460 609h45v35h-45v-35z" />
    <glyph glyph-name="uni5162" unicode="&#x5162;" 
d="M180 -58l4 67q1 2 4 41q4 45 10 118l2 25l2 17q0 11 1 12l4 44l1 8v15l-21 1h-20v296h51q52 0 52 1q2 42 2 49v6h-105v98h55q56 0 56 3l4 54q0 2 54 2q5 -1 9 -1q7 -1 14 -1h33v-25l-1 -28v-4h86v-98h-93v-10q0 -14 -1 -17l-2 -25v-4h94q2 -4 2 -51q0 -50 -1 -50t-1 -48
q0 -46 2 -48v-99h-14l-14 -1v-126q0 -101 2 -127l18 4l18 3q1 0 1 -48v-49l-37 -7l-39 -8l-31 -5l-6 -2q-39 -7 -39 -6q-3 0 0 175q1 15 1 71v125h-37v-4q-1 -3 -4 -44l-12 -130l-4 -50l-1 -14l-1 -14l-2 -14l-1 -12q0 -3 -3 -32l-2 -52l-2 -7h-89q-1 1 1 26zM529 76
q5 72 8 87l4 45q0 27 1 38l4 43l-21 1h-20v296h51q51 0 52 1v8q0 9 1 11q1 3 1 17v19h-104v98l55 1h55l1 26q1 3 1 18v14l27 -2h85v-2q-1 -1 -1 -23q-2 -6 -2 -17v-15h87v-98h-93v-38l-2 -10v-8h92q0 -2 2 -2q1 0 1 -49q0 -50 -1 -50q-2 0 -2 -48q0 -47 2 -47q1 0 1 -52v-49
h-27l-1 -126q0 -127 1 -128l19 4l19 4q1 0 1 -48q0 -49 -1 -49l-27 -4l-24 -6l-23 -5q-7 -1 -15 -2l-13 -2l-49 -9q-1 0 -1 52q1 7 1 185l2 134h-39v-3l-5 -60l-4 -56q-7 -66 -12 -141q-3 -28 -3 -40l-4 -38q0 -12 -1 -13v-11l-2 -4v-5q-2 -2 -45 -2h-45v3l4 56l5 53
q4 45 4 48zM278 390h83v95h-83v-95zM617 390h84v95h-84v-95z" />
    <glyph glyph-name="uni5165" unicode="&#x5165;" 
d="M281 701v97h418l123 -884h-116l-109 787h-316zM289 -86h-116l100 688h116z" />
    <glyph glyph-name="uni5168" unicode="&#x5168;" 
d="M302 802h396q2 0 3 -1l174 -337h-107l-114 235l-2 2h-304l-2 -2l-114 -235h-107l174 337q1 1 3 1zM145 -79v97q0 1 2 1h293v213h-216l-1 2v98l1 1h216v137h-142v102h404v-102h-142v-137h216q1 0 1 -1v-98q0 -2 -1 -2h-216v-213h293q2 0 2 -1v-97q0 -3 -2 -3h-706
q-2 0 -2 3z" />
    <glyph glyph-name="uni516B" unicode="&#x516b;" 
d="M377 466l-97 -553h-117l98 553v333h116v-333zM731 466l102 -553h-118l-99 553v333h115v-333z" />
    <glyph glyph-name="uni516C" unicode="&#x516c;" 
d="M203 514l3 8l2 9l6 14l5 14l16 48l17 47l18 45l24 74l6 15l4 11l2 2v3h6q7 0 7 1q0 2 69 2h68v-101h-68l-23 -63q-2 -6 -6 -20l-4 -13l-4 -15l-4 -8l-4 -9l-3 -8l-3 -7l-9 -29l-11 -28l-21 -57l-9 -31h-119l4 11l6 13l4 13zM674 535q-32 88 -42 121l-18 46l-1 2h-64v100
h15q1 1 17 1h13q15 0 18 -1h83l11 -28l13 -33q3 -13 7 -23q2 -9 4 -13l32 -88q2 0 3 -4l1 -4l1 -5l3 -11l5 -13l6 -14l5 -14l1 -4l2 -5l1 -2v-2l27 -78l16 -44q0 -1 -58 -1h-60l-5 19q-6 18 -36 98zM204 -90l10 87l12 90q0 2 -2 2q-1 0 -1 2l8 21l8 21l5 15l7 15l1 4l3 5
l3 8l4 10l4 10l4 10l8 23l34 89l3 7l2 8l4 11l4 10l8 20l8 20l26 69l16 42h50l22 1h47l-3 -12l-4 -7l-3 -6l-3 -10l-4 -8l-40 -102l-21 -59l-8 -20l-3 -6l-2 -8q-6 -18 -8 -20l-18 -46l-17 -43l-6 -15l-5 -14q-6 -17 -8 -23q-6 -15 -4 -15l-5 -44l-5 -41h342l-13 54l-8 34
l-2 10l-1 7l-1 5l-2 11l-2 9l-7 29l-11 51l-12 47q-10 47 -9 48h57q59 0 61 -2l10 -48l4 -20l5 -21l12 -53q8 -32 17 -69l3 -14l3 -13q3 -14 5 -21l23 -109l8 -36q0 -2 -308 -2q-305 0 -305 2z" />
    <glyph glyph-name="uni516D" unicode="&#x516d;" 
d="M431 748l115 52q1 0 1 -1v-95h290v-90h-676v90h267v41zM174 -85l112 594h113l-110 -594h-115zM711 -85l-112 594h114l112 -594h-114z" />
    <glyph glyph-name="uni516E" unicode="&#x516e;" 
d="M166 602q2 0 6 4q6 10 8 14l57 77l6 8l14 18l8 11l17 24l17 23l19 22h106q15 0 15 -1l-19 -23l-2 -4l-6 -5l-6 -11l-8 -12l-32 -42l-11 -14l-10 -14l-23 -31l-15 -18l-20 -27h-118q-3 0 -3 1zM555 803h118l18 -22l2 -4l3 -4l4 -5l4 -5l7 -10l9 -11l104 -140h-3
q0 -1 -8 -1h-110l-151 201q0 1 3 1zM599 -98l2 15l2 5l1 7l4 22l5 23q38 190 47 226l1 8l2 7l1 4v7l7 30q0 1 -229 1h-231l15 51l36 129l5 25h-86v51q0 51 1 52h628v-103h-419l-5 -15v-3l-1 -5l-2 -7q-1 -5 -2 -9l-6 -15l-2 -11l-3 -8q-1 -1 -1 -9l-4 -15q-1 -4 -3 -4
l125 -2h101q224 0 224 -2l-12 -60l-24 -117l-5 -29l-7 -29l-3 -14l-2 -10l-1 -4l-1 -5q-1 -7 -2 -13l-7 -35q-2 -7 -4 -19l-1 -8l-2 -5q0 -2 -2 -8l-1 -5l-1 -6l-2 -11l-3 -12l-13 -66h-62q-58 0 -58 1z" />
    <glyph glyph-name="uni5170" unicode="&#x5170;" 
d="M343 785q41 -118 43 -129h-125l-8 20q-14 43 -43 129h125q2 0 8 -20zM723 656h-125q19 58 34 104q6 17 11 30q3 10 5 15h125zM813 624v-98h-636q-1 0 -1 1v97q0 2 1 2h635q1 0 1 -2zM796 249h-603v99h603v-99zM829 -90h-669v98h669v-98z" />
    <glyph glyph-name="uni5171" unicode="&#x5171;" 
d="M659 86q0 6 -8 35l-11 37l-24 73q-2 5 -4 15l-1 5l-2 5l-2 10q0 1 14 1h19q21 0 25 -1q10 -2 24 -2h36l5 -18l8 -28l10 -30q0 -1 2 -7l1 -3l1 -4q2 -5 3 -9q4 -13 8 -27q5 -17 11 -36l23 -79l20 -70l11 -37q0 -2 -58 -2h-60l-4 18q-32 108 -47 154zM247 142l6 17l5 15
l3 9l2 9l2 6l1 2l3 11l4 13l6 20l4 22h119v-2l-11 -34q-9 -40 -23 -75q-6 -25 -12 -42l-1 -7l-1 -5q-1 -5 -2 -8l-12 -40l-17 -54l-25 -85h-117l12 42l20 70l24 79zM166 618v102h128v85h118v-85h189v85h120v-85h59l60 -2l1 -49v-51h-120v-207h120v-99h-675v99h128v207h-128z
M412 411h189v207h-189v-207z" />
    <glyph glyph-name="uni5173" unicode="&#x5173;" 
d="M291 674l-41 131h125l41 -131h-125zM567 674l41 131h125l-41 -131h-125zM391 436l48 114h-264v101h634v-101h-253l-48 -114h326v-96h-366l-176 -425h-117l176 425h-185v96h225zM713 -85l-216 397h117l216 -397h-117z" />
    <glyph glyph-name="uni5174" unicode="&#x5174;" 
d="M253 534l-5 26l-6 26l-6 33l-8 36l-4 21l-4 20q-2 7 -4 19l-2 6l-1 6l-8 37l-4 17l-1 7l-2 5q0 9 -1 10l37 2h74l1 -8l10 -52l23 -103l8 -38l1 -10l3 -10q1 -9 3 -16l2 -12l2 -9l2 -11l3 -14l3 -12l2 -12l1 -4l1 -4q0 -2 -55 -2h-56l-2 16l-2 6l-1 6zM448 582q-1 7 -2 12
l-4 20l-5 21l-4 18l-3 18q-7 39 -12 50l-16 82v2h110l6 -22v-3l1 -5l3 -14l4 -22l5 -23q6 -23 12 -49l4 -21l4 -20l8 -38l3 -13l2 -15l4 -18q2 -6 2 -7l2 -15l3 -12q1 -5 2 -11l2 -9h-112l-12 62l-5 22l-1 4zM687 768l3 13l2 11l1 4v7l2 2h56q56 0 56 -2l-6 -22l-17 -82
l-24 -117l-20 -94h-112l14 63q27 127 45 217zM162 -88q0 6 7 24l4 12l4 14q6 17 11 31l4 11l4 12l5 16l4 15l27 82q5 14 10 30l2 6l1 5q2 5 3 8l2 7l2 7l1 4v1l9 28l12 38l16 47q1 1 61 1h59v-2l-1 -4l-3 -7l-3 -9q-1 -1 -9 -28l-4 -12l-4 -15l-5 -17l-7 -17l-8 -26l-4 -12
l-3 -10q-5 -14 -8 -23q-2 -7 -2 -8q0 -2 -1 -5q-1 -4 -3 -10q-7 -18 -20 -63q-32 -93 -32 -99l-11 -32l-60 -1q-60 0 -60 1zM719 -88l-1 2l-1 3q-1 3 -2 7l-25 79l-22 62l-20 64l-9 31q-2 5 -4 13l-1 5l-2 4l-4 11l-2 7l-3 8l-20 61l-12 42h118l3 -6l4 -10l3 -10l1 -7l3 -8
l9 -29l25 -79l18 -50l6 -22l4 -10l3 -9l4 -14l15 -44v-4l1 -2l1 -4q8 -27 15 -44l15 -48h-60q-59 0 -60 1zM160 355v103l685 -2v-101h-685z" />
    <glyph glyph-name="uni5175" unicode="&#x5175;" 
d="M215 679q-1 0 -1 49v51l38 1h15q14 0 17 1h29l7 2h19q19 0 24 1l34 1l36 2l48 1l49 1l239 10q3 1 34 1h2l1 -49q0 -49 -1 -49l-314 -12l-10 -2h-18l-128 -5q-2 -10 -2 -44v-45h472v-100h-83v-165h107v-99h-665v99h52v176q0 174 -1 174zM213 -22q3 14 6 25l5 22l6 20
l16 76l12 49l6 30h117l-12 -53l-5 -22l-5 -24q-8 -34 -12 -52l-10 -46l-4 -15l-2 -14l-3 -8v-4l-11 -47h-118l9 39l2 12zM666 -58v2l-1 4l-1 8l-3 10l-1 10l-3 13l-3 12l-2 8l-2 8l-14 67l-8 36l-3 5l-1 6l-2 4v2l-13 63h117v-4l1 -3q2 -2 2 -7l4 -18l2 -12l27 -104
q12 -52 19 -94l4 -16l2 -14l3 -8v-4q0 -1 -59 -1l-58 1l-5 24q0 2 -2 2zM333 329h273v165h-273v-165z" />
    <glyph glyph-name="uni5176" unicode="&#x5176;" 
d="M823 170h-659v98h97v370h-74v99h74v66h109v-66h244v66h108v-66h70v-99h-70v-370h101v-98zM370 582h244v56h-244v-56zM614 424v60h-244v-60h244zM614 268v59h-244v-59h244zM412 149l-95 -233h-128l100 233h123zM806 -84h-128l-92 233h124z" />
    <glyph glyph-name="uni5177" unicode="&#x5177;" 
d="M773 804v-557h57v-99h-671v99h69v557h545zM367 665h267v42h-267v-42zM367 530h267v37h-267v-37zM367 387h267v39h-267v-39zM367 247h267v40h-267v-40zM178 -95l105 223h140l-108 -223h-137zM703 -95l-109 223h137l111 -223h-139z" />
    <glyph glyph-name="uni5178" unicode="&#x5178;" 
d="M363 719v81h117v-81h39v81h115v-81h164v-452h29v-94h-654v94h30v452h160zM319 512h44v111h-44v-111zM480 512h39v111h-39v-111zM634 512h48v111h-48v-111zM319 267h44v151h-44v-151zM480 267h39v151h-39v-151zM634 267h48v151h-48v-151zM195 -84l75 217h116l-74 -217
h-117zM692 -84l-74 217h116l75 -217h-117z" />
    <glyph glyph-name="uni5179" unicode="&#x5179;" 
d="M227 10l1 1l16 55l6 17l5 19l7 23l6 22l23 76l23 79l8 28q0 1 -19 1h-17l-2 -3v-5l-1 -3h-114l2 12l4 14q3 18 8 35l12 46q7 26 10 33l7 33l4 18l6 20l4 16l4 13l9 34l11 51h-67v83h79v14q0 17 2 17q0 1 56 27q11 5 24 12l11 4l8 4l16 7v-85h201v31l89 42l19 8l5 2
q1 0 3 2v-4l1 -4v-77h118v-83h-139l-15 -63l-11 -42l-10 -39l-15 -54l-1 -7v-7l-2 -5h39l24 84l7 1q2 2 57 2q52 0 52 -2l-7 -22l-21 -70q-1 -4 -11 -42l-6 -20l-6 -17l-22 -79l-12 -37l-10 -39q-1 -7 -6 -18l-3 -12l-4 -11l-5 -19l-4 -13l-19 -67q-6 -11 -8 -24l-3 -8v-5
h59v96l1 96h93v-95q0 -97 2 -97q1 0 1 -48v-48h-299v2q0 2 12 48q9 31 13 46q2 2 4 8l4 11l4 12l2 7l3 9q4 10 7 21l4 15l3 14l27 97l30 92l1 8l1 7l2 5l1 6l3 8l1 1h-37l-2 -3v-8h-115l13 53l15 54q10 51 29 120l13 47l12 51h-98q-99 0 -99 -3l-2 -10l-6 -27l-24 -90
l-17 -70l-4 -17h40l1 7l3 8l3 9q5 17 6 24l11 36l7 1q2 2 57 2q52 0 52 -2l-12 -37l-8 -29l-3 -10l-3 -10l-8 -26q-6 -17 -34 -119l-33 -115l-8 -29l-1 -3l-1 -3q-1 -5 -2 -9l-2 -4l-1 -5q-2 -4 -3 -7t-1 -4l-1 -4l-3 -5l-3 -9l-2 -11l-18 -61l15 -3h45v96l1 96h92v-95
q0 -97 2 -97q1 0 1 -48v-48h-299l22 91q3 5 4 5z" />
    <glyph glyph-name="uni517B" unicode="&#x517b;" 
d="M376 803l28 -70h202l28 70h104l-30 -70h124v-95h-661v95h130l-29 70h104zM257 389h-86v97h146l16 28h-162v96h222l16 26h132l-16 -26h307v-96h-368l-16 -28h384v-97h-105l105 -137h-92v-337h-118v390h32l-64 84h-202l-52 -84h32v-207l-59 -185h-118l58 185v154h-77z" />
    <glyph glyph-name="uni517C" unicode="&#x517c;" 
d="M334 334v45h-162l1 48v46l80 2h81v41h-162l1 48v48l80 1h81v39h-161v95h117v3q2 2 57 27l39 18l17 8v-56h189v3l3 1l15 8q10 6 95 46v-58h112v-95h-194v-39l193 -1l1 -48v-48h-22v-41h10l11 -2l1 -94h-22v-45h22v-96h-194v-324h-113v324h-61l-2 -163v-161h-113v324h-161
v96h161zM164 -15l6 18l3 12l4 11l7 25l2 50l8 69l2 22v2h111l-2 -35l-5 -76l-4 -45l-38 -124h-106v23l9 33q0 3 3 15zM678 151l-3 41q0 2 56 2h57l3 -40l4 -35l2 -36l3 -32l8 -33q8 -14 12 -35l7 -34l10 -33l-30 -2h-82l-2 3l-18 64l-17 57zM449 613h61v39h-61v-39zM449 475
h61v41h-61v-41zM623 475h59v41h-59v-41zM449 334h61v45h-61v-45zM623 334h59v45h-59v-45z" />
    <glyph glyph-name="uni517D" unicode="&#x517d;" 
d="M193 354v370h4v1h84l-31 78h124l30 -78h201l30 78h124l-30 -78h86v-272h1v-98h-254v-1h-116v1h-136v-1h-117zM446 590v36h-136v-36h136zM562 626v-36h137v36h-137zM446 492h-136v-39h136v39zM699 492h-137v-39h137v39zM832 230h-660v98h660v-98zM333 -83v-1h-116v295h572
v-294h-456zM333 15h339v98h-339v-98z" />
    <glyph glyph-name="uni5180" unicode="&#x5180;" 
d="M473 800q1 0 1 -1v-222h-115q-2 0 -2 2v10q-34 -1 -41 -1q-1 -1 -2 -1v1q-1 -1 -2 -1q-5 0 -29 -1h-2v0h-1l-111 -4l-1 1v77q0 1 1 1q177 7 187 7l1 1v24h-188q-1 0 -1 1v77q0 2 1 2h188v26q1 1 2 1h114zM642 800q1 0 1 -1v-30l189 15v-1v-78q-51 -5 -189 -15v-32h188
q1 -1 1 -2v-77q0 -2 -1 -2h-305v222q0 1 1 1h115zM801 565q2 0 2 -2q0 -35 -1 -160q0 -13 1 -103q-1 -13 -1 -30l1 -2h-1l1 -1l-1 -2h-100q-1 -1 -1 -2v-22q0 -1 1 -1h99l2 -1l-1 -1v-83h-100q-1 -1 -1 -2v-26q0 -1 1 -1h130v-84q0 -1 -1 -1h-662q-1 0 -1 1v84h130q1 0 1 1
v28h-100q-1 0 -1 1v83q0 1 1 1h100v25h-100q-1 0 -1 1v297q0 2 1 2h602zM558 455h126q2 0 2 2v22h-128v-24zM558 350h126q2 0 2 1v19h-128v-20zM416 127q0 -1 1 -1h166q1 0 1 1v28h-168v-28zM398 25q-56 -105 -62 -115h-115q-1 0 -1 2l62 114h115q1 0 1 -1zM722 26
q2 0 12 -23q41 -79 46 -92l-2 -1h-114q-2 0 -22 43l-36 73h1h115zM315 455h126v24h-126v-24zM315 350h126v20h-126v-20zM416 240h168v25h-168v-25z" />
    <glyph glyph-name="uni5185" unicode="&#x5185;" 
d="M191 692h56q55 0 55 -1v-3h130l1 15l2 16l1 6l1 11l2 9l1 12l3 20l4 17v8h86q4 2 12 2h8q7 0 7 -2l-16 -113l250 -1v-47q0 -48 -1 -48q-3 0 -3 -339v-338h-112v677l-74 -1h-73l-4 -29l-2 -14l-2 -7l-2 -4v-10h39q34 0 38 -1l4 -47l7 -89l1 -12l2 -12l1 -16q0 -10 1 -13
l2 -19l1 -20l1 -13v-12q0 -9 2 -19l13 -162l8 -76v-3h-101v3l-5 76q-2 12 -4 36v15l-2 13l-1 29l-3 27l-4 45q-2 16 -3 28q-1 11 -1 16l-5 82l-4 39q-1 2 -4 -15l-13 -98q-13 -114 -38 -270l-4 -30h-57q-56 0 -56 2l4 30q4 34 12 82l19 138q0 3 3 21l1 10v9q2 7 4 23l1 8
l1 6q2 8 2 10l3 13l1 13l4 33l4 32q21 150 22 151v2h-115v-680h-112v389q0 390 1 390z" />
    <glyph glyph-name="uni5188" unicode="&#x5188;" 
d="M823 792q1 0 1 -1v-878q0 -1 -1 -1h-170q-1 0 -1 1v93q0 1 1 1h55v687h-426v-782h-116v879q0 1 1 1h656zM415 653q10 -18 80 -164v0q75 161 79 164h120q1 0 1 -1q-129 -274 -137 -293q140 -292 148 -308h-125q-2 1 -72 151q-13 25 -14 26q-53 -117 -83 -177h-124
q2 6 72 154q71 149 73 155l-140 293h2h120z" />
    <glyph glyph-name="uni518C" unicode="&#x518c;" 
d="M479 803v-288h39q1 0 1 1v148q0 38 -1 57q1 5 1 45v39h264v-289q0 -1 1 -1h44q1 0 1 -2v-97q0 -1 -1 -1h-45v-509h-109q-2 0 -2 2v507h-44v-286q-3 -21 -43 -223h-103q18 102 28 165q9 56 9 60v284h-40v-507q0 -2 -1 -2h-108q-1 0 -1 2v507h-44v-289q-1 -4 -13 -63
q-7 -36 -13 -67q-9 -44 -18 -90h-102q17 102 28 166q9 57 9 61v282h-56q-1 0 -1 1v97q0 2 1 2h54q2 0 2 1v148q0 19 -2 57q2 10 2 45v39h262q1 -1 1 -2zM326 515h43v189q0 1 -1 1h-42q-1 0 -1 -3v-186q0 -1 1 -1zM672 515v189q0 1 -1 1h-41q-1 -1 -2 -1v-189h44z" />
    <glyph glyph-name="uni518D" unicode="&#x518d;" 
d="M205 214v435l235 1v27l2 29h-272l-1 51q0 50 1 51h659v-102h-270v-29l1 -27l233 -1v-435h41v-100h-41l-1 -102v-102h-119l-1 102v102h-350v-204h-117v204h-49v100h49zM560 549q-1 -1 -1 -50l1 -48h112v100h-57q-55 0 -55 -2zM322 551v-100h118v98h-58zM322 214h120v137
h-120v-137zM559 214h113v137h-113v-137z" />
    <glyph glyph-name="uni5192" unicode="&#x5192;" 
d="M172 432q-2 0 -2 189v187h59q60 0 60 -1t210 -1q209 0 209 1t60 1t60 -2v-378h-655v2q0 2 -1 2zM289 569v-40h419v41h-209q-210 0 -210 -1zM209 -85l-3 2v28l3 236q1 17 1 83v128h573v-15l-2 -238q-1 -11 -1 -61v-123q-1 -3 -1 -16v-24q-4 -2 -285 -2t-285 2zM289 671
h419v34h-419v-34zM327 269h336v22h-336v-22zM327 139l336 1v28h-336v-29zM326 40v-26h335v14l2 12h-337z" />
    <glyph glyph-name="uni5195" unicode="&#x5195;" 
d="M805 796q0 -12 1 -20q-1 -117 -1 -192v-59q0 -2 -1 -2h-113q-2 0 -2 2v179h-390v-179q0 -2 -1 -2h-113q-1 0 -1 2v270q0 1 1 1h620zM672 685v-73h-357q-1 0 -1 1v72h358zM672 591v-72q0 -1 -2 -1h-355q-1 0 -1 1v71q0 1 1 1h357zM367 505q-1 -6 -8 -20h303h3
q60 -61 79 -81q-28 -51 -28 -52h65q1 0 1 -1v-245q0 -1 -1 -1h-44q-39 0 -118 1v-92h203q2 -1 2 -2v-95q0 -1 -2 -1h-319v190h-33q-1 0 -158 -190h-135q-1 0 -1 1l156 189q-29 -1 -44 -1h-88q-1 0 -1 1v245q0 1 1 1h401q4 7 17 35h-306q0 -4 -7 -16h-105h-1q53 113 62 134
h106zM315 204h81l11 50h-2h-89q-1 0 -1 -1v-49zM666 204v50h-3h-133q-5 0 -5 -11q-1 -1 -8 -39h149z" />
    <glyph glyph-name="uni5197" unicode="&#x5197;" 
d="M824 796q1 0 1 -1v-173q0 -1 -1 -1h-114q-2 0 -2 1v75h-428v-75q0 -1 -1 -1h-114q-1 0 -1 1v173q0 1 1 1h659zM713 592q2 0 2 -2v-582h109q1 0 1 -1v-93q0 -1 -1 -1h-224q-2 0 -2 1v582h-211q-2 0 -2 -1v-340q0 -5 -38 -123q0 -2 -38 -120h-116v1l76 241v436q0 2 1 2h443
z" />
    <glyph glyph-name="uni5199" unicode="&#x5199;" 
d="M273 804h556v-145h-114q-2 0 -2 2v44h-440v-44q0 -2 -1 -2h-111q-1 0 -1 2v143q0 2 1 2h112v-2zM397 641l-2 -14q-1 -4 -1 -8h382v-99h-399l-6 -36l-4 -26l-4 -22h413v-336q-3 -12 -83 -193h-123q0 1 65 145q25 54 25 58v226h-426q57 338 59 345h112q-5 -22 -8 -40z
M626 108h-466v100h466v-100z" />
    <glyph glyph-name="uni519B" unicode="&#x519b;" 
d="M717 642v64h-431v-64h-129v160h685v-160h-125zM436 153v125h-265v102l51 105h-65v99h113l33 69h119l-34 -69h454v-99h-502l-50 -105h146v61h129v-61h277v-102h-277v-125h277v-99h-277v-145h-129v145h-279v99h279z" />
    <glyph glyph-name="uni519C" unicode="&#x519c;" 
d="M278 669v-73h-116v152h222l32 54h143l-30 -54h300v-152h-115v73h-227l-113 -211v-445h89v-98h-206v432h-95l178 322h-62zM698 475h131l-115 -248h-34l73 -215h84v-97h-182l-208 625h128l64 -191z" />
    <glyph glyph-name="uni51A0" unicode="&#x51a0;" 
d="M289 703v-47h-118v146h665v-146h-118v47h-429zM813 482v-326l-39 -117h-114l38 118v325h-137v99h137v41h115v-41h23v-99h-23zM201 613h327v-99h-327v99zM391 -88v456h-28l-73 -456h-116l72 456h-73v98h371v-98h-36v-358h328v-98h-445zM653 417l41 -217h-105l-41 217h105z
" />
    <glyph glyph-name="uni51A4" unicode="&#x51a4;" 
d="M828 637h-110q-51 -142 -51 -145h102v-280h-47q0 -1 -1 -1h-94v-206h200v-99h-317l-1 2v303h-3l-2 -1l-2 -2q-192 -299 -194 -302h-141q11 17 25 39q20 29 42 63q60 93 130 203h-108q-1 0 -1 1h-26v223h-70q16 27 47 82q62 111 66 120h-114v168h670v-168zM297 682h143
q-3 -3 -19 -33v-1h289v57h-434v-61q1 1 21 38zM333 492h204q0 1 5 15l3 8l3 10q5 13 9 25h-192zM783 31h-117q-1 0 -1 2v42q2 0 26 10q92 33 93 33v-85q0 -2 -1 -2zM433 312v80h-86v-80h86zM651 312v80h-91v-80h91z" />
    <glyph glyph-name="uni51A5" unicode="&#x51a5;" 
d="M214 392h-18l-18 1v98h332v-98l-11 -1h-12v-366h343l-1 -50v-49h-458v465h-21l-19 1v-261h-2q-3 -3 -12 -33l-46 -151l-8 -25l-2 -9h-103v46l57 184v124zM564 180l-14 79q-1 4 -3 14l-2 10l-2 11l-1 12l-3 14l-3 26l-14 83q0 2 12 3h102l1 -3q2 -2 2 -7q2 -16 2 -20
l6 -25q1 -10 8 -49l5 -36l7 -36q11 -67 12 -75l1 -2h-59q-57 0 -57 1zM723 650v50h-426v-50h-117v150h660v-150h-117zM700 613v9h116v-9h24v-99h-24v-452h-116v452h-157v99h157zM510 613v-99h-332v99h332z" />
    <glyph glyph-name="uni51AC" unicode="&#x51ac;" 
d="M162 347q0 3 36 31l28 24l25 20l3 2l2 3l3 1l7 6l1 1l2 2q3 2 5 5l25 19l37 31l3 1l2 3l14 11q3 4 13 10l27 24q0 3 -15 15l-15 11l-5 4l-7 6l-9 7l-9 8l-29 24l-14 -39l-1 -4l-1 -4l-2 -4l-2 -4l-3 -6l-1 -7q-2 -4 -3 -7t-1 -4h-15q-6 -1 -43 -1h-57l13 37l30 77l53 143
h108l-11 -33h156q115 0 134 1q86 0 100 1h85q-1 -4 -8 -8l-58 -48l-3 -2l-5 -4l-4 -4l-6 -4l-10 -8l-12 -11l-30 -25l-45 -39l-49 -42l-8 -6l-7 -5l-6 -6l-4 -3l17 -14q44 -38 181 -139l36 -28l4 -3l3 -3v-1l-31 -8l-32 -7l-12 -4l-31 -8l-45 -10q-1 0 -2 1q-2 1 -3 3l-4 2
l-7 7l-10 9l-12 8l-52 43l-23 20l-36 28l-33 28l-13 -12q0 -1 -11 -10q-13 -11 -33 -27l-31 -26q-13 -13 -21 -17q-3 -3 -7 -5l-2 -2l-2 -1l-27 -23l-12 -12l-4 -4l-2 -1l-16 -12l-69 13l-36 8l-27 6zM550 669l11 9h-15l-5 2h-100q-6 -2 -17 -2h-20l19 -16l24 -16l16 -14
l21 -16l28 23zM546 193l-20 16l-10 10l-8 8l-13 10l-56 46l-8 8l-8 5l-12 12q-9 9 -15 11l-7 5l-1 3l-3 1l-2 3l-3 3l-4 1h184l9 -7l9 -8l8 -5l8 -8l27 -21l29 -27l64 -53l33 -29l31 -26h-12q-3 -1 -33 -1h-136l-37 32l-6 4l-2 3q-4 2 -6 4zM324 145l-2 2l-3 2q-3 2 -6 5
l-18 16l-12 8l-12 11q-9 8 -27 22q-6 6 -8 10l-5 2l-3 4l-4 3l-2 1l-2 2l-1 1l-4 3h189l8 -7l69 -59l16 -13l16 -13q8 -6 17 -13l6 -6l6 -5l4 -4l4 -4l7 -6l7 -5l1 -1l1 -2q4 -1 7 -6l14 -11l15 -12l62 -53l23 -21l8 -6l2 -3l1 -1l5 -2l4 -4l8 -7l36 -31l31 -25h-189l-12 9
l-56 47l-122 105q-20 14 -79 67z" />
    <glyph glyph-name="uni51AF" unicode="&#x51af;" 
d="M766 801v-330h21l1 -1h28v-413q0 -6 -43 -145h-119q-1 0 -1 1q48 149 48 152v49h-312q-1 0 -1 2v94q0 1 1 1h312v163h-276v69l-1 1v243h105q1 0 1 -2v-214h128v233q0 1 -1 1h-257q-1 0 -1 2v95h366q1 0 1 -1zM309 715q5 -15 60 -279l-1 -1h-116q-2 0 -12 55l-62 291l1 1
h116q1 0 14 -67zM315 -93h-117l54 468h117q-49 -439 -54 -468z" />
    <glyph glyph-name="uni51B0" unicode="&#x51b0;" 
d="M241 433l-61 338v3h101q1 0 1 -3l61 -338v-1h-100q-2 0 -2 1zM297 -87v-1h-101l47 460h100l-44 -456q0 -3 -2 -3zM821 769v-137l-181 -131v-25h65l121 -560h-107l-79 359v-363h-113v863h113v-137zM506 720v-88h4l-78 -720h-113l75 713h-68v95h180z" />
    <glyph glyph-name="uni51B2" unicode="&#x51b2;" 
d="M653 802v-89h174q1 0 1 -1v-587q-38 -2 -42 -2q-14 0 -132 2q-1 -1 -1 -2v-215q0 -2 -2 -2h-117q-1 0 -1 2v215l-2 2q-110 -2 -131 -2h-22q-2 0 -20 2v587q1 1 2 1h173v89q0 2 1 2h117q2 0 2 -2zM350 438h-117q-1 0 -3 8q-2 10 -5 26q-66 308 -66 313h117q4 -13 74 -347z
M350 375q-50 -445 -54 -469h-117q53 466 54 470h116q1 0 1 -1zM533 227v382h-55v-382h55zM708 227v382h-55v-382h55z" />
    <glyph glyph-name="uni51B3" unicode="&#x51b3;" 
d="M231 449l-63 356h110l66 -356h-113zM499 449v172h-136v97h136v87h115v-87h184v-269h35v-95h-248l-113 -440h-109l114 440h-114v95h136zM614 449h67v172h-67v-172zM168 -86l63 477h113l-66 -477h-110zM719 -82l-105 373h112l100 -373h-107z" />
    <glyph glyph-name="uni51B6" unicode="&#x51b6;" 
d="M537 674l-8 -22q-3 -8 -6 -17q-7 -19 -8 -22h169l-25 97h118q1 0 15 -56q3 -6 37 -142h-40q0 -2 -1 -2h-340q-12 0 -98 2l102 294h131q-24 -70 -46 -132zM274 765q0 -4 3 -26q4 -26 9 -63q13 -105 32 -240h-110q-1 8 -4 25q-35 262 -43 321h110q1 -6 3 -17zM804 -89
q0 -1 -3 -1h-431q-1 0 -1 1v550h435v-550zM279 -26l-6 -68h-111q38 381 39 402l7 67h110zM684 10v351h-194v-351h194z" />
    <glyph glyph-name="uni51B7" unicode="&#x51b7;" 
d="M159 805h101l66 -356h-99zM720 781l115 -278h-112l-74 182h-78l-74 -182h-113l115 278h221zM570 385l-32 127h115l32 -127h-115zM175 -84l49 463h98l-45 -463h-102zM702 -86h-234v95h149l78 265h-277v95h418l-1 -1l-133 -452v-2z" />
    <glyph glyph-name="uni51BB" unicode="&#x51bb;" 
d="M501 -89l46 114h-1v320h-185v99l81 192h-71v97h112l29 68h120l-29 -68h232v-97h-272l-81 -192h64v140h114v-140h175v-99h-175v-320l-44 -114h-115zM169 777h101l63 -344h-100zM185 -89l48 464h100l-47 -464h-101zM425 317h101l-87 -406h-101zM787 317l49 -406h-101
l-49 406h101z" />
    <glyph glyph-name="uni51C0" unicode="&#x51c0;" 
d="M231 453l-67 350h107l65 -350h-105zM389 320h137v41h-153v98h153v51h-137v99h203l28 62h-135l-12 -21h-117l96 153h120l-24 -37h239l-78 -157h109v-150h19v-98h-19v-136h-170v-189l-38 -125h-125l41 125v189h-137v95zM648 459h61v51h-61v-51zM182 -86l49 478h105
l-48 -478h-106zM648 320h61v41h-61v-41z" />
    <glyph glyph-name="uni51C4" unicode="&#x51c4;" 
d="M630 792q1 0 1 -1v-28q0 -1 2 -1h188q1 0 1 -1v-93q0 -1 -1 -1h-188q-2 0 -2 -2v-12q0 -1 2 -1h146q1 -1 1 -2v-112h41q2 0 2 -1v-92q0 -2 -2 -2h-41v-112q0 -1 -1 -1h-419q-1 0 -1 1v93q0 1 1 1h162v18h-177q-1 0 -1 2v92q0 1 1 1h177v19h-162q-1 0 -1 1v92q0 2 1 2h162
v15h-190q-2 0 -2 1v93q1 1 2 1h190v29q0 1 1 1h107zM267 767q2 0 11 -52q16 -84 52 -286h-1h-97q-2 0 -7 30q0 2 -57 308h1h98zM631 540q0 -2 2 -2h42v19h-42q-2 -1 -2 -2v-15zM631 426q0 -1 2 -1h42v18h-42q-2 0 -2 -1v-16zM331 370q-43 -418 -46 -457q-1 -1 -2 -1h-97
l-2 1q45 441 47 457h99h1zM757 319q1 -1 1 -2v-20h63q2 -1 2 -2v-92q0 -1 -2 -1h-63v-55q-101 -98 -102 -98v-1q11 -11 152 -135l-1 -1h-156q-69 63 -70 64l-67 -64h-161q-1 0 -1 1q144 129 150 134q-5 6 -96 87l-15 14v49v5h-46q-1 0 -1 1v92q0 2 1 2h45q1 0 1 1v16v3h1
h111q1 0 1 -1v-19h141v20q0 2 1 2h111zM504 182q0 -1 74 -66q60 53 67 60v26h-141v-20z" />
    <glyph glyph-name="uni51C6" unicode="&#x51c6;" 
d="M210 449l-44 352h101l44 -352h-101zM519 801l-39 -92v-34h354v-81h-138v-133h123v-81h-123v-134h123v-83h-123v-137h138v-83h-354v-22h-113v647h-67l96 233h123zM591 715v35l105 51v-86h-105zM480 461h111v133h-111v-133zM480 246h111v134h-111v-134zM166 -81l41 457h101
l-41 -457h-101zM480 26h111v137h-111v-137z" />
    <glyph glyph-name="uni51C7" unicode="&#x51c7;" 
d="M368 392l5 40l8 82l11 103l4 52v1h-26v68h18q16 0 16 1l2 26l3 28l1 2h111v-2l-2 -26l-1 -26v-3h307v-68h-315v-4q-3 -8 -12 -89l-1 -19l-3 -17q-1 -17 -3 -29l-2 -31v-4h54v156h20q5 1 59 1h36v-157h165v-98h-165v-460h-115v460h-177l2 4v9zM215 559l-2 10l-2 12l-4 27
l-6 24l-8 41l-1 10l-3 11q-1 5 -1 10v7l-3 12l-2 12l-2 11l-1 5l-7 38l-1 2h52l53 -1l44 -250l19 -93l-28 -2h-78l-8 49l-8 48q-1 5 -3 17zM213 98l8 90v3q0 4 1 9q1 14 3 32l7 63l8 82l1 4v2q0 1 48 1h51l-2 -1l-6 -64l-3 -34l-3 -31q-3 -39 -5 -58l-5 -56l-6 -54l-9 -84
l-1 -16l-2 -17l-5 -51q-1 -1 -49 -1h-49v5l6 61q8 68 12 115zM353 -81l3 22l14 124l16 123l2 20l1 16l3 24l4 31l4 28q1 3 1 12l1 14l2 2h97v-3l-2 -15l-1 -6l-1 -8q0 -15 -2 -19l-6 -49l-7 -72q-7 -40 -12 -87l-1 -19l-3 -18l-4 -32l-9 -85l-2 -4h-71q-26 0 -27 1zM744 -42
l-1 7l-1 6l-2 11l-1 11l-1 14l-2 12l-8 67q-2 10 -4 27l-2 14l-2 15l-4 25l-1 25l-3 26l-2 22l-6 43l-4 25q0 1 -2 17l-2 8h86l2 -24q0 -3 1 -10q1 -10 3 -22l11 -85l10 -85l23 -184v-1h-82l-3 8v7l-1 5q-1 7 -2 16z" />
    <glyph glyph-name="uni51C9" unicode="&#x51c9;" 
d="M406 739h176v15l105 51v-66h145v-93h-426v93zM332 448h-100l-66 353h98zM569 285h-137v309h383v-309h-145v-370h-101v370zM711 502h-178v-121h178v121zM281 -82h-98l45 462h100zM468 -85h-76l30 315h76zM836 -85h-73l-30 315h75z" />
    <glyph glyph-name="uni51CC" unicode="&#x51cc;" 
d="M644 800q2 0 2 -1v-38h169q2 -1 2 -2v-93q0 -1 -2 -1h-169v-31h185q1 -1 1 -2v-93q0 -1 -1 -1h-488q-2 0 -2 1v93q1 2 2 2h189v31h-174v94q0 2 1 2h173v38q0 1 1 1h111zM268 775q2 0 6 -30q1 -5 58 -311h-1h-99q-2 0 -9 43q-2 6 -55 298h1h99zM531 519q-48 -93 -50 -96
h-122q-1 0 -1 2l50 95h122q1 0 1 -1zM766 520q5 -4 24 -44q2 -3 27 -51l-1 -1h-120q-1 0 -50 95l2 1h118zM526 407l-7 -17h278q1 0 1 -1v-93q0 -3 -16 -23q-81 -102 -127 -162l171 -192q5 -5 5 -7h-139l-102 116h-1q-78 -101 -91 -116h-147q-1 0 -1 1l164 202v1l-140 160v1
h134l72 -80q66 80 78 97h-295h-1l43 113h119h2zM332 373q-45 -444 -47 -461h-99q-1 0 -1 1q45 454 47 461h99q1 0 1 -1z" />
    <glyph glyph-name="uni51CF" unicode="&#x51cf;" 
d="M772 648v-233l55 45v-149l-55 -45v-177l38 -177h-114l-37 177v559h-197v-736h-120v834h317v53h113v-28l58 28v-151h-58zM229 436l-64 342h102l63 -342h-101zM642 503h-169v99h169v-99zM473 67v369h169v-369h-169zM284 -88h-101l46 464h101zM551 165h14v171h-14v-171z" />
    <glyph glyph-name="uni51D1" unicode="&#x51d1;" 
d="M568 622h255v-99h-292l-13 -36h306v-98h-52l52 -69h-117l-52 69h-173l-26 -69h-117l26 69h-26v98h62l14 36h-76v99h113l13 36h-126v98h163l15 40h116l-15 -40h206v-98h-242zM325 443h-100l-63 341h101zM325 385l-46 -462h-100l46 462h100zM824 -89h-117l-104 149h-81
l-76 -149h-107l77 149h-77v99h128l24 46h-127v97h435v-97h-202l-24 -46h250v-99h-104z" />
    <glyph glyph-name="uni51DD" unicode="&#x51dd;" 
d="M596 705v98h240l-53 -210h-138l-44 65h92l12 47h-109zM561 789v-100l-105 -16v-27h97v-98h-213v251h116v-28zM228 440l-62 342h101l62 -342h-101zM667 17v456h-85v99h254v-199h-67v100h-19v-182h86v-99h-86v-175h86v-100h-262v483h72v-383h21zM400 319v72h-69l34 127h81
l-6 -24h121v-98h-61v-77h61v-99h-71l-9 -36h37l51 -266h-100l-24 125l-32 -126h-100l78 303h-51v99h60zM182 -83l46 463h101l-46 -463h-101z" />
    <glyph glyph-name="uni51E0" unicode="&#x51e0;" 
d="M830 -81h-209v788h-263v-503l-68 -285h-114l67 285v600h378v1h114v-789h95v-97z" />
    <glyph glyph-name="uni51E1" unicode="&#x51e1;" 
d="M290 -83h-117l58 326v562h530v-786h74v-102h-74v-2h-115v787h-296v-460zM499 269l-135 363h124l136 -363h-125z" />
    <glyph glyph-name="uni51E4" unicode="&#x51e4;" 
d="M318 132q-2 0 -6 -10l-2 -7l-3 -8l-5 -19l-5 -17l-7 -19q-4 -25 -12 -42l-15 -48l-10 -32l-3 -13v-2h-88v100l9 29l6 15l4 12l2 12q2 5 3 15l3 10l4 12l9 28v646h20q19 0 19 1t223 1q89 0 151 1q55 0 72 1q0 2 58 2h59v-789h33v-98h-152v394l2 390h-369v-565zM315 -73
l1 3l2 4l1 5l3 6l4 10l5 11l5 13l4 9l7 15l3 8l4 8l4 11l4 10l22 56l14 31q5 19 14 36l6 13l5 11l4 10l4 11l3 5l1 4l3 8q1 1 -14 38l-18 56l-6 12l-5 14l-5 13l-4 12l-4 10l-1 3l-1 3l-18 50v106l-2 104l14 1h269v-102l1 -105l-12 -26q-20 -54 -49 -123l-28 -64l29 -79
l5 -14l6 -15l5 -13l4 -12l15 -38l49 -133l3 -6h-60l-59 1l-9 25l-30 80l-18 52v1l-23 -49l-12 -28l-5 -12l-4 -11l-3 -9l-4 -9l-2 -7l-1 -2l-1 -2l-13 -30h-116q0 2 4 10zM513 408l14 29v112h-26q-23 0 -23 -2q-1 -1 0 -55v-56l20 -55l2 -4l3 4l2 8l4 9z" />
    <glyph glyph-name="uni51EB" unicode="&#x51eb;" 
d="M315 799l-10 -30h422q1 0 1 -1v-229q-2 -4 -18 -65h-1h-114h-1q17 67 17 71v128h-294v-216h515q1 0 1 -1v-250q0 -5 -17 -70h-116l-1 1q18 65 18 70v154h-515q-1 0 -1 2v308h-27q-2 0 -2 1q41 119 45 128h97q1 0 1 -1zM497 663q2 -2 42 -118q1 -1 3 -10l-1 -1h-96
q-3 0 -15 40q-28 78 -31 89h98zM669 337q1 0 1 -2v-322h162q1 0 1 -1v-94q0 -1 -1 -1h-278q-1 0 -1 1v323h-193v-167q-1 -5 -54 -120q-18 -40 -19 -40h-115l-1 1q69 149 73 160v27q0 78 -1 230q1 5 2 5h424z" />
    <glyph glyph-name="uni51ED" unicode="&#x51ed;" 
d="M459 520l-82 2v94h163v32q0 34 -1 35h-8l-3 -2h-8l-10 -1l-32 -3l-36 -4q-17 -2 -31 -3q-5 -1 -9 -1h-5v96h4l92 8q111 12 126 12h7l8 1l9 2h9l24 2l27 3l36 3l74 8v-95q0 -1 -30 -4l-80 -8l-14 -1l-14 -1l-11 -2l-9 -1q-1 -3 -1 -37v-39h175v-94l-88 -2h-87v-70h175v-96
h-452v96h163v70h-81zM181 625l7 10l5 10l5 8l3 8l3 6l2 2q1 2 3 4l20 38l35 63h121q0 -1 -4 -8q-6 -11 -14 -21q-1 -3 -6 -13l-3 -5l-3 -4l-2 -4l-1 -2l-2 -4l-17 -32v-318h-113v200h-52v36zM668 64v146h-306v-84h-1q-2 0 -4 -2l-2 -7q-1 -7 -6 -21l-3 -11l-3 -11l-5 -13
l-5 -20l-4 -11l-4 -10l-4 -16l-4 -16l-23 -73h-54q-58 0 -58 1l4 13q1 1 6 16l2 7l2 8l2 9l3 9q16 60 40 135l8 27v162h12q13 0 13 3q0 1 197 1t197 1q0 2 56 2h56l1 -151v-150h31v-95h-146l1 2q1 1 1 149z" />
    <glyph glyph-name="uni51EF" unicode="&#x51ef;" 
d="M790 805v-799h23q1 0 1 -1v-98q0 -1 -1 -1h-132q-1 0 -1 1v799h-40v-528q0 -5 -21 -271l-2 -1h-110q-1 0 -1 1q22 251 24 259l-2 8v631q1 1 2 1h259q1 0 1 -1zM385 610l1 -1h16v177l1 1h99v-135q0 -72 1 -142q-1 -1 -3 -1h-77q-61 0 -125 -1h-8q-7 0 -15 1q-6 -1 -34 -1
h-33q-20 0 -40 1v276q0 1 1 1h97q1 0 1 -1v-176h18q1 0 1 1v195h99v-195zM491 473v-277q0 -1 -1 -1h-204v-144l197 56l1 -1v-113q0 -2 -82 -24q-1 -1 -221 -63l-1 1v386q1 1 1 2h204v78h-212q-1 0 -1 2v98q0 1 1 1h317q1 0 1 -1z" />
    <glyph glyph-name="uni51F0" unicode="&#x51f0;" 
d="M776 800q1 0 1 -1v-787q0 -1 1 -1h41v-95q0 -1 -1 -1h-156q-1 0 -1 1v788h-342q-1 0 -1 -1v-627q0 -4 -37 -160l-1 -1h-114q-1 0 -1 1q36 157 36 160v723q0 1 1 1h574zM513 695q1 0 1 -1l-14 -39h147q1 0 1 -1v-322q0 -2 -1 -2h-312q-1 0 -1 2v322q0 1 1 1h65q2 0 16 39
l1 1h96zM437 539q0 -1 1 -1h106q1 0 1 1v25h-108v-25zM636 306q1 0 1 -1v-89q0 -1 -1 -1h-94v-32h84q1 0 1 -1v-88q0 -1 -1 -1h-84v-34h103q1 0 1 -2v-88q0 -1 -1 -1h-312q-1 0 -1 1v88q0 2 1 2h96v34h-76q-1 0 -1 1v88q0 1 1 1h76v32h-83q-1 0 -1 1v89q0 1 1 1h290z
M437 421h108v26h-108v-26z" />
    <glyph glyph-name="uni51F3" unicode="&#x51f3;" 
d="M253 648h-73v60h150l24 19h-174v75h309v-75l-90 -70h231l-123 145h115l28 -32l170 31v-69l-120 -22l23 -27l97 17v-69l-47 -7l42 -49h-115l-9 10h-383v2l-15 -12h-134zM779 345h-579v207h579v-207zM314 466v-34h352v34h-352zM821 194h-662v91h118l-15 45h124l15 -45h169
l16 45h124l-16 -45h127v-91zM821 13v-97h-162v161h-322v-63l-45 -99h-115l47 116v133h548v-151h49z" />
    <glyph glyph-name="uni51F6" unicode="&#x51f6;" 
d="M395 800q2 0 12 -27q79 -184 83 -194v0q94 220 96 221h114l2 -1q-144 -335 -153 -358q5 -14 150 -355h-1h-115q-1 1 -66 154q-25 60 -28 64q-90 -215 -94 -218h-115v0l152 356q-146 341 -152 358h115zM274 752q2 0 2 -1v-701h429v701q0 1 1 1h114q1 0 1 -1v-836
q0 -1 -1 -1h-114q-1 0 -1 1v40h-474q-1 1 -2 1h-69q-1 0 -1 1v794q0 1 1 1h114z" />
    <glyph glyph-name="uni51F8" unicode="&#x51f8;" 
d="M685 797v-1v-258h138l1 -1q-1 -154 -1 -237v-386q0 -1 -1 -1h-660q-1 0 -1 1v624h142q2 0 2 1v257v1q113 1 173 1q72 0 207 -1zM421 443q0 -1 -1 -1h-143v-433h430v433h-137q-1 0 -1 1v259h-148v-259z" />
    <glyph glyph-name="uni51F9" unicode="&#x51f9;" 
d="M453 392h78q2 26 2 28v359h295v-855h-669v854q0 1 1 1h293v-387zM711 34v660h-72q-1 -109 -1 -220v-164q-1 0 -1 -3h-291q-1 0 -1 1v386h-68v-660h434z" />
    <glyph glyph-name="uni51FA" unicode="&#x51fa;" 
d="M444 19v414h-281v337h113v-237h168v269h112v-269h168v237h113v-337h-281v-414h168v373h113v-474h-674v474h113v-373h168z" />
    <glyph glyph-name="uni51FB" unicode="&#x51fb;" 
d="M444 19v450h-281v95h281v74h-253v95h253v69h112v-69h253v-95h-253v-74h281v-95h-281v-450h154v389h112v-490h-644v490h112v-389h154z" />
    <glyph glyph-name="uni51FD" unicode="&#x51fd;" 
d="M469 612l12 28l12 26l4 10l3 9l9 20h-222v101h395l-1 -2v-2l-1 -3l-3 -8l-4 -9q-5 -11 -12 -28l-7 -17l-8 -19l-4 -13q-1 0 -3 -5q-4 -6 -7 -15l-32 -65l-30 -62l-8 -18v-244l-1 -243h-117v495l15 34q1 6 10 30zM186 656h189l9 -43l13 -55l6 -21l5 -18l3 -11l2 -8
q2 -8 3 -11l4 -17l4 -19l4 -14l3 -14l1 -3l1 -4q1 -6 2 -10l1 -4v-3l-16 -75q-17 -83 -24 -106l-8 -37l-1 -4l-1 -5q-1 -7 -2 -12l-1 -5v-4l-8 -35q-1 -1 -38 -1h-33v-103h394q3 0 3 52v51h-69l-8 44l-15 66q-2 2 -9 40l-11 53q-14 41 -15 61l-2 12l-2 11l4 16l22 85l26 107
l10 42q2 2 93 2h92v-743h-633v369q0 372 2 374zM317 246l2 10l2 10q8 43 15 64l16 73l-4 18l-1 7l-3 8l-3 9q-1 10 -8 32l-5 20l-5 22q-7 35 -13 59q-5 19 -6 20v-416l8 37l3 13l1 6zM701 279v319l-3 -2l-3 -11l-14 -60l-21 -85l-10 -37l11 -49l38 -170v55q0 30 2 40z" />
    <glyph glyph-name="uni51FF" unicode="&#x51ff;" 
d="M450 800q1 0 1 -1v-228h75v228q0 1 1 1h115q1 0 1 -1v-228h177q1 0 1 -1v-93q0 -1 -1 -1h-661q-1 0 -1 1v93q0 1 1 1h175v228q0 1 1 1h115zM287 778q2 0 9 -45q26 -131 26 -136h-103q-2 0 -6 24l-30 157h1h103zM797 777q-32 -173 -34 -180h-104q-1 0 -1 1q33 173 35 180
h103q1 0 1 -1zM427 460q1 0 21 -54l7 -18h79q0 2 27 72h103l2 -1q-24 -63 -27 -71h34q1 0 1 -1v-93q0 -2 -1 -2h-125v-64h110v-94q0 -1 -1 -1h-109v-72q0 -1 -1 -1h-114q-1 0 -1 1v72h-93q-1 0 -1 1v93q0 1 1 1h93v64h-108q-1 0 -1 2v93q0 1 1 1h25v1q-22 58 -26 70v1h104z
M298 411q1 0 1 -1v-381h396v381q1 1 2 1h114q1 0 1 -1v-237q0 -85 1 -236q-1 -5 -1 -22l-1 -1h-114q-2 0 -2 1v18h-221q-113 0 -291 -1q0 1 -1 1q1 161 1 239v238q0 1 1 1h114z" />
    <glyph glyph-name="uni5200" unicode="&#x5200;" 
d="M658 -81l61 238v555h-252l-174 -793h-124l177 793h-177v99h667v-686h-1l-48 -206h-129z" />
    <glyph glyph-name="uni5201" unicode="&#x5201;" 
d="M825 796q2 0 2 -1v-881q0 -1 -2 -1h-252q-1 0 -1 1v93q0 2 1 2h137v691h-546q-1 0 -1 2v93q0 1 1 1h661zM617 541v-148q-421 -338 -453 -363h-1v147q370 297 453 364h1z" />
    <glyph glyph-name="uni5203" unicode="&#x5203;" 
d="M830 804q2 0 2 -1v-703l-49 -183l-1 -1h-127q-1 0 -1 1q57 197 61 212v576h-167q-142 -757 -147 -788l-1 -1h-122q0 3 111 592l37 197h-212v98q0 1 1 1h615zM367 631q-2 -18 -79 -478l-1 -1h-116l-1 1l79 479h117q1 0 1 -1z" />
    <glyph glyph-name="uni5206" unicode="&#x5206;" 
d="M694 531l-68 165q0 1 -1 1h-258v-1l-69 -165h-124l112 272h432l109 -272h-133zM239 508h535v-479l-28 -121h-114l29 122v382h-265v-383l-28 -121h-112l27 122v382h-44v96z" />
    <glyph glyph-name="uni5207" unicode="&#x5207;" 
d="M234 -23q-1 0 -1 318v317h-75v98h75v88h118v-88h89v-98h-89v-562l1 1l44 8l43 7q1 0 1 -49l-1 -50l-33 -6l-42 -7l-122 -20l-4 -1h-3v21q0 23 -1 23zM470 -7l6 25l31 102l9 36v531h-44v100h369l-1 -73v-800h-118v773h-89v-545h-1q-1 0 -4 -4l-3 -15l-12 -39q0 -2 -1 -5
l-1 -4l-2 -5l-4 -16l-5 -16l-35 -124h-117l14 53z" />
    <glyph glyph-name="uni520A" unicode="&#x520a;" 
d="M702 -82v884h113v-884h-113zM308 518v181h-94v100h303v-100h-96v-181h127v-99h-127v-501h-113v501h-123v99h123zM581 317v232h88v-232h-88z" />
    <glyph glyph-name="uni5211" unicode="&#x5211;" 
d="M551 792q2 0 2 -1v-95q0 -2 -2 -2h-52l-1 -3v-287q0 -1 1 -1h39q2 0 2 -1v-96q0 -1 -2 -1h-40v-388h-111q-1 0 -1 1v387h-55v-146q-4 -38 -36 -242h-114v0q35 236 35 241v147h-34q-1 0 -1 1v96q0 1 1 1h34v291h-47l-1 1q1 46 1 72v25h382zM822 792q1 0 1 -1v-874
q0 -1 -1 -1h-77q-21 0 -64 1v1v93h26v780q0 1 1 1h114zM674 717q2 0 2 -1v-628h-108q-1 0 -1 1v627q0 1 1 1h106zM331 403h55v291h-55v-291z" />
    <glyph glyph-name="uni5212" unicode="&#x5212;" 
d="M509 -85h-121l-38 151l-61 -152h-124l138 338l-77 305l-61 -8v99l37 6l-37 148h120l34 -134l208 26v-99l-183 -24l34 -137l33 80h122l-109 -266zM399 747l1 1l115 54l2 -2v-88l-2 -1h-115l-1 1v35zM717 -88v890h117v-890h-117zM673 12h-117v691h117v-691z" />
    <glyph glyph-name="uni5217" unicode="&#x5217;" 
d="M264 325h-102l65 378h-61v96h459v-96h-258l-16 -93h208v-97l-115 -579v-13h-282v96h162l42 203zM838 799v-878h-181v97h67v781h114zM583 111v518h113v-518h-113zM396 371l29 142h-93l-12 -70z" />
    <glyph glyph-name="uni5218" unicode="&#x5218;" 
d="M394 727h147v-97h-30v-146q0 -1 -90 -221q36 -109 120 -354h-113q-2 6 -6 17q-1 1 -64 185h-1q-1 -3 -21 -53q-24 -60 -61 -149h-116q29 71 56 139q22 53 43 106q8 19 17 41l7 17l6 16q12 31 16 40q-2 4 -105 305q-2 6 -5 13q-1 4 -3 9q-3 9 -3 10l1 1h115q5 -15 14 -44
q20 -57 48 -141l36 89v120h-233v97h107v20q0 1 5 4q6 3 15 6q3 1 27 12q28 13 70 33v-73zM828 802v-893h-161v97h41v796l2 1h117zM677 84h-112v645h112v-645z" />
    <glyph glyph-name="uni5219" unicode="&#x5219;" 
d="M690 14h26v790h119v-886h-145v96zM358 62l-77 -144h-111l94 181h-79v688h343v-688h-86l124 -181h-111zM574 92v635h110v-635h-110zM285 688v-549l20 38v478h104v-502l-16 -30h33l1 -2v567h-142z" />
    <glyph glyph-name="uni521A" unicode="&#x521a;" 
d="M573 -88h-2v-2h-145v96h37v36h-80l-11 61l-10 -61h-84v-130h-111v888h408v-96h-2v-792zM688 8h26v792h118v-888h-144v96zM701 720v-634h-110v634h110zM355 666l17 -91l16 91h75v38h-185v-38h77zM330 344l-52 300v-587zM463 71v557l-49 -285z" />
    <glyph glyph-name="uni521B" unicode="&#x521b;" 
d="M727 86q-1 8 -1 82q-2 14 -2 93v101l-4 331v112h103v-53q0 -28 1 -36l1 -170v-34q0 -24 2 -40v-66q0 -105 1 -116l3 -355v-15h-103v97q-1 5 -1 69zM157 584l14 31l17 36l15 36l1 2l1 4l5 11l20 44l24 52q1 1 95 1h93l23 -44l2 -7l4 -8l7 -10l5 -12q15 -29 35 -73l33 -64
h-120l-4 10l-5 11l-11 21l-4 8l-4 8l-2 4l-1 3l-2 3l-24 49h-50l-8 -20l-26 -59l-16 -38h-58q-59 0 -59 1zM585 219q0 1 -1 26v27q-1 18 -1 37v86q-1 38 -1 115q-5 290 -4 291h50q7 -1 30 -1h21l5 -281l4 -290v-11h-52q-51 0 -51 1zM183 507h360q2 -2 2 -154v-155l-20 -17
l-8 -6l-10 -5l-10 -9l-10 -9l-17 -15h-144l4 4l3 3l4 2l12 14q3 3 11 9l4 2l1 2l45 40l15 13v180h-123l3 -196l4 -197q0 -1 118 -1h119v-100h-354v37l-4 290l-5 260v8z" />
    <glyph glyph-name="uni521D" unicode="&#x521d;" 
d="M287 714v36l119 55v-91h-119zM476 802h352v-887h-116v788h-61v-532h-2l-37 -256h-117l40 259v529h-59v99zM324 604h-111v98h233v-98h-18l-33 -90l101 54v-110l-64 -33l81 -173l-61 -70l-46 106v-373h-119v323l-25 -68l-99 14z" />
    <glyph glyph-name="uni5220" unicode="&#x5220;" 
d="M824 800q1 0 1 -1v-882q0 -1 -1 -1h-61q-18 0 -51 1v93q1 1 2 1h18q1 0 1 2v786q0 1 1 1h90zM254 799h35h36h62q1 0 1 -1v-324h24v323q0 2 1 2h197l1 -1v-240v-84h13q1 0 1 -2v-96q0 -1 -1 -1h-13v-456q0 -2 -2 -2h-87v457q0 1 -1 1h-18v-285q0 -4 -22 -172l-1 -1h-91
q20 156 22 170q1 0 1 1v287h-24v-456q0 -1 -1 -1h-88v457h-19v-283q0 -9 -22 -175h-1h-1h-89q-1 0 -1 2q21 166 23 170v286h-22q-1 0 -1 1v96q0 2 1 2h22v325h6h59zM717 725q1 0 1 -2v-672q0 -2 -1 -2h-85v674q0 2 1 2h84zM503 474h18q1 0 1 1v228h-19v-229zM280 474h19v229
h-19v-229z" />
    <glyph glyph-name="uni5224" unicode="&#x5224;" 
d="M415 532h127v-99h-127v-92h127v-98h-150l-101 -330q0 -3 -1 -3h-116v1q98 320 101 332h-104v98h127v92h-127v99h127v271h117v-271zM266 740q0 -6 18 -171h-104q-1 0 -4 29q0 2 -4 44l-2 11l-1 12q-1 15 -3 28q-3 36 -7 71h103q1 0 4 -24zM538 569h-103q20 186 21 195h102
zM569 83q-1 0 -1 1v643h112v-644h-111zM826 -90h-160v96h41v796h119v-892z" />
    <glyph glyph-name="uni5228" unicode="&#x5228;" 
d="M829 805q1 0 1 -1v-649q0 -88 1 -242l-1 -1h-81q-20 0 -62 1l-1 1v93q0 2 1 2h24q1 0 1 1v794q0 1 1 1h116zM312 804q-2 -12 -6 -28h246v-499q-6 -21 -48 -149h-132q-1 0 -1 1l56 157v392l-4 1h-134q-6 0 -6 -12q-5 -23 -6 -23h-114q-1 0 -1 1l34 160h116v-1zM679 729
q1 0 1 -1v-641h-110q-1 0 -1 1v640q0 1 1 1h109zM412 622q1 1 2 1v-2v-324l-1 -2v-27q0 -1 -1 -1h-118q-1 -1 -1 -2v0q0 -15 -13 -255h288q2 0 2 -1v-94q0 -2 -2 -2h-129h-274h-1l20 351v215q0 33 -1 69q1 0 1 51v23h66q52 0 112 1q14 -1 50 -1zM293 365q0 -1 1 -1h30l1 3
v157q0 1 -1 1h-30q-1 0 -1 -1v-159z" />
    <glyph glyph-name="uni5229" unicode="&#x5229;" 
d="M166 -81l23 627h-26v98h128v61h-128v97h365v-97h-133v-61h133v-98h-31l23 -627h-88l-23 627h-14v-628h-104v628h-15l-22 -627h-88zM721 -81v882h116v-882h-116zM553 94v632h112v-632h-112z" />
    <glyph glyph-name="uni522B" unicode="&#x522b;" 
d="M519 803v-346h-6l-3 -1h-150q-11 -63 -11 -64h166q2 0 2 -1v-483q0 -2 -2 -2h-175l-2 2v95h67v292h-71q-48 -316 -61 -389h-113q0 2 17 106l18 120q13 79 26 163h-60q-1 0 -1 1v95q0 1 1 1h75q9 60 9 64h-50q-2 0 -2 1h-5v346q0 2 1 2h329zM827 803v-895q0 -2 -1 -2h-159
v75q0 3 2 21h41v803h116q1 -1 1 -2zM674 726v-664q0 -1 -1 -1h-115q-1 0 -1 1v664q0 2 1 2h115q1 0 1 -2zM400 556q1 0 1 1v147q0 1 -1 1h-92q-2 0 -2 -1v-148h94z" />
    <glyph glyph-name="uni522E" unicode="&#x522e;" 
d="M527 703q-20 -2 -55 -5q-4 -1 -60 -6v-106h126q2 0 2 -1v-94q0 -2 -2 -2h-126v-96l1 -1h131v-486h-377q-1 0 -1 2v480q0 4 1 4h131v97h-124q-2 0 -2 2v94q0 1 2 1h124v94q-2 0 -35 -4l-8 -1l-10 -1q-12 -1 -22 -2l-56 -6l-1 2v98q0 1 57 7q1 0 322 32v-99q0 -1 -18 -3z
M819 803v-895q0 -2 -1 -2h-140q-1 0 -1 2v94q0 1 1 1h24v800q0 2 1 2h115q1 0 1 -2zM672 728v-645q0 -1 -2 -1h-105q-1 0 -1 1v645q0 1 1 1h105q2 0 2 -1zM432 6v284h-154v-284h154z" />
    <glyph glyph-name="uni5230" unicode="&#x5230;" 
d="M202 242q-1 0 -1 2v92q0 1 1 1h126v98h-143l55 267h-74v96h394q3 0 3 -3v-92q0 -1 -3 -1h-197l-35 -173h113l-28 146h98l52 -240h-139v-98h128q1 0 1 -1v-92q0 -1 -1 -2h-128v-225h165v-96h-423v96h162v225h-126zM724 -81v882h110v-882h-110zM583 29v665h110v-665h-110z
" />
    <glyph glyph-name="uni5236" unicode="&#x5236;" 
d="M554 -90h-105v411h-27v-409h-106v409h-28v-411h-105v509h133v44h-133v99h133v56h-41l-7 -35h-106l41 212h106l-14 -79h21v89h106v-89h131v-98h-131v-56h131v-99h-131v-44h131v-12h1v-497zM729 -89v894h103v-894h-103zM698 35h-104v676h104v-676z" />
    <glyph glyph-name="uni5237" unicode="&#x5237;" 
d="M827 -85l-139 -1v94h37v791h102v-884zM289 529v-399l-31 -215h-96l31 215v656h401v-258zM608 66v657h101v-657h-101zM289 625h193v66h-193v-66zM591 465v-411h-1l-16 -97h-87l17 104v312h-17v-458h-88v458h-16v-416h-87v508h87v-1h16v48h88v-48h17v1h87z" />
    <glyph glyph-name="uni5238" unicode="&#x5238;" 
d="M744 432l83 -114h-45v-278h-2l-47 -126h-129l61 155v163l-233 -1l-125 -317h-122l123 317h-106v87h-37l67 114h-66v98h123l43 73h-154v99h82l-37 97h124l37 -97h6l58 98h124l-58 -98h100l38 97h124l-38 -97h73v-99h-355l-43 -73h414v-98h-83zM355 432l-60 -103h51l25 65
l125 -1l-25 -64l212 1l-76 102h-252z" />
    <glyph glyph-name="uni5239" unicode="&#x5239;" 
d="M540 796v-1l-116 -150q17 -21 116 -153h-1h-137v-1q6 0 6 -1v-41h133q1 0 1 -1v-95q0 -1 -1 -1h-133v-433q0 -1 -1 -1h-103v434h-136q-1 0 -1 1v95q0 1 1 1h136v41h-139q-1 0 -1 2q3 3 119 153q-1 1 -113 149v1h140q5 -6 44 -58h1q38 51 46 59h139zM822 795q2 0 2 -2
v-874q0 -2 -2 -2h-78q-24 0 -63 1v94h25q1 0 1 1v780q0 2 1 2h114zM675 720q1 0 1 -1v-628q0 -2 -1 -2h-108v630q0 1 1 1h107zM305 492v-1h94v1q-43 56 -45 61h-2q0 -1 -47 -61zM423 326h91q3 0 4 -35q9 -107 28 -372l-1 -1h-93q-1 0 -1 2l-30 406v1zM293 326v-1l-30 -406
l-1 -1h-93q-1 0 -1 1q28 379 31 407h94zM400 491h1v1h-1v-1z" />
    <glyph glyph-name="uni523A" unicode="&#x523a;" 
d="M307 538h-30v-196h-109v294h139v35h-139v98h139v39h109v-39h135v-98h-135v-35h135v-188l-19 -106h-104l22 106v90h-34v-621h-109v621zM688 13h27v795h117v-891h-144v96zM571 92v640h112v-640h-112zM418 325h100l42 -408h-102zM166 -83l38 406h99l-33 -406h-104z" />
    <glyph glyph-name="uni523B" unicode="&#x523b;" 
d="M283 731v18l119 54v-72h-119zM834 802v-884h-1v-1h-168v98h52v787h117zM551 95v632h110v-632h-110zM264 626h-94v97h346v-97h-134l-95 -150h56l59 98h117l-236 -392h-117l118 197h-114v97zM460 174l91 -251h-119l-56 156l-93 -160h-117l236 404h117l-87 -149h28z" />
    <glyph glyph-name="uni523D" unicode="&#x523d;" 
d="M413 796h61q1 0 22 -59q1 -1 68 -187h-1h-120q-2 1 -30 79q-23 65 -26 69h-47q-52 -145 -54 -148h-121q-1 0 -1 1l90 245h61q33 0 49 1q18 -1 49 -1zM824 797q1 0 1 -1v-882q0 -1 -1 -1h-142q-1 0 -1 1v93q0 1 1 1h24q1 0 1 2v786q0 1 1 1h116zM677 721q1 0 1 -1v-633
q0 -1 -1 -1h-108q-1 0 -1 1v633q0 1 1 1h108zM531 488q2 0 2 -1v-97q0 -1 -2 -1h-346q-1 0 -1 1v97q0 1 1 1h346zM550 323q1 0 1 -2v-96q0 -1 -1 -1h-174q-5 -15 -74 -212h122q-5 19 -18 81h1h114q2 0 13 -55q2 -6 28 -124l-1 -1h-376q-1 0 -1 1v96q0 1 75 214h-89
q-2 0 -2 1v96q1 2 2 2h380z" />
    <glyph glyph-name="uni5241" unicode="&#x5241;" 
d="M471 802h32v-151h33v-98q0 -2 -1 -2h-138v152h-109v-49q-2 -17 -21 -101h-108v1q23 110 23 111v135q1 2 1 3h285q1 -1 3 -1zM395 506h114v-100h-114v-499h-105v499h-133v100h129q4 0 4 2v45h105v-47zM255 -26q-2 -27 -3 -49q-1 -8 -1 -13v-5h-94q22 328 26 397q6 60 6 64
h93q-3 -48 -27 -394zM501 343q1 -26 4 -70q8 -113 19 -275q1 -20 2 -39l2 -28l1 -24h-93q-6 80 -14 205l-7 99l-7 97l-4 60h95q0 -1 2 -25zM827 -91h-46l-2 -2h-113v97h42v802h119v-897zM676 80h-112v649h112v-649z" />
    <glyph glyph-name="uni5242" unicode="&#x5242;" 
d="M318 370v83q1 4 1 28v42h-44v-199h-103v303l18 2h52q33 0 33 -2h44v27h-151v102h153v15q1 2 1 15v18h43q54 0 57 -1h17v-47h123v-102h-124v-27h34q0 2 43 2h44v-305h-87v199h-36v-29l-2 -271l-2 -277l-1 -36h-117v45l3 302q0 98 1 113zM712 804h118l-4 -447v-140
q-4 -125 -4 -285v-22h-117v34l3 401l4 298v161zM173 43v21l1 23l2 29v28q0 41 1 48l4 113q0 1 5 1q13 0 15 -1h78v-11l-1 -53l-1 -28l-2 -30v-38l-1 -41q-3 -184 -4 -185v-5h-100v4l2 84v17q0 19 1 24zM526 -85l-7 31l-16 80l-24 110l-19 97l-1 11l-3 11l-1 7l-1 7q0 2 36 3
h44l9 -52l4 -27l7 -28l13 -66l27 -125l3 -22l4 -20q1 -6 2 -11l1 -3l1 -3v-1h-39q-40 0 -40 1zM591 187v565h89v-565h-89z" />
    <glyph glyph-name="uni5243" unicode="&#x5243;" 
d="M569 468v-24h-131v-78h131v-77h1v-238h-1l-25 -132h-103l25 132h2v217h-30v-347h-101v322l-50 -324h-115l53 341h112v8h-165v274h165v77h-165v99h63l-39 92h124l39 -92h38l39 92h125l-39 -92h48v-250h-1zM695 19h46v791h97v-889h-143v98zM709 730v-672h-99v672h99z
M468 542v77h-30v-77h30zM337 366v78h-62v-78h62z" />
    <glyph glyph-name="uni524A" unicode="&#x524a;" 
d="M542 38l-24 -127h-129l37 155v86h-136v-238h-117v699h136l-1 189h107l2 -189h126v-575h-1zM829 -86h-143v96h26v789h117v-885zM167 782h105l26 -147h-105zM559 782l-26 -147h-106l27 147h105zM680 725v-638h-110v638h110zM290 444h136v70h-136v-70zM426 345h-136v-94h136
v94z" />
    <glyph glyph-name="uni524D" unicode="&#x524d;" 
d="M565 91v354h97v-354q0 -1 -1 -1h-93q-3 0 -3 1zM415 802v-72h185v19l114 53v-72h113v-97h-654v97h127v19zM545 -82h-141v97h27v99h-123v-196l-114 1l-3 673h354v-674zM805 592v-674h-143v97h28v577h115zM308 431h123v65h-123v-65zM308 208h123v127h-123v-127z" />
    <glyph glyph-name="uni5251" unicode="&#x5251;" 
d="M412 799h60q2 0 10 -25q3 -6 82 -222h-2h-120q-3 2 -16 41q-2 3 -40 107h-48q-1 -5 -54 -148h-122h-1l91 247h61q34 0 49 1q18 -1 50 -1zM824 800q1 0 1 -1v-886q0 -1 -1 -1h-142q-1 0 -1 1v94q0 1 1 1h25v791q0 1 2 1h115zM677 724q1 0 1 -1v-636q0 -2 -1 -2h-108
q-1 0 -1 2v636q0 1 1 1h108zM542 528q1 -1 1 -2v-96q0 -2 -1 -2h-366q-2 0 -2 2v96q1 2 2 2h366zM278 401q2 0 5 -68q1 -2 15 -239l-2 -1h-95q-2 0 -4 53q-2 32 -14 253v1l1 1h94zM392 401q1 0 1 -1q19 -300 19 -306h1l-2 -1h-95q-3 0 -4 48q0 3 -14 259l1 1h93zM531 401
l1 -1q-1 -4 -1 -5q0 -11 -10 -301l-2 -1h-89l-1 1q1 8 11 306l2 1h89zM566 59v-97q0 -2 -36 -5q-1 0 -366 -45l-1 1v97q0 2 56 7q31 5 346 43z" />
    <glyph glyph-name="uni5254" unicode="&#x5254;" 
d="M522 798q2 0 2 -1v-52q0 -37 -1 -56q1 -22 1 -57v-17q0 -33 -1 -49q1 -18 1 -49v-56q0 -3 -2 -4h-335q-2 0 -2 1v339q1 1 2 1h335zM823 798q1 0 1 -1v-646v-237l-1 -1h-142q-1 0 -1 1v93q0 2 1 2h26v788q0 1 1 1h115zM674 722q1 0 1 -1v-634q0 -1 -1 -1h-108q-1 0 -1 1
v634q0 1 1 1h108zM311 448q0 -3 -3 -15h231q1 0 1 -1v-403q-2 -10 -40 -116h-109l-1 1q44 116 46 123v300h-6q-60 -416 -62 -424h-93l-2 1l63 423h-15q-60 -414 -62 -424h-93q-1 0 -1 1q52 359 55 383h-57q-1 0 -1 1l41 150h108v0zM287 674h135v29h-135v-29zM287 553h135v26
h-135v-26z" />
    <glyph glyph-name="uni5256" unicode="&#x5256;" 
d="M417 795v-58q0 -1 1 -1h123q1 0 1 -1v-96q0 -1 -1 -1h-350q-1 0 -1 1v96q0 1 1 1h124v17q7 4 101 43zM831 769q1 0 1 -2v-853q0 -1 -1 -1h-142q-1 0 -1 1v93q0 2 1 2h25v758q0 2 1 2h116zM689 674q2 0 2 -1v-619q0 -2 -2 -2h-107q-2 0 -2 2v619q1 1 2 1h107zM316 603
q2 0 15 -61q3 -10 18 -72h42q6 27 29 131h108l1 -1l-29 -130h60q1 0 1 -1v-96q0 -2 -1 -2h-390q-1 0 -1 2v96q0 1 1 1h70q-29 119 -32 132l2 1h106zM530 336q2 0 2 -1v-421q0 -1 -2 -1h-333q-1 0 -1 1v421q0 1 1 1h333zM310 11h106q1 0 1 1v226h-106q-1 0 -1 -1v-226z" />
    <glyph glyph-name="uni5265" unicode="&#x5265;" 
d="M529 798q1 0 1 -1v-295h21q2 0 2 -2v-95q0 -1 -2 -1h-143v-346q0 -2 1 -3l-37 -141l-1 -1h-114l-1 1q37 136 38 143v347h-147q-1 0 -1 1v95q0 2 1 2h268v50h-239q-1 0 -1 1v96q0 1 1 1h238q1 0 1 1v49h-256q-1 0 -1 2v95q0 1 1 1h370zM846 798q2 0 2 -1v-645v-238l-1 -1
h-150q-2 0 -2 1v94q1 1 2 1h26v788q1 1 2 1h121zM692 723q1 -1 1 -2v-634q0 -1 -1 -1h-115q-1 0 -1 1v634q0 2 1 2h115zM252 374q2 0 6 -37q2 -5 25 -154h-1h-92q-3 0 -5 22q-2 13 -24 168l1 1h90zM543 372l-28 -189h-1h-92q-1 0 -1 1q29 185 30 190h91q1 -1 1 -2zM284 152
l-42 -221h-1h-94q-1 0 -1 1q43 217 44 221h92q2 0 2 -1zM513 153q1 0 11 -54q1 -1 34 -168h-2h-93q-3 0 -7 28q-4 16 -36 194h1h92z" />
    <glyph glyph-name="uni5267" unicode="&#x5267;" 
d="M264 -88h-98l24 247v644h363v-244h-263v-400zM694 7h24v791h109v-887h-133v96zM581 84v638h103v-638h-103zM290 655h167v49h-167v-49zM473 382v-64h75v-407h-242v407h75v64h-75v99h75v50h92v-50h75v-99h-75zM456 8v213h-59v-213h59z" />
    <glyph glyph-name="uni5269" unicode="&#x5269;" 
d="M416 -83h-105v619h-143v96h143v47l-133 -14v98l355 37v-97l-117 -13v-58h126v-96h-126v-619zM834 -84h-116v1h-27v95h27v780h116v-876zM686 717v-628h-109v628h109zM518 317h27v-95h-112v95h1v191h84v-31l27 5v-96l-27 -4v-65zM211 378l-32 7v94l32 -5v32h85v-285h-4v-1
h-114v95h33v63zM297 188l-9 -132l-25 -139h-95l26 144l10 127h93zM561 -83h-95l-25 139l-9 132h94l10 -127z" />
    <glyph glyph-name="uni526A" unicode="&#x526a;" 
d="M580 747v4q2 2 94 44l24 11v-59h131v-100q0 -1 -2 -1h-671v101h128v4q1 0 7 3q7 4 18 9q30 14 70 32q16 7 24 11v-59h177zM498 333q-9 -75 -10 -75h-101q6 59 6 62h-98v-62h-101v376h304v-301zM809 140h-2v-234h-154v100q0 1 1 1h35v133h-313l-63 -226q-1 -7 -2 -7h-119
l66 233h-80v99l1 1h630v-100zM795 255h-112v371h112v-371zM649 280h-112v332h112v-332zM397 522v23h-102v-23h102zM397 409v24h-102v-24h102z" />
    <glyph glyph-name="uni526F" unicode="&#x526f;" 
d="M514 804v-98h-335v98q0 2 1 2h333q1 0 1 -2zM832 804v-896h-161q-1 0 -1 2v94q0 2 1 2h40q1 0 1 1v799h119q1 -1 1 -2zM680 726v-650q0 -1 -1 -1h-110q-2 0 -2 1v651h112q1 0 1 -1zM501 679v-285q0 -1 -2 -1h-307v287h307q2 0 2 -1zM298 493h98v86h-98q-1 0 -1 -1v-84
q0 -1 1 -1zM525 366v-455q0 -1 -2 -1h-366q-1 0 -1 1v455q0 2 1 2h366q2 0 2 -2zM290 10q2 0 2 1v78q0 2 -2 2h-38v-81h38zM290 192l2 4v70h-40v-74h38zM430 192v74h-44v-74h44zM430 10v81h-44v-81h44z" />
    <glyph glyph-name="uni5272" unicode="&#x5272;" 
d="M329 767l26 12q8 3 35 16l10 5l10 5l3 1h3l3 1q2 0 2 -36v-33h127v-118h-113v10l-1 11h-145v-21h-113v118h129v17zM558 605q0 1 33 11l23 8l10 2l8 3q14 3 15 4l11 3l12 5v-623h-114v293q0 292 2 294zM246 347q-58 0 -58 1q-2 0 -2 48v48h119v41h-60l-59 2v95h119v40h114
v-40h103v-97h-103v-41h103l-2 -48v-49h-101v-33h103v-96h-336v96h119v33h-59zM305 184q4 -1 52 -1q47 0 52 1q0 3 57 3h56v-275h-332v275h58q54 0 57 -3zM813 -87h-112l-1 421v420h113v-841zM305 87v-80l50 2h54v78h-104z" />
    <glyph glyph-name="uni527F" unicode="&#x527f;" 
d="M292 800q0 -1 -37 -88l37 -106v-1h-107q-2 0 -15 39q-19 52 -24 67q36 86 39 90h107v-1zM429 800q0 -1 -38 -89q36 -98 38 -106h-107q-2 0 -15 38q-2 6 -25 68q37 86 39 90h108v-1zM563 800q-8 -19 -38 -88q38 -105 38 -107h-107q-2 1 -15 37q-20 56 -24 69q36 85 38 90
h108v-1zM850 801q1 0 1 -1v-886q0 -1 -1 -1h-150q-1 0 -1 1v94q0 1 1 1h34v791q0 1 1 1h115zM700 725q1 0 1 -1v-636q0 -1 -1 -1h-108q-2 0 -2 1v636q1 1 2 1h108zM537 590v-1q1 -50 1 -78v-250q0 -2 -1 -2h-140v-14h141q1 0 1 -1v-90q0 -2 -1 -2h-141v-237q0 -1 -1 -1h-98
q-2 0 -2 1v237h-149q-1 0 -1 2v90q0 1 1 1h149v14h-135l-1 1q0 10 -1 20q1 113 1 154q0 36 -1 114q1 14 1 41q1 1 2 1h184h191zM252 466h44v33q0 1 -1 1h-43v-34zM397 466h45v34h-43q-2 0 -2 -1v-33zM288 138q1 0 1 -1q-32 -216 -33 -222h-107l-1 1l36 222h1h103zM525 138
q3 0 10 -53q20 -121 27 -170h-107q-1 0 -7 42q-2 10 -26 181h1h102zM252 350h44v26h-44v-26zM397 350h45v26h-45v-26z" />
    <glyph glyph-name="uni5288" unicode="&#x5288;" 
d="M526 308v96h97l1 24v25h-98v96h19q21 0 21 1l-8 30l-8 25l-4 9l-1 8l-2 4l-1 6l-7 22h-8l-1 48v48h90v3q0 1 7 5l3 1l4 2q1 1 3 2q3 2 6 3l25 11l32 14l34 16l1 -1v-56h102v-96h-13l-12 -53l-11 -51q0 -1 19 -1h17v-96h-95v-49h95v-96h-95v-53h-114v26l-1 26l-48 1h-49z
M414 762h83v-237l-221 -1v-273h-113v512h85q16 -1 166 -1zM698 550l1 7l11 51l9 46h-84l1 -5l4 -9l2 -4l1 -6l4 -12l7 -22l5 -24l1 -6l2 -4l2 -5l2 -4l1 -3q0 -1 15 -1t16 1zM373 99l-9 -44l-12 -52l-20 -86h-56l-58 -2l10 38q0 3 2 14q3 14 8 34l11 49l12 57h-45l-47 1
l-1 47q0 48 1 49h642v-48q0 -46 -2 -48q-1 -1 -1 -97v-98h-112v194h-322v-3zM276 621h108v45h-108v-45zM322 395v95h175v-239h-175v97h70v47h-70z" />
    <glyph glyph-name="uni529B" unicode="&#x529b;" 
d="M182 738h60v64h126v-64h455v-820h-230v96h113v627h-338v-429l-64 -294h-126l64 294v429h-60v97z" />
    <glyph glyph-name="uni529D" unicode="&#x529d;" 
d="M654 795q1 0 1 -1q-3 -49 -4 -51h189q1 -1 1 -2v-652q0 -7 -40 -175h-128h-1q48 186 48 189v543v2q-26 -1 -38 -1h-37q-51 -724 -51 -733l-2 -1h-120q-1 0 -1 1q1 34 51 733h-50q-1 0 -1 1v93q0 2 1 2h57v0l3 51l1 1h121zM436 768q2 0 2 -1v-95q0 -2 -66 -266
q-22 -89 -23 -90q97 -380 103 -403h-119q-2 0 -17 61q-18 70 -26 103v0q-41 -163 -41 -164h-105q-1 0 -1 1q89 363 92 378q-87 342 -89 351l1 1h118q1 0 11 -41q4 -15 18 -70h1l33 136h-184q-1 0 -1 1v97q0 1 1 1h292z" />
    <glyph glyph-name="uni529E" unicode="&#x529e;" 
d="M694 -83h-164v95h48v621h-124v-485l-69 -230h-117l71 230v485h-112v94h112v77h115v-77h240v-810zM175 40l35 436h110l-35 -436h-110zM717 40l-18 436h111l17 -436h-110z" />
    <glyph glyph-name="uni529F" unicode="&#x529f;" 
d="M421 712h79v80h116v-80h213v-793h-181v95h65v604h-97v-348l-65 -355h-123l72 378v325h-79v94zM171 664v98h223v-98h-54v-618l58 13v-97l-223 -48v96l49 10v644h-53z" />
    <glyph glyph-name="uni52A0" unicode="&#x52a0;" 
d="M181 721h69v81h100v-81h82v1h101v-795h-157v96h56v602h-82v-348l-56 -354h-105l61 377v325h-69v96zM714 777v1h105v-859h-4v-1h-247v860h104v-1h42zM672 15h42v666h-42v-666z" />
    <glyph glyph-name="uni52A1" unicode="&#x52a1;" 
d="M363 501l-184 97h201l78 -39l160 99h-326l-13 -45h-113l53 186h113l-13 -45h438l51 -96l-243 -152l261 -130h-228l-131 69l-111 -69h-196zM791 -84h-180v98h64v214h-304v-153l-88 -160h-123l95 176v137h-95v97h95v33h116v-33h420v-409z" />
    <glyph glyph-name="uni52A3" unicode="&#x52a3;" 
d="M549 798q1 0 1 -1v-268q0 -1 -1 -1h-121q-1 0 -1 1v268q0 1 1 1h121zM350 773q-54 -193 -59 -205h-120v1q1 4 59 204h119h1zM773 773q2 -1 37 -99q22 -58 22 -61h-120q-1 0 -15 39q-2 6 -44 121h1h119zM811 585h2l-82 -155h-15q-9 0 -545 -63v1v96q0 2 43 6l441 53
q32 61 34 62h122zM496 339h324q2 0 2 -1v-249q-3 -11 -52 -176h-123v1l51 175v152h-249q-2 -2 -134 -284l-21 -43h-121h-2l154 327h-159q-1 0 -1 1v96q0 1 1 1h205q2 3 14 30h123z" />
    <glyph glyph-name="uni52A8" unicode="&#x52a8;" 
d="M500 715h61v81h105v-81h64v1h104v-804h-146v95h42v613h-64v-349l-38 -359h-111l44 379v329h-61v95zM173 636v97h291v-97h-291zM256 395h-83v99h291v-99h-101l-89 -375h114v70h100v-169h-100v2h-222v97z" />
    <glyph glyph-name="uni52A9" unicode="&#x52a9;" 
d="M690 8h29v620h-72v-351l-39 -365h-122l45 383v333h-32v97h32v80h116v-80h181v-1h8v-812h-146v96zM189 12v761h117v-1h40v1h117v-701l24 5v-96l-318 -69v96zM346 676h-40v-136h40v136zM346 295v149h-40v-149h40zM306 199v-162l40 9v153h-40z" />
    <glyph glyph-name="uni52AA" unicode="&#x52aa;" 
d="M194 570h-1v85h-25v97h25v48h101v-48h184v-1h19l-2 -181h-1l-87 -90l100 -112h-130l-38 42l-41 -42h-117l99 107zM719 502l101 -134h-116l-41 55l-39 -55h-111l91 135l-97 131h112l38 -51l48 72h-190v97h313v-97h-2zM394 597l1 58h-101v-50l53 -59zM791 293v-253h-2
l-47 -126h-130l62 155v126l-238 -1l-120 -280h-123l118 280l-124 -1v99l166 1l27 64h125l-27 -64l309 1v-1h4z" />
    <glyph glyph-name="uni52AB" unicode="&#x52ab;" 
d="M387 798q1 -1 1 -2v-79h85q1 -1 1 -2v-96q0 -1 -1 -1h-85v-192h101q1 0 1 -1v-96q0 -1 -1 -1h-109l-97 -296h103q-26 149 -26 150l1 1h101q1 0 7 -37l36 -208l-1 -1h-341q-1 0 -1 1v94q13 35 98 296h-95q-2 0 -2 1v96q0 1 2 1h113v192h-98q-1 0 -1 1v96q0 2 1 2h98v79
q1 2 2 2h107zM710 797q1 0 1 -1l-7 -78h120q1 0 1 -1v-676q-3 -15 -31 -124q-1 -4 -2 -4h-112l-1 1q38 142 38 144v565h-22q-1 -9 -68 -709l-2 -1h-106l-2 1q2 8 69 709h-67q-2 0 -2 1v93q1 1 2 1h76q6 65 8 78l1 1h106z" />
    <glyph glyph-name="uni52B1" unicode="&#x52b1;" 
d="M729 642h-52v-492l-52 -236h-99l52 238v490h-32v96h32v62h99v-62h152v-48h-100v-48zM196 152v627h93v-1h255v-95h-255v-531h-93zM526 -86h-116v96h29v415h-37v-273l-27 -235h-86l26 238v408h-13v96h241v-96h-141v-42h122v-47h2v-560zM729 642h100v-729h-100v1h57v96h-57
v632zM262 -86h-93l27 238v-2h93zM729 -86h-76v96h76v-96z" />
    <glyph glyph-name="uni52B2" unicode="&#x52b2;" 
d="M272 15h6v294h-112v98h319v-98h-90v-145q0 -144 1 -145h20l36 3h17v-49l7 17l1 7l3 8l3 10l1 8q13 46 17 56l23 72v469h-18l-17 1v98h35v79h14l30 1h72v-80h179v-802h-118v704l-31 -1h-30v-476q0 -5 -2 -5l-5 -9l-20 -68l-29 -97l-3 -10l-3 -9l-2 -7l-2 -5l-4 -11
q0 -1 -57 -1q-58 0 -58 1h-16q-23 0 -30 -1l-37 -3q-41 0 -49 -1l-144 -5h-13v98h32l21 2zM195 480l12 26q23 41 29 63l8 15l3 6l4 8l4 10l4 8l23 50q6 15 12 24l2 8q0 1 -61 1h-59v99h147q12 -1 58 -1h90l-3 -8l-4 -10q-4 -11 -12 -22l-13 -32l-16 -35q-14 -26 -14 -27
l2 -4l2 -4l2 -5l2 -8l3 -4l3 -10l4 -11l8 -21l24 -71l21 -59l3 -12l2 -5l2 -4l2 -6q0 -2 -58 -2h-58l-8 21l-5 14l-4 12l-1 5l-2 4l-1 3v2l-8 20q0 1 -1 0q0 -1 -2 -5l-6 -15l-11 -20q-16 -39 -19 -39q-2 -2 -66 -2h-63l8 17q2 2 11 26z" />
    <glyph glyph-name="uni52B3" unicode="&#x52b3;" 
d="M699 654v-47h-117v47h-174v-47h-117v47h-129v98h129v55h117v-55h174v55h117v-55h132v-98h-132zM706 486h-424v-48h-118v146h659v-146h-117v48zM797 -84h-117v2h-99v95h99v289h-272v-161h-8l8 -1l-68 -224h-124l74 239v147h-104v96h104v40h118v-40h389v-482z" />
    <glyph glyph-name="uni52B5" unicode="&#x52b5;" 
d="M744 432l83 -114h-45v-278h-2l-47 -126h-129l61 155v163l-233 -1l-125 -317h-122l123 317h-106v87h-37l67 114h-66v98h123l43 73h-154v99h82l-37 97h124l37 -97h6l58 98h124l-58 -98h100l38 97h124l-38 -97h73v-99h-355l-43 -73h414v-98h-83zM355 432l-60 -103l388 1
l-76 102h-252z" />
    <glyph glyph-name="uni52BF" unicode="&#x52bf;" 
d="M173 458v98l76 18v68h-76v97h76v68h115v-68h61v-97h-61v-38l45 12v-98l-45 -12v-159h-155v98h40v32zM500 598l6 44h-64v97h80l11 68h114l-10 -68h48v2h114v-276l29 -117h-114l-29 117v177h-64l-14 -81l15 -5v-98l-29 11l-20 -122h-115l26 159l-36 12v98zM168 296h95v33
h118v-33h454v-382h-184v100h65v184h-335v-123l-89 -162h-124l95 175v110h-95v98z" />
    <glyph glyph-name="uni52C3" unicode="&#x52c3;" 
d="M409 803v-50h106q1 0 1 -2v-98q0 -1 -1 -1h-106v-58h126l1 -1v-145q0 -1 -1 -1h-112q-2 0 -2 1v45h-135v-45q0 -1 -2 -1h-111q-2 0 -2 1v145q0 1 2 1h122v58h-106q-2 0 -2 1v98q0 2 2 2h106v52h113q1 0 1 -2zM678 750q22 1 44 1h73q13 0 26 -1v-695q-1 -1 -5 -16
q-5 -18 -11 -45l-24 -88h-112q-1 0 -1 2q18 64 30 109q10 36 11 42v595h-36q-16 -281 -29 -506q-5 -86 -9 -154q-3 -56 -5 -88h-114l37 678l6 70h-22q-1 0 -1 2v93q0 1 1 1h26q1 0 1 1q3 47 3 52l1 2h113zM474 387q8 -7 14 -12l5 -4q-77 -110 -78 -116h100q1 0 1 -1v-97
h-107v-128q-4 -10 -54 -120q-1 -3 -3 -3h-114q57 120 57 124v127h-108v97q0 1 2 1h110q4 2 51 73v2h-161q-2 0 -2 1v98h232q32 -24 55 -42z" />
    <glyph glyph-name="uni52C7" unicode="&#x52c7;" 
d="M286 625q45 0 45 2l-24 26l-25 27h164l1 -4q3 0 4 -4q2 -3 7 -8l4 -6l2 -2l2 -3l13 -20h76l36 37q37 34 37 36h-410v100h519l1 -2q0 -1 3 -3q3 -3 8 -7l41 -32l34 -24q0 -1 -10 -10q0 -3 -8 -11l-6 -7l-4 -5l-16 -17l-24 -28l-32 -33l46 -2q46 0 46 -1v-402h-119v41h-140
v-41h-118l-1 20v21h-127v-41h-117l-1 200v202l25 1h68zM311 532v-39h127v40h-63q-64 0 -64 -1zM206 -59q0 3 1 4l4 8l3 4l3 5l4 14l6 14l14 34l24 51l-24 2h-20l-46 1v100h631v-266h-118v142l-1 23h-303l-4 -8v-3l-1 -2q-5 -6 -9 -19q-3 -5 -7 -15l-3 -5l-1 -4l-35 -77
l-14 -32h-117l2 5l3 8zM557 493h140v40h-140v-40zM311 356h127v46h-127v-46zM557 356h140v46h-140v-46z" />
    <glyph glyph-name="uni52C9" unicode="&#x52c9;" 
d="M331 798q-13 -32 -13 -34v0h107q4 -4 76 -85v-1l-43 -77h61q1 -1 1 -2v-330v-2h-29h-63h-7v-256h401q1 0 1 -1v-95q0 -1 -1 -1h-258q-78 0 -239 -1v1v209h-1q-62 -207 -63 -210h-99q-1 0 -1 1q105 351 105 353h-30h-55l-1 2v330q0 2 1 2h157l34 64h-91q-2 0 -13 -31h-1
h-105q-1 0 -1 1l63 163h106h1zM708 797q-8 -74 -8 -77h121q1 0 1 -1v-546q0 -4 -32 -129h-109q-1 0 -1 1q36 136 37 147v432h-27l-60 -580h-1h-98q-1 0 -1 1q59 571 60 579h-75q-2 0 -2 1v94q1 1 2 1h85q7 75 8 78h99q1 0 1 -1zM276 366h12q2 0 5 51q0 2 7 85h-24v-136z
M385 366h39v136h-27q-12 -130 -12 -136z" />
    <glyph glyph-name="uni52CB" unicode="&#x52cb;" 
d="M328 799q96 1 163 1l1 -1v-253q0 -1 -2 -1h-312q-1 0 -1 1v252l1 1q15 0 38 1q31 0 112 -1zM718 798l-7 -78h120q1 0 1 -1v-677q0 -4 -33 -127l-1 -1h-111l-2 1q38 137 39 146v564h-22q-1 0 -1 -2q-62 -651 -68 -709h-108l-1 1q3 29 68 710h-67q-1 0 -1 1v93q0 1 1 1h77
v1q5 64 7 78h108zM280 644h108v57h-106q-2 0 -2 -1v-56zM326 526q113 1 176 1v-1v-247v-134q0 -1 -2 -1h-100q-1 0 -1 1v283h-129v-251h1l12 33v198q1 1 2 1h100q2 0 2 -1v-238l-14 -35h46q1 0 19 -53l56 -167h-1h-114q-2 0 -25 74q-1 1 -19 54v0q-51 -126 -53 -128h-114h-1
l90 229h-89q-1 0 -1 1v380l1 1q15 0 36 1q27 0 122 -1z" />
    <glyph glyph-name="uni52D2" unicode="&#x52d2;" 
d="M677 803l-1 -50q-2 -2 -2 -3h144q1 0 1 -1v-706q0 -1 -36 -135h-103q-2 0 -2 1q8 28 15 57q3 10 6 22l2 10l3 9q9 33 9 34h1v613h-45q-1 -7 -11 -195l-2 -24l-1 -25q-2 -35 -3 -55q-4 -69 -8 -126q-9 -163 -18 -319v-4h-106q-1 0 -1 2q42 738 42 746h-48q-1 0 -1 2v93
q0 1 1 1h55l3 53l1 2h104q1 0 1 -2zM306 798v-45q0 -2 1 -2h55v47q0 1 1 1h105q1 0 1 -1v-47h27q1 0 1 -1v-96q0 -1 -1 -1h-27v-160q0 -1 -1 -1h-89v-29h117q1 -1 1 -2v-243q0 -2 -1 -2h-117v-55h117q1 0 1 -2v-98q0 -2 -1 -2h-117v-151q0 -2 -1 -2h-88q-2 0 -2 2v151h-122
q-1 0 -1 2v98q0 2 1 2h122v55h-115q-2 0 -2 2v243q0 2 2 2h115v29h-89q-1 0 -1 1v160h-24q-1 0 -1 1v96q0 1 1 1h24v47q0 1 1 1h105q2 0 2 -1zM362 592v61h-55l-1 -1v-60h56zM288 316v45h-24v-45h24zM404 316v45h-25v-45h25z" />
    <glyph glyph-name="uni52DF" unicode="&#x52df;" 
d="M709 638h-117v30h-162v-30h-117v30h-142v99h142v35h117v-35h162v35h117v-35h130v-99h-130v-30zM808 389h-606v237h606v-237zM691 558h-372v-17h372v17zM319 473v-16h372v16h-372zM742 260l97 -89h-66v-261h-219v96h105v103h-254l-82 -200h-117l82 200h-64v61h-53l109 90
h-109v97h228l23 20h143l-23 -20h297v-97h-97zM613 260h-180l-64 -56h304z" />
    <glyph glyph-name="uni52E4" unicode="&#x52e4;" 
d="M463 641v-121h-270v121h-25v93h25v72h101v-72h67v72h102v-72h34v-93h-34zM731 10v631h-67v-411l-52 -316h-110l57 344v383h-44v96h44v69h105v-69h172v-823h-148v96h43zM361 613v28h-67v-28h67zM497 244v-93h-119v-16h119v-93h-119v-25l119 5v-93l-329 -15v92l117 5v31
h-117v93h117v16h-117v93h117v19h-117v229h117v22h93v-22h119v-229h-119v-19h119zM261 356h24v43h-24v-43zM378 356h26v43h-26v-43z" />
    <glyph glyph-name="uni52FF" unicode="&#x52ff;" 
d="M833 -84h-216v99h101v638h-24l-211 -737h-124l210 737h-67l-212 -737h-124l211 737h-76l-16 -109h-115l39 264h114l-8 -55h518v-837z" />
    <glyph glyph-name="uni5300" unicode="&#x5300;" 
d="M361 798l-2 -4l-2 -6q-6 -15 -13 -32h472v-634q-4 -11 -12 -32l-74 -184h-123v2q1 4 23 56l6 13l6 14q7 17 14 33q17 42 34 83q7 15 10 23v524h-396l-1 -4l-2 -5l-6 -16q-9 -23 -20 -49h-116q17 44 34 87q13 31 26 66q26 66 28 71h116q-1 -1 -2 -6zM406 528l95 -201h-129
l-12 24l-95 201h127q2 0 14 -24zM387 -36h-129q3 9 11 31l21 63q33 98 74 221h129q-1 -4 -106 -315z" />
    <glyph glyph-name="uni5305" unicode="&#x5305;" 
d="M779 141h-116l54 174v361h-408l-6 -36h-6v-50l-16 -107h-116l45 315h116l-4 -31h511v-452zM661 230h-249v-211h421v-98h-536v669l6 50h358v-410zM412 327h134v214h-134v-214z" />
    <glyph glyph-name="uni5306" unicode="&#x5306;" 
d="M328 803l-8 -54h488v-667q0 -1 -3 -1q2 0 2 -2t-57 -173h-118q-1 0 -1 2q67 194 67 199v542h-16q-104 -386 -111 -409q62 -43 63 -45v-132q0 -1 -2 -1q-16 14 -90 65q-55 -198 -60 -221h-118q0 2 78 294q-22 17 -54 39q0 -2 -22 -85q-25 -96 -66 -248h-119q3 17 108 404
q-29 22 -53 38q-9 7 -16 11q-5 4 -8 6v132q0 2 1 2q0 -1 26 -20q31 -22 79 -56h2q60 225 60 226h-74q-6 -47 -11 -80q-4 -27 -5 -30h-110l37 266h109q2 0 2 -2zM473 312l90 337h-65l-80 -298q23 -18 55 -39z" />
    <glyph glyph-name="uni5308" unicode="&#x5308;" 
d="M225 644q-65 0 -65 2l39 78l39 80h131l-3 -7l-2 -5q0 -1 232 -1h232v-880h-117v779l-398 1l-23 -47h-65zM326 104h-20l6 17l24 83l16 65q2 14 6 21l4 18l3 8l1 5l3 7l16 59l-15 56l-2 7q-1 5 -2 9l-2 11l-3 11l-4 16l-4 13l-3 13l-2 11l-3 8v3l-9 37l-3 13l-3 11l-2 9
l-3 5l-1 7l-2 7l-1 5l-1 4q-3 7 -2 8h28l14 1q12 2 26 2h24l9 -46l11 -34l3 -14l1 -1v3l1 5q1 1 2 5t2 10l3 8l1 2v3l6 19l2 8l3 8l1 8l2 5l4 12q0 1 26 1l14 -1h32q20 -2 20 -3l-12 -42l-24 -88l-12 -41l-14 -50q-12 -42 -12 -45q0 -2 2 -4q0 -1 1 -1t4 -7l1 -8l6 -18
l1 -11l1 -11l11 -36l11 -42l1 -2l1 -2l2 -8l4 -14l4 -16l12 -47l13 -54q0 -1 -45 -1h-20q-3 -1 -10 -1h-5q-10 0 -11 1q-1 0 -16 59l-16 57v-2q-1 -1 -12 -42l-8 -28l-5 -17l-7 -30h-23l-24 2q-5 1 -26 1zM563 77v521h99v-621h-466v621h98v-521h269z" />
    <glyph glyph-name="uni5315" unicode="&#x5315;" 
d="M211 794h118v-177q0 -177 2 -177q1 0 33 16q38 18 96 48l303 150q2 0 2 -70v-72l-75 -36q-25 -13 -56 -28l-48 -24l-25 -13l-25 -13l-8 -4l-8 -4l-6 -3l-4 -1q-55 -27 -96 -48q-33 -17 -47 -24l-38 -18v-310h503v-102h-621l-1 16v455q0 438 1 439z" />
    <glyph glyph-name="uni5316" unicode="&#x5316;" 
d="M235 -81v548h-67l151 329h145l-113 -248v-629h-116zM490 -80v336l-74 -62v160l74 61v381h116v-286l188 157v-162l-188 -155v-333h220v-97h-336z" />
    <glyph glyph-name="uni5317" unicode="&#x5317;" 
d="M245 -85q0 1 -34 1h-33v99h97l9 28l1 5l2 7l1 4l1 4l2 5l2 5l20 71v412l-68 2h-67v98h135v136h40q56 0 59 1h18v-663h-1q-2 0 -4 -5l-4 -15l-4 -9l-3 -9l-2 -12l-4 -12l-17 -56q-13 -46 -15 -48l-15 -51h-58q-58 0 -58 2zM686 657l75 -1h71v-100h-147v-540h107v-100h-222
v887h115v-75z" />
    <glyph glyph-name="uni5319" unicode="&#x5319;" 
d="M180 611v183h322v-399h-321v16q-1 3 -1 200zM775 670l52 22q2 2 5 2t0 -49v-48l-95 -42l-12 -6l-12 -5l-8 -4l-6 -3l-15 -5l-5 -3v-372h77l76 -2v-48l1 -49h-269v735h115v-165zM173 -67q1 3 1 41q4 12 8 116l7 84v27q0 1 59 1h57v-7q-1 -3 -1 -21l-6 -84l-4 -72v-2h45
v239h-150v99h75q4 1 75 1h116v-121h52v-97h-52v-121l376 -2v-97h-329q-43 -1 -193 -1h-137v5q0 10 1 12zM296 644h90v52h-90v-52zM296 495h90v52h-90v-52z" />
    <glyph glyph-name="uni5320" unicode="&#x5320;" 
d="M287 703v-686h545v-99h-662v884h662v-99h-545zM785 576l-345 -16v-60h375v-99h-70v-362h-115v362h-190v-169l-27 -193h-114l26 196v416l460 27v-102z" />
    <glyph glyph-name="uni533A" unicode="&#x533a;" 
d="M174 807q0 1 88 1q17 -1 329 -1h241v-102h-539v-696h539v-101l-658 1l-1 448q0 450 1 450zM313 53l12 20l24 45l30 59l50 86l46 87l2 5l3 5q4 7 7 13l4 6l2 3q1 1 1 4q0 1 -1 3l-2 3l-2 5q-1 1 -5 10q-3 4 -5 8l-6 10l-7 14l-8 12l-7 13l-41 80l-44 80l-20 36h137l14 -24
l7 -13l7 -12l13 -25q5 -12 27 -50q11 -24 12 -24l13 26l16 28l10 17l6 11l36 66h136l-3 -8l-4 -5l-2 -4q-3 -8 -7 -13l-11 -18l-12 -24l-10 -18l-15 -28l-17 -30q-2 -4 -6 -11q-6 -10 -13 -22l-49 -93l12 -23l4 -6l3 -4l2 -7l15 -25l11 -23l5 -8l3 -5l2 -7l4 -7l4 -8l19 -35
l4 -6l2 -6l4 -7l4 -8l4 -8l7 -11l5 -9l7 -11l5 -10l4 -10l4 -6l7 -14q2 -8 5 -12l10 -16l4 -8l4 -8l14 -25q0 -1 -68 -1h-67l-8 16l-2 3l-2 2l-3 4l-3 5q-1 3 -5 11l-4 7l-5 9l-34 63l-17 34l-15 27l-14 25q-2 -1 -4 -6l-6 -10l-5 -10l-7 -11q-2 -5 -4 -9l-4 -6l-6 -14
l-8 -14l-15 -26l-17 -30l-27 -49l-12 -21h-66q-68 0 -68 1z" />
    <glyph glyph-name="uni533B" unicode="&#x533b;" 
d="M831 710q0 -1 -2 -1h-553v-706h555v-97h-674v900h674v-96zM446 651h338v-102q0 -1 -1 -1h-171v-83h192l1 -1v-103h-220q-4 -8 -11 -25h96q1 -2 6 -14q6 -15 15 -38q7 -13 106 -263h-126l-17 41l-96 235q-11 -25 -113 -276h-125v1q57 137 101 242q16 39 28 67q10 23 13 30
h-144v103l2 1h169v83h-63l-1 -5l-1 -6q-2 -10 -5 -21h-109q31 158 32 167h111z" />
    <glyph glyph-name="uni5341" unicode="&#x5341;" 
d="M443 537v266h114v-266h272v-101h-272v-519h-114v519h-272v101h272z" />
    <glyph glyph-name="uni5343" unicode="&#x5343;" 
d="M440 441v243l-52 -2h-33l-50 -3l-12 -1h-10q-18 0 -20 -2l-76 -4h-3v98h11q13 0 16 1l25 3l151 6l122 7l117 5l24 2l24 1l19 1l20 2l45 2l40 2h4l1 -50q0 -48 -1 -48l-84 -5l-64 -3l-51 -2l-38 -3h-8v-250l273 -1v-99h-273v-429h-117v429h-268v100h268z" />
    <glyph glyph-name="uni5347" unicode="&#x5347;" 
d="M388 135l-31 -98l-24 -73l-12 -39l-1 -3h-115l8 31l26 80l10 42l3 10l4 13l4 9l3 10l10 32v230h-98v98h98v205h-5l-9 -1l-10 -1l-42 -4l-26 -2h-2v97l86 8l12 2l53 5q26 3 40 3q3 1 12 1h6l82 7l23 2l7 2h15q1 1 8 1l8 1h11v-97h-4l-20 -2l-46 -4q-68 -5 -74 -7h-10v-216
h245v149q1 13 1 60v91h114v-300h80v-97l-41 -1h-39v-463h-114l-1 233v230h-245v-244z" />
    <glyph glyph-name="uni5348" unicode="&#x5348;" 
d="M448 311v314h-125l-25 -63h-125l98 239h125l-34 -82h445v-94h-243v-314h263v-96h-263v-296h-116v296h-275v96h275z" />
    <glyph glyph-name="uni5349" unicode="&#x5349;" 
d="M565 805v-101h213q2 0 2 -3v-99h-215v-161q0 -1 -2 -1h-125q-1 0 -1 1v160q0 1 -3 1h-233v102h236v101q0 1 1 1h125q2 0 2 -1zM736 512v-168h94q1 -1 1 -2v-98q0 -1 -1 -1h-94v-337h-113v337h-242v-101q0 -2 1 -4l-74 -230l-3 -2h-120l-1 -1l-1 3q77 243 77 245v90h-103
q-1 0 -1 1v98q0 2 1 2h103v165q0 2 1 2h119q1 0 1 -2v-165h242v168q0 1 3 1h109q1 0 1 -1z" />
    <glyph glyph-name="uni534A" unicode="&#x534a;" 
d="M443 253v198h-266v99h266v249h117v-249h262v-99h-262v-198h263v-99h-263v-237h-117v237h-266v99h266zM271 584l-52 215h117l51 -215h-116zM613 584l49 215h118l-51 -215h-116z" />
    <glyph glyph-name="uni534E" unicode="&#x534e;" 
d="M292 805h135l-107 -180v-273h-117v235h-40zM546 388v189l-109 -28v107l109 28v121h119v-91l165 43v-107l-165 -42v-121h173v-99h-292zM831 130h-274v-217h-118v217h-273v99h273v147h118v-147h274v-99z" />
    <glyph glyph-name="uni534F" unicode="&#x534f;" 
d="M581 804v-49h120q0 -3 1 -14v-12l1 -14q0 -23 -1 -49v-39q-1 -39 -1 -50h83q2 0 6 -61q2 -10 39 -432h-93q-2 0 -2 3l-31 373h-2v-550q0 -1 -1 -1h-88q-1 0 -1 1v743h-30v-527q0 -2 -45 -217h-90q44 212 45 219v382h-1q0 -4 -4 -32q-3 -34 -9 -81q-15 -136 -35 -311h-90
l58 491h81v76h-84q-1 0 -1 1v100q0 1 1 1h84v49q0 2 1 2h88q1 0 1 -2zM348 802v-196h47q1 0 1 -1v-96q0 -1 -1 -1h-47v-599q0 -2 -1 -2h-97q-1 0 -1 2v599h-46q-1 0 -1 1v96q0 1 1 1h46v196q0 1 1 1h97q1 0 1 -1z" />
    <glyph glyph-name="uni5351" unicode="&#x5351;" 
d="M452 757h340v-447h-322q-64 -44 -111 -76q-17 -12 -29 -19q-10 -7 -11 -8h-163q1 0 11 7q11 7 29 19q48 31 113 75v2h-113q-1 0 -1 1v307q0 71 -1 139h102q14 16 41 48h153zM301 582h124v78h-125v-76q1 -1 1 -2zM545 582h140q1 0 1 2v76h-142v-76q0 -2 1 -2zM301 407h123
q1 0 1 1v76h-125v-76zM545 407h140q1 0 1 1v76h-142v-76q0 -1 1 -1zM570 270v-80h258l2 -2v-98q0 -1 -2 -1h-256q-2 0 -2 -2v-181h-109v181q0 2 -1 2h-304v101h305v76l-1 4l2 1h107q1 0 1 -1z" />
    <glyph glyph-name="uni5355" unicode="&#x5355;" 
d="M444 142v117h-270v453h102v25l116 61v-86h218v25l116 61v-86h102v-453h-270v-117h270v-96h-270v-125h-114v125h-270v96h270zM288 529h156v87h-156v-87zM558 529h156v87h-156v-87zM288 354h156v81h-156v-81zM558 354h156v81h-156v-81z" />
    <glyph glyph-name="uni5356" unicode="&#x5356;" 
d="M582 181l-3 7l-3 5l-2 6l-6 10l-4 10l-2 8l-4 6h-70l-6 -10l-18 -39q-26 -58 -26 -59l-24 -50l-11 -24l-6 -13l-7 -14l-29 -61l-8 -17l-3 -7l-3 -5q-4 -10 -5 -11l-3 -7h-147q0 3 1 3l4 7l4 8l7 17l15 36l32 65l6 11l2 8l6 9l13 29l28 58l11 22q3 8 6 15q2 5 3 8l3 7l2 5
q3 8 4 9h-171v100h117l-15 20q0 1 -4 5l-3 4l-2 4l-3 3l-3 4l-5 7l-4 6l-8 11l-5 8q-24 32 -24 33h118l12 -18l14 -16l40 -56l4 4l2 4l3 9l10 20q5 12 10 20q3 7 4 8l21 49l20 44q12 23 12 24t-60 1h-49l-4 -1h-7l27 -37q12 -16 20 -27q7 -9 8 -9h-3q-1 -1 -11 -1h-105
l-57 75h-78v102h278v35h-270v102h270v18q0 18 1 19q0 1 4 1h7q9 0 10 -1h95v-37h270v-102h-269v-35l261 -2v-49q0 -51 -1 -51q-2 -2 -2 -49v-49h-117v49l-1 48h-33q-3 1 -16 1h-11q-9 0 -9 -1l-2 -1l-2 -3l-2 -4l-28 -60l-7 -20l-7 -13l-7 -15l-37 -80q0 -1 145 -1h145v-100
h-136l20 -45l7 -17l7 -15q3 -7 5 -12q2 -4 3 -5l20 -47l25 -56l30 -69l19 -37l1 -7l3 -5l1 -4h-130l-37 81l-51 116l-26 61q-2 3 -4 9z" />
    <glyph glyph-name="uni5357" unicode="&#x5357;" 
d="M443 600v37h-274v100h274v66h117v-66h274v-100h-274v-37h274v-692h-117v592h-433v-592h-117v592h-1v100h277zM363 351l-17 122h114l17 -122h-114zM523 351l17 122h114l-17 -122h-114zM437 174v65h-139v100h398v-100h-140v-65h140v-100h-140v-166h-119v166h-139v100h139z
" />
    <glyph glyph-name="uni535A" unicode="&#x535a;" 
d="M454 -16l-2 26l-3 20l-5 18l-8 18l-4 10l-11 24h113l19 -38l2 -8l3 -6q6 -21 8 -38l1 -18l2 -19l2 -18q0 -2 -57 -2h-57l-1 8v11q-2 4 -2 12zM542 669h-176l3 83l173 1v31h115v-31h74l1 4v3l114 52l-3 -143h-186v-26h81l81 -2l-3 -372h-113v28l-1 29h-45v-41h-115v41h-64
v-57h-97v178l1 196h160v26zM211 527v257h114v-257h32v-97h-32v-517h-114v517h-54v97h54zM478 510h64v34h-64v-34zM657 510h45v34h-45v-34zM478 410h64v44h-64v-44zM657 410h45v44h-45v-44zM382 227h308v23l114 1v-24h15v-98h-15v-91l-38 -125h-113l37 139v77h-308v98z" />
    <glyph glyph-name="uni5360" unicode="&#x5360;" 
d="M484 706h332v-99h-332v-152h292q2 0 2 -1v-546q0 -1 -4 -1h-595v548h185v352h120v-101zM300 7h357v349h-358v-348q0 -1 1 -1z" />
    <glyph glyph-name="uni5361" unicode="&#x5361;" 
d="M482 -87h-116v520h-200v99h200v266h116v-84h271v-98h-271v-84h349v-99h-349v-520zM515 352h123l139 -428h-129z" />
    <glyph glyph-name="uni5362" unicode="&#x5362;" 
d="M692 740h143v-68h-287v-76h293v-310h-523v-19l-2 -9v-5l-1 -7l-1 -13v-11q-2 -5 -4 -38q-1 -15 -2 -29l-1 -10l-1 -7q-1 -12 -3 -30l-2 -17l-2 -17v-2q0 -2 -1 -5v-7l-2 -9q-2 -22 -4 -28q-5 -27 -6 -46q-3 -16 -3 -20l-7 -44v-4h-117v8q0 2 2 8l1 7l1 8q1 9 2 17v4
q0 6 1 10l2 14l2 16q2 13 4 32l2 14l2 12q4 29 5 51l3 23l3 19l4 62q1 11 2 24q1 8 2 19l1 7l1 9q1 12 2 22l1 22q0 14 1 17q2 10 2 13v8l2 22l2 24q1 21 5 50q0 1 5 52l3 53q2 17 3 31q1 4 1 8v3q0 1 60 1q58 0 58 -1q0 -2 43 -2h44v211h117v-66zM331 441q-1 -14 -2 -32
l-1 -12l-1 -11h395v110h-387v-1z" />
    <glyph glyph-name="uni5364" unicode="&#x5364;" 
d="M503 799v-62h315v-92h-315v-63h288v-661h-609v661h204v217h117zM299 11h375v479h-375v-479zM488 364l45 91h113l-102 -203l102 -203h-113l-45 90l-47 -90h-113l103 203l-103 203h113z" />
    <glyph glyph-name="uni5366" unicode="&#x5366;" 
d="M610 802q7 0 10 1h40v-891h-117v889h45q13 0 22 1zM730 40l-2 33q-2 4 -2 30l-1 24l-1 14v15l-2 16l-1 14q-1 3 -1 14v10l-3 52l-3 35l-2 31l-4 66q-5 93 -8 115v8q0 8 -2 14v10l-1 9q0 20 -1 24l-2 22l-1 20q-1 5 -1 19v9l-6 82q0 1 43 1t43 -1l8 -111l7 -117l3 -52v-23
l1 -16l2 -16l2 -46q2 -6 2 -25l1 -11v-11l1 -12v-9q2 -6 2 -8v-4q1 -4 3 -37v-8l1 -9q0 -11 1 -20q1 -25 3 -50l1 -17l1 -21l2 -19l1 -16q0 -17 1 -20v-11h-41q-44 0 -44 3zM275 659h-90v101h90v43h117v-43h91v-101h-91v-103h91v-99l-76 -2h-148l-74 2v99h90v103zM275 266
h-90v100h90v56h117v-56h91v-100h-91v-251l45 -2h44v-49l2 -49h-298v98h45l45 2v251z" />
    <glyph glyph-name="uni5367" unicode="&#x5367;" 
d="M536 705h-87v-133h52q1 0 1 -2v-383q0 -1 -1 -1h-52v-179h80q1 0 1 -1v-99h-211q-74 0 -145 -1l-2 1v896l2 2q60 1 121 1h241v-101zM672 803v-896q0 -1 -2 -1h-102q-2 0 -2 1v896q0 2 2 2h102q2 0 2 -2zM789 655l32 -636h-98q-1 0 -1 2q0 1 -8 161q-5 102 -10 198
q-7 136 -14 277h97q2 0 2 -2zM344 570v135h-66v-135h66zM397 288v182h-119v-182h119zM344 7v180h-66v-180h66z" />
    <glyph glyph-name="uni536B" unicode="&#x536b;" 
d="M834 -86h-667v98h246v695h-246v100h656v-258l2 -1l-63 -163h-129l73 195v127h-176v-695h304v-98z" />
    <glyph glyph-name="uni5370" unicode="&#x5370;" 
d="M278 376v-276h169v-97h-278v695l117 113h151l-159 -161v-177h174v-97h-174zM709 193v478h-92v-760h-114v861h320v-579l-51 -167h-116z" />
    <glyph glyph-name="uni5371" unicode="&#x5371;" 
d="M392 758h378l2 -1h7q-3 -7 -22 -48l-5 -10l-5 -11q-7 -14 -12 -25q-15 -33 -29 -62h108v-101h-453v-325q-4 0 -5 -28l-36 -237h-112q19 124 30 205q10 70 10 73v321h-75l108 297h128zM506 462h149l2 2h115q2 0 2 -2v-210q0 -1 -3 -1h1q0 -6 -52 -153h-121v1
q56 165 56 169v95h-149v-356h308v-101h-381q-20 0 -40 1l-1 2v553q0 2 1 2h112zM573 601l25 56h-242l-20 -56h237z" />
    <glyph glyph-name="uni5373" unicode="&#x5373;" 
d="M503 797v-434h-225v-292l65 22l-29 193h114l58 -368h-115l-12 67l-195 -67v881h314v-2h25zM685 47v97h35v559h-75v-787h-114v883h303v-752h-149zM278 628h111v75h-111v-75zM278 459h111v74h-111v-74z" />
    <glyph glyph-name="uni5374" unicode="&#x5374;" 
d="M476 -59v-2h-307v96h1l101 305h-101v99h116v184l-101 -1v99h101v81h110v-80h117v-98l-117 -1v-183h117v-99h-121l-101 -306h119l-35 152h102l58 -246h-59zM689 7v99h35v552h-62v-740h-107v837h276v-748h-142z" />
    <glyph glyph-name="uni5375" unicode="&#x5375;" 
d="M463 701q-5 -2 -198 -44v-388l79 44v-107q-12 -7 -174 -99v108q3 3 5 4q-5 0 -5 1v515q12 3 35 8l285 64v-98q0 -3 -27 -8zM652 754h168q1 0 1 -1v-541q0 -1 -8 -20q-9 -23 -23 -57q-6 -15 -8 -15h-110q52 111 52 118v415q0 1 -2 1h-111q-2 0 -2 -1v-746q0 -1 -1 -1h-95
q-1 0 -1 1v848q70 -1 140 -1zM478 659v-433q-1 -1 -10 -24q-6 -14 -11 -26q-8 -18 -15 -35q-20 -48 -42 -99q-28 -66 -58 -137h-121q-2 0 -2 1q157 343 161 355v398q0 2 2 2h94q2 0 2 -2zM362 553l4 -56l4 -54q5 -67 8 -100v-2h-85q-3 0 -6 48q-1 14 -17 236l1 1h84
q3 0 7 -73zM701 536q1 -3 19 -263h-87q-1 0 -1 2l-20 321h85q1 0 4 -60z" />
    <glyph glyph-name="uni5377" unicode="&#x5377;" 
d="M517 707h97q8 20 15 40l6 16q2 6 6 14q10 27 11 30h126l-38 -100h75v-99q0 -1 -2 -1h-352q-13 -24 -40 -73v-2h410v-99h-107l107 -150v-1h-76v-129q-1 0 -1 -4l-34 -104h-130l1 5q2 6 4 14q7 23 17 54q20 63 24 76v39h-290v-225h447q2 0 2 -1v-99h-566v374h-72v1l81 150
h-81v99h136q2 0 3 4q1 1 11 19l2 4l3 6q4 6 7 12q9 15 17 30h-164q-1 0 -1 1v99h82q-17 43 -28 74q-4 12 -7 19l-2 7h126q6 -16 19 -48q9 -24 14 -38q5 -13 5 -14h10l3 5q3 5 7 13q12 21 27 51l19 32h125q-42 -77 -54 -101zM656 333q-68 95 -71 100h-219q-1 -3 -54 -99v-1
h344z" />
    <glyph glyph-name="uni5378" unicode="&#x5378;" 
d="M447 667v-127h61v-98h-61v-157h57v-99h-57v-174h61v-99h-338v99h31v347h108v-347h30v430h-169v98h169v127h-26l-23 -59h-120l79 196h116l-15 -39h158v-98h-61zM723 195v472h-63v-750h-113v848h289v-570l-53 -165h-112z" />
    <glyph glyph-name="uni537F" unicode="&#x537f;" 
d="M338 795v-93q0 -1 -54 -12q-5 -1 -50 -11v-492h1l27 4v476q0 1 1 1h92q1 0 1 -1v-497q0 -10 -36 -257h-93q-1 0 -1 1q3 25 25 180l-110 -18l-1 2v676q0 2 31 7q12 3 166 36zM602 793q2 0 2 -1v-461q0 -1 -2 -1h-128v-258l34 15q-7 174 -8 197h1h85q1 0 1 -1
q15 -362 15 -369l-1 -1h-84q-2 0 -2 3l-2 59h-1q-138 -61 -139 -61q-1 160 -1 247v631q1 1 2 1h228zM840 788q1 0 1 -1v-557q0 -6 -28 -154h-93q-1 0 -1 1q27 148 27 151v464h-31v-778q0 -1 -1 -1h-93q-1 0 -1 1v873q0 1 1 1h219zM474 624h27q1 0 1 1v73h-28v-74zM474 425
h28v104h-28v-104z" />
    <glyph glyph-name="uni5382" unicode="&#x5382;" 
d="M337 702v-470h-113v568h604v-98h-491zM337 230l-56 -315h-114l57 317v-2h113z" />
    <glyph glyph-name="uni5385" unicode="&#x5385;" 
d="M829 706h-518v-544l-39 -256h-116q39 257 39 260v640h634v-100zM809 538q0 -1 -2 -1h-146v-472l-23 -90l-17 -69h-115q17 69 28 114q9 39 11 47v470h-197v100h461v-99z" />
    <glyph glyph-name="uni5386" unicode="&#x5386;" 
d="M827 697h-515v-530l-28 -245h-117l29 245v630h631v-100zM675 21v466h-126l-107 -563h-119l110 563h-72v100h91l17 86h116l-16 -86h223v-666h-117v1h-98v99h98z" />
    <glyph glyph-name="uni5389" unicode="&#x5389;" 
d="M848 800q1 0 1 -1v-96q0 -2 -1 -2h-540v-534q0 -7 -41 -255h-120l-1 1q41 250 41 256v630q1 1 2 1h659zM848 641q1 0 1 -1v-97q0 -1 -1 -1h-291l-9 -56h279l1 -1v-246v-142q0 -4 -46 -185h-126l-1 1q52 187 53 193v280h-176q-69 -438 -76 -474h-118l-1 1q97 606 100 629
h-98q-1 0 -1 1v97q0 1 1 1h509z" />
    <glyph glyph-name="uni538B" unicode="&#x538b;" 
d="M298 -79v92q0 2 2 2h209l2 342h-179l-1 2v93q0 1 1 1h179l2 234h113l-1 -234h176q2 0 2 -1v-93l-2 -2h-177l-2 -342h212q3 0 3 -2v-92q0 -2 -3 -2h-534q-2 0 -2 2zM838 715h-540v-548l-44 -246h-92l45 246v634h631v-86zM732 55v33l105 51v-84h-105z" />
    <glyph glyph-name="uni538C" unicode="&#x538c;" 
d="M813 803v-98q0 -1 -1 -1h-476v-481q-1 0 -2 -1q-11 -65 -22 -129q-7 -44 -16 -96q-14 -84 -15 -91h-111v2q24 141 41 242q7 38 11 61l3 21v571q0 2 1 2h586q1 -1 1 -2zM585 672l-12 -84h88v25q1 1 29 14l7 4l9 4q10 5 19 9l48 24l1 -2v-78h26q1 0 1 -2v-101q0 -1 -1 -1
h-240l-78 -576h-110l79 576h-109q-2 0 -2 1v101q0 2 2 2h124q9 83 10 85h108q1 0 1 -1zM676 410q2 -9 5 -22q2 -8 131 -480h-108q-1 0 -4 8q-3 10 -7 26l-129 475l1 2h108q1 -2 3 -9z" />
    <glyph glyph-name="uni5395" unicode="&#x5395;" 
d="M826 706h-522q2 -230 2 -281v-130q0 -3 -44 -338q-6 -47 -7 -48h-97q47 368 48 384v510q0 1 5 3h615v-100zM826 -91q0 -3 -1 -3h-119q-1 0 -1 1v99h36v661h85v-758zM610 628v-501q0 -1 -1 -1h-76q-1 0 -1 1v403q0 2 -1 2h-115v-372q9 25 14 41q5 13 5 14v267q0 2 1 2h76
q1 0 1 -2v-298l6 -18q6 -19 17 -52q27 -84 68 -205h-87q-28 99 -46 158h-2l-48 -158h-91v1l74 216h-74v503h279q1 0 1 -1zM718 588v-538q0 -1 -1 -1h-83q-1 0 -1 1v538q0 1 1 1h83q1 0 1 -1z" />
    <glyph glyph-name="uni5398" unicode="&#x5398;" 
d="M841 800q1 0 1 -1v-96q0 -1 -1 -1h-539v-535l-41 -252l-2 -1h-118q-1 0 -1 1q38 233 41 254v630q0 1 1 1h659zM809 679q2 -1 2 -2v-435l-1 -1q-20 -1 -27 -1q-46 0 -157 1v-56h171q2 0 2 -1v-96q0 -1 -2 -1h-171v-72h201q1 0 1 -1v-97q0 -1 -1 -1h-201q0 -2 -1 -2h-113
q-1 0 -1 2h-193q-1 0 -1 1v97q0 1 1 1h193v72h-159q-1 0 -1 1v96q0 1 1 1h159v55q0 1 -1 1q-112 -1 -139 -1q-34 1 -40 1v1v435q0 2 1 2h477zM626 512h67q1 0 1 1v65q0 2 -1 2h-67v-68zM626 340h68v72q0 1 -1 1h-66q-1 0 -1 -1v-72zM443 512h68v68h-68v-68zM443 340h68v73
h-68v-73z" />
    <glyph glyph-name="uni539A" unicode="&#x539a;" 
d="M282 698v-779h-117v883h670v-104h-553zM315 396v282h484v-282h-484zM425 577h287v17h-287v-17zM425 480h287v13h-287v-13zM304 116v96h248l85 69h-318v98h488v-98h-1l-80 -69h107v-96h-204v-198h-200v97h63v101h-188z" />
    <glyph glyph-name="uni539F" unicode="&#x539f;" 
d="M284 697v-787h-119v893h678v-106h-559zM507 -91v411h-193v323h38l16 43h105l-16 -43h369v-323h-200v-411h-119zM726 560h-307v-42h307v42zM726 445h-307v-41h307v41zM419 -90h-108l55 378h109zM724 -90l-55 378h108l54 -378h-107z" />
    <glyph glyph-name="uni53A2" unicode="&#x53a2;" 
d="M561 -79v719q0 2 3 2h270q1 -1 1 -2v-94l-1 -1v-530q1 -1 1 -2v-92q0 -2 -1 -3h-270q-3 0 -3 3zM841 719h-543v-555l-47 -247h-92l47 247v639h635v-84zM386 597v105h83v-105h82v-100h-82v-574h-83v574h-82v100h82zM654 451h88v94h-88v-94zM306 104v352h74v-302zM551 203
l-70 49v191l70 -42v-198zM654 226h88v125h-88v-125zM654 15h88v109h-88v-109z" />
    <glyph glyph-name="uni53A6" unicode="&#x53a6;" 
d="M814 803v-82q0 -1 -1 -1h-495v-537q-5 -27 -18 -97q1 2 23 44l25 50q17 33 35 67h-29q-2 0 -2 1v353q0 1 2 1h145q4 0 12 14l5 8h-170q-2 0 -2 1v68q0 1 2 1h447q1 0 1 -1v-68q0 -1 -1 -1h-171q-13 -16 -16 -22h166q1 0 1 -1v-353q0 -1 -1 -1h-271q-1 0 -3 -5
q-4 -6 -7 -16h287q1 0 1 -2v-75q0 -1 -5 -3l-144 -113q175 -120 181 -125v-2h-187l-80 59l-75 -59h-158v2l153 114v1q-36 27 -58 44q-19 14 -20 14h-87q-13 -79 -22 -128q-8 -43 -10 -47h-96l-1 2q22 124 36 203q12 69 13 77v615q0 2 1 2h593q1 0 1 -2zM672 319v19q0 1 -2 1
h-217v-20h219zM507 118l44 -29q77 57 77 58h-179l-14 -28v-1h72zM672 507v24h-219v-24h219zM672 411v24h-219v-24h219z" />
    <glyph glyph-name="uni53A8" unicode="&#x53a8;" 
d="M282 701v-779h-117v883h670v-104h-553zM571 488v105h122v84h118v-84h16v-105h-16v-571h-21v-2h-154v104h57v469h-122zM302 566v104h249v-104h-249zM303 230v320h248v-320h-248zM405 329h44v122h-44v-122zM589 74l-17 365h96l17 -365h-96zM322 46l-19 161h102l19 -161
h-102zM428 46l19 161h102l-18 -161h-103zM302 -74v105h249v-105h-249z" />
    <glyph glyph-name="uni53BB" unicode="&#x53bb;" 
d="M172 388h260v219h-240v96h240v98h116v-98h262v-96h-262v-219h282v-97h-294l-188 -281h346v63h116v-157h-604v94l190 281h-224v97z" />
    <glyph glyph-name="uni53BF" unicode="&#x53bf;" 
d="M738 804v-545h89q1 0 1 -2v-93q0 -3 -1 -3h-425q-2 0 -21 -58l-30 -95h286l-36 96v1l2 -1h118q1 -1 14 -34q16 -39 39 -99l24 -61l-2 -2h-600v6l83 247h-120q-1 0 -1 3v93q0 2 1 2h84v545q0 2 1 2h491q3 0 3 -2zM618 630v80h-255q-2 -2 -2 -3v-77h257zM618 454v79h-257
v-79h257zM618 259v98h-257v-98h257z" />
    <glyph glyph-name="uni53C1" unicode="&#x53c1;" 
d="M281 576l24 35l-121 1h-2l80 184l4 8h111l-39 -93h389l-2 6l-2 44h102l1 -7l6 -139v-4h-416l-25 -35l446 -1l1 -100h-8q-9 0 -9 -1l9 -58l-110 -2l-11 61h-386l-60 -85h-111l58 84l-45 1v101h116zM506 345h286q1 0 1 -100h-593l-4 -2v100q8 2 310 2zM181 77l-1 98l632 2
l1 -99zM164 -87l-2 100l674 1l1 -99z" />
    <glyph glyph-name="uni53C2" unicode="&#x53c2;" 
d="M351 655h319l-40 76h128l40 -76v-99h-593v99l150 143h142zM330 404h-159v96h237l37 46h127l-37 -46h288v-96h-366l-95 -119l280 23l-49 79h120l121 -184h-125l-37 59v-48l-350 -27v49l-27 -33h-129zM272 50v96l450 41v-97zM205 -78v96l586 49v-96z" />
    <glyph glyph-name="uni53C8" unicode="&#x53c8;" 
d="M506 211l-181 -296h-150l257 410l-202 313h145l128 -199l166 265h-465v99h602v-99h-9l10 -1l-231 -378l266 -413h-143z" />
    <glyph glyph-name="uni53C9" unicode="&#x53c9;" 
d="M808 805v-102q-30 -49 -68 -111l-32 -54l-32 -52q-79 -130 -121 -199l249 -381h-139q-3 2 -46 68q-127 195 -133 201l-164 -269h-151l239 386l-54 83q-35 54 -67 103q-46 71 -94 144v2h138q13 -18 145 -221h2q5 9 189 302h-468q-1 0 -1 1v99q0 1 1 1h606q1 0 1 -1z
M517 678l50 -116v-1h-131q-5 6 -50 110q-4 4 -4 7v1l4 -1h131z" />
    <glyph glyph-name="uni53CA" unicode="&#x53ca;" 
d="M409 -88l121 283l-150 253l-108 -536h-106l159 790h-130v96h558v-96l-60 -139h125l-159 -372l169 -279h-129l-93 156l-66 -156h-131zM622 702h-190l-41 -199h81l112 -184l63 149h-126z" />
    <glyph glyph-name="uni53CB" unicode="&#x53cb;" 
d="M445 725h386v-100h-403l-14 -76h400v-100q0 -1 -4 -8q-5 -9 -12 -20l-136 -215q52 -91 103 -182q17 -31 37 -67l8 -14l8 -14q9 -16 13 -23h-156q0 1 -4 8l-2 3l-2 5q-3 5 -6 11q-32 55 -79 145q-2 -3 -11 -18l-4 -7l-5 -7q-6 -10 -12 -19q-16 -25 -31 -50
q-20 -32 -41 -66q-3 -3 -4 -5h-145q127 197 141 220q45 70 47 73q-51 96 -89 166q-14 26 -23 43q-8 14 -8 15h141q5 -10 57 -102q2 0 83 128h-282q-7 -47 -68 -392q-27 -150 -27 -151h-145l56 314q1 5 17 98q6 29 9 50q6 31 11 60q13 76 27 152q0 2 3 14l2 14q1 8 3 17h-127
v100h146l13 81h142z" />
    <glyph glyph-name="uni53CC" unicode="&#x53cc;" 
d="M255 -80h-98l96 390l-85 356h111l31 -127l39 155h-183v97h282v-97l-89 -359l60 -252l-73 -158l-44 182zM840 -80h-111l-96 296l-129 -296h-110l192 443l-99 303h112l50 -157l80 185h-266v97h378v-97l-144 -331z" />
    <glyph glyph-name="uni53CD" unicode="&#x53cd;" 
d="M186 754l642 52v-103l-524 -38v-66h498v-189l-165 -229l189 -266h-147l-114 168l-121 -168h-140l194 266l-182 268l132 -1l121 -171l116 159v57h-381v-313l-29 -265h-117l29 265v477h-1v97z" />
    <glyph glyph-name="uni53D1" unicode="&#x53d1;" 
d="M816 411l-166 -255l185 -246h-136l-113 151l-98 -151h-142l167 249l-116 153l-108 -402h-121l184 680h-183l54 212h117l-28 -112h66l31 112h120l-31 -112h337v-100h-363l-23 -84h367v-95zM802 798v-91h-117v38zM575 254l106 157h-257l-10 -36h71z" />
    <glyph glyph-name="uni53D4" unicode="&#x53d4;" 
d="M344 800q1 0 1 -1v-69h122q1 0 1 -1v-97q0 -1 -1 -1h-122v-74h142q1 0 1 -1v-96q0 -1 -2 -1q-96 0 -218 -1q-64 1 -122 1l-1 1v96q0 1 1 1h80v242q0 1 1 1h117zM832 787q1 -1 1 -2v-92q-1 -9 -96 -355q-9 -35 -9 -37l119 -386l-1 -1h-114q-2 0 -13 40q-4 10 -46 147h-1
q0 -5 -50 -187h-109l-1 1q11 39 101 377q-111 360 -114 370v1h115q2 0 7 -20q1 0 46 -149h1l52 196h-220q-1 0 -1 1v94q0 2 1 2h332zM387 438q1 -1 1 -2v-393q0 -4 -31 -129h-109q-1 0 -1 1q31 125 31 128v393q0 2 1 2h108zM267 399v-1q0 -6 -20 -391l-1 -1h-100q-1 0 -1 1
q20 385 20 391l1 1h101zM505 399q1 0 2 -2q0 -12 19 -390l-1 -1h-99q-3 0 -5 67l-17 325l1 1h100z" />
    <glyph glyph-name="uni53D6" unicode="&#x53d6;" 
d="M326 -52l-5 -1l-9 -3l-29 -4l-11 -2l-9 -2q-10 -2 -14 -3l-5 -1l-7 -1l-8 -2l-54 -12v99l25 5v686h-25v98h334v-98h-17v-313q0 -312 1 -312l6 2q1 1 7 1h3v-99h-3l-4 -1l-4 -1l-6 -2v-70h-118v45h-2l-27 -5zM530 0l8 17l8 20l4 10l4 11l8 23l8 21l7 19l1 3l1 4l1 3l1 3
l2 7q3 8 9 21l10 23l15 40l-11 36l-9 33q-7 19 -8 29l-8 28l-10 31l-2 9l-3 11l-4 20q-4 22 -8 24l-4 12l-4 16l-5 17l-4 17l-18 63l-9 30h115l17 -61l27 -92q12 -48 13 -48q3 0 3 4l3 11l4 12l11 25v251h-137v98h254v-293l-42 -121l-11 -29l-11 -29l-8 -22l-2 -8l-3 -6
l-17 -51l10 -35q9 -29 15 -54q5 -20 8 -33l28 -96l3 -11l2 -7l3 -8l5 -25l8 -26l10 -35h-115l-16 56l-10 42l-4 10l-3 9l-1 7l-2 6l-5 18q-1 0 -9 -24q0 -1 -4 -11l-3 -6l-2 -6q-3 -7 -6 -15l-5 -16l-6 -14l-4 -11l-2 -10l-3 -8l-3 -7l-5 -15v-5h-113l20 52q3 6 13 36z
M318 705v-138h55v140h-27q-28 0 -28 -2zM340 468h-16q-6 0 -6 -1v-146h55v146h-27zM370 57l4 1v82l-1 81h-55v-175l28 7l14 3l5 1h5z" />
    <glyph glyph-name="uni53D7" unicode="&#x53d7;" 
d="M166 666v100l670 41v-100zM227 580l-37 82h135l38 -82h-136zM448 580l-38 82h136l38 -82h-136zM639 580l38 82h135l-37 -82h-136zM718 436v29h-431v-29h-119v128h667v-128h-117zM496 182l139 117h-439v97h611v-97l-222 -191l238 -195h-186l-143 118l-138 -118h-181
l229 191l-184 152h185z" />
    <glyph glyph-name="uni53D8" unicode="&#x53d8;" 
d="M694 637v-244h90v-98l-147 14l-17 -14h-397v98h108v244h-142v98h270v9l117 54v-63h269v-98h-151zM448 393h131v244h-131v-244zM223 614h103l-36 -192h-103zM840 422h-103l-36 192h103zM580 126l246 -211h-177l-155 137l-167 -137h-173l257 211l-153 135h160l80 -68
l122 102h164z" />
    <glyph glyph-name="uni53D9" unicode="&#x53d9;" 
d="M469 750l55 -178l-1 -1h-112q-2 0 -9 26q-5 14 -33 106h-63q-38 -127 -40 -132h-114v1q2 8 69 228h231q1 0 17 -50zM838 789q1 -1 1 -2v-96q-98 -386 -103 -405l103 -371h-1h-109q-2 0 -13 44q-6 18 -33 118h-1q-37 -148 -42 -163q-94 1 -209 1q-1 0 -20 227
q-1 9 -12 136l2 1h99q3 0 7 -70q4 -39 26 -292v0q1 6 90 373l-104 374l1 1h109q2 0 19 -67q3 -6 26 -93h1q2 9 45 186h-203q-1 0 -1 2v94q0 2 1 2h321zM521 550q1 0 1 -1v-97q0 -1 -1 -1h-124v-39h124q1 -1 1 -2v-96q0 -1 -1 -1h-124v-396q0 -2 -2 -2h-106q-2 0 -2 2v396
h-132q-2 0 -2 1v96q0 2 2 2h132v39h-132q-2 0 -2 1v97q0 1 2 1h366zM284 278h1q-28 -358 -29 -363h-103l-1 1q1 1 1 2q2 29 29 360h1h101z" />
    <glyph glyph-name="uni53DB" unicode="&#x53db;" 
d="M383 800q1 0 1 -1v-288h94q1 0 1 -1v-96q0 -2 -1 -2h-94v-100h104q1 0 1 -1v-96q0 -1 -1 -1h-104q-1 0 -8 -36l-58 -263l-1 -1h-117q-1 0 -1 1l65 299h-120q-1 0 -1 1v96q0 1 1 1h121v100h-109q-1 0 -1 2v96q0 1 1 1h109v288q0 1 1 1h117zM828 799v-96q0 -3 -45 -7
q-162 -20 -169 -20v-52h211q2 -1 2 -2v-175q-5 -25 -65 -245l86 -287l-2 -1h-93q-2 1 -13 43q-20 66 -22 75q-2 0 -12 -41l-21 -77h-95l-1 1q60 239 75 298q-39 132 -49 169h-1v-200q-25 -258 -28 -268h-108l-1 1q27 275 27 287v557q0 3 40 7q229 28 283 34zM232 779
q2 0 4 -33l19 -192l-1 -1h-90q-1 0 -2 2q0 3 -19 223l1 1h88zM499 779l1 -1q-20 -204 -22 -225h-89q-1 0 -1 1q19 213 20 224l1 1h90zM614 493h60q2 0 15 -49q2 -5 18 -59h1q19 77 19 80v52h-113v-24z" />
    <glyph glyph-name="uni53E0" unicode="&#x53e0;" 
d="M793 798q1 0 1 -1v-69q-1 -2 -76 -30q-80 -31 -108 -40v-1q181 -60 182 -60v-1h-214q-3 0 -70 23q-59 -23 -62 -23h-234v1l172 62q0 1 -161 54v1h213q2 0 54 -17q16 6 80 29v1h-347q-1 0 -1 1v69q0 1 1 1h570zM485 587q1 0 1 -1v-69q-9 -7 -99 -61v-1l98 -56v-2h-147
q-2 0 -24 14h-1l-21 -14h-139v1l88 57q-9 6 -88 54v1h139q1 0 21 -11q26 15 27 17h-187q-1 0 -1 1v69q0 1 1 1h332zM836 587q1 0 1 -1v-69q-3 -3 -99 -61v-1l98 -56v-2h-147q-3 0 -24 14h-1q-21 -14 -23 -14h-138v2q82 50 89 56q0 1 -88 54v1h139q2 0 20 -11q3 0 28 17h-187
q-1 0 -1 1v69q0 1 1 1h332zM832 385q2 0 2 -2v-5q0 -39 -1 -112l-1 -1h-74v-275h85q2 0 2 -1v-75q0 -1 -2 -1h-699q-1 0 -1 1v75q0 1 1 1h78q2 0 2 2v272q0 1 -2 1h-68q-1 0 -1 2v116q0 2 1 2h678zM277 278h433v33h-433v-33zM335 178h311v23h-311v-23zM335 84h311v25h-311
v-25zM335 -10h311v26h-311v-26z" />
    <glyph glyph-name="uni53E3" unicode="&#x53e3;" 
d="M819 787v-853h-637v853h637zM702 30v661h-403v-661h403z" />
    <glyph glyph-name="uni53E4" unicode="&#x53e4;" 
d="M794 -86h-590v523h237v179h-273v99h273v86h116v-86h276v-99h-276v-179h237v-523zM677 8v333h-356v-333h356z" />
    <glyph glyph-name="uni53E5" unicode="&#x53e5;" 
d="M318 805l-12 -52h524v-708q-4 -8 -40 -122q-6 -16 -6 -17h-115v1q44 140 45 144v604h-429q-6 -30 -6 -31h-122q2 7 12 55l3 12l3 13q3 16 6 29q8 38 16 73h121v-1zM653 26h-436v426q0 70 -1 132q1 0 1 1h436v-559zM535 126v359h-202v-359h202z" />
    <glyph glyph-name="uni53E6" unicode="&#x53e6;" 
d="M809 440q0 -1 -1 -1h-614q-1 0 -1 1v365q0 1 1 1h615v-366zM431 428l-8 -41h407q2 0 2 -2v-315q0 -5 -58 -161q0 -2 -1 -3h-114l-2 1q26 72 43 118q14 41 16 45v217h-313q-1 0 -8 -31q-33 -161 -53 -259q-18 -87 -19 -90h-126l-2 2q78 375 78 378h-112q-2 0 -2 1v97l2 2
h133q9 42 11 42h125q1 0 1 -1zM690 538v168h-380v-168h380z" />
    <glyph glyph-name="uni53E8" unicode="&#x53e8;" 
d="M460 791h70q102 0 292 1q0 -1 1 -1q-1 -160 -1 -247v-383q0 -87 1 -247l-1 -1h-181q-2 0 -2 2v96q0 1 2 1h65v680q0 1 -1 1h-73q-2 0 -5 -63q-2 -17 -47 -715l-1 -2h-122v0q0 6 52 729l4 51h-2h-54v99zM210 767q57 0 85 -1q27 1 85 1h36q7 0 7 -2v-851q0 -2 -10 -2h-246
q-1 0 -1 1v852q0 1 2 2h42zM272 8h44v662h-44v-662z" />
    <glyph glyph-name="uni53EA" unicode="&#x53ea;" 
d="M207 311v491h587v-491h-587zM323 413h354v286h-354v-286zM173 -82l142 342h116l-141 -342h-117zM710 -82l-141 342h116l142 -342h-117z" />
    <glyph glyph-name="uni53EB" unicode="&#x53eb;" 
d="M819 -94h-120v136h-197v727h117q2 0 2 -2v-625h78v664h120v-900zM438 -67q0 -2 -9 -2h-253v854h262v-852zM334 30v657h-54v-657h54z" />
    <glyph glyph-name="uni53EC" unicode="&#x53ec;" 
d="M848 800q1 0 1 -1q-1 -180 -1 -251v-11q-1 -10 -35 -130l-1 -1h-121l-1 1q47 138 47 140v152h-307q-6 -16 -114 -293h-123q1 6 89 238l21 55h-156q-1 0 -1 1v99q0 1 1 1h701zM822 376l1 -1q0 -10 1 -15q-1 -119 -1 -194v-40q0 -75 1 -198q-1 -4 -1 -13l-1 -1h-609l-1 1
q0 22 -1 27q1 107 1 166v115q0 41 -1 96q1 0 1 56l1 1h609zM324 5h387v280h-387v-280z" />
    <glyph glyph-name="uni53ED" unicode="&#x53ed;" 
d="M613 796l-40 -668q-1 -4 -15 -223h-114l38 669l14 221l1 1h116zM773 796q2 0 5 -70q1 -1 43 -734q1 -6 5 -86l-1 -1h-113q-1 2 -1 3q-2 36 -46 748q-7 118 -8 139h-1l2 1h115zM207 770q57 0 86 -1q27 1 85 1h38l6 -1v-862q0 -1 -1 -1h-258q-1 0 -1 1v861q0 2 1 2h44z
M270 2h44v670h-44v-670z" />
    <glyph glyph-name="uni53EE" unicode="&#x53ee;" horiz-adv-x="1006" 
d="M824 800q1 0 1 -1v-98q0 -1 -1 -1h-116v-537v-249l-1 -1h-213v100h95q2 0 2 1v685q0 1 -2 1h-132q-1 0 -1 1v98q0 1 1 1h367zM420 774q2 0 2 -1v-860q0 -1 -2 -1h-257q-1 0 -1 1v860q0 1 1 1h257zM270 9h44v669h-44v-669z" />
    <glyph glyph-name="uni53EF" unicode="&#x53ef;" 
d="M159 705q-1 0 -1 2v92q0 3 1 3h682v-97h-109v-787h-195v97h82v690h-460zM227 617h354v-491h-356v490q0 1 2 1zM339 223h129v298h-129v-298z" />
    <glyph glyph-name="uni53F0" unicode="&#x53f0;" 
d="M684 545l-62 133h131l92 -227h-690l157 350h131l-108 -256h349zM195 -81v497h610v-497h-610zM310 19h380v296h-380v-296z" />
    <glyph glyph-name="uni53F2" unicode="&#x53f2;" 
d="M422 111l-122 -194h-127l163 262l-161 127h159l54 -42l46 74h-246v404h285v58h113v-58h230v-404h-252l-89 -142l355 -279h-161zM473 432v215h-172v-215h172zM586 432h116v215h-116v-215z" />
    <glyph glyph-name="uni53F3" unicode="&#x53f3;" 
d="M555 800q-3 -7 -38 -70v-1h327q1 0 1 -1v-98q0 -2 -1 -2h-383q-2 -5 -55 -101h362q1 0 1 -2v-610q0 -1 -1 -1h-529q-1 0 -1 1v396h-95q2 4 143 258l33 59h-176q-1 0 -1 2v98q0 1 1 1h231q4 3 35 62q5 9 7 9h139zM350 5h307v431h-300q-4 -5 -7 -14v-417z" />
    <glyph glyph-name="uni53F6" unicode="&#x53f6;" 
d="M586 -100v548h-136v107h136v238h117v-238h136v-107h-136v-548h-117zM325 -87v2h-45v-2h-108v868h108v-1h45v1h108v-868h-108zM325 21v652h-45v-652h45z" />
    <glyph glyph-name="uni53F7" unicode="&#x53f7;" 
d="M223 467v332h542v-332h-542zM336 566h315v136h-315v-136zM277 188v149h-106v98h660v-98h-442v-51h402v-370h-289v97h176v175h-401z" />
    <glyph glyph-name="uni53F8" unicode="&#x53f8;" 
d="M827 -85v-1h-166v94h52v695h-503v95h503v1h116v-884h-2zM163 562v97h506v-97h-506zM552 59h-228v-1h-114v459h456v-459h-114v1zM552 421h-228v-266h228v266z" />
    <glyph glyph-name="uni53F9" unicode="&#x53f9;" 
d="M851 791l2 1l1 -1v-113q-7 -23 -141 -393v-1l140 -375l-1 -1h-121q-3 6 -40 102q-4 8 -40 101q-1 0 -20 -51l-54 -151l-1 -1h-131l-1 1l138 377l-138 353l1 1h130h3q4 -4 36 -93q2 -3 32 -85h1q77 212 77 214h-279q-1 0 -1 2v113q0 1 2 1q122 0 405 -1zM391 753v-806
q0 -1 -2 -1h-238q-1 0 -1 1v806h239l1 1zM256 51h29v598h-29v-598z" />
    <glyph glyph-name="uni53FC" unicode="&#x53fc;" 
d="M856 795v-707q0 -3 -44 -106q-28 -68 -29 -70h-128q-1 0 -1 1q70 173 70 176v449v0l-137 -432l-26 -77h-109q-1 0 -1 1q133 426 150 484q3 8 10 31h2h111v134h-273q-1 0 -1 1v115h98q103 0 290 1q7 -1 18 -1zM392 757q1 0 1 -1v-805q0 -1 -1 -1h-239l-1 1q1 164 1 265
v278q0 104 -1 263h240zM259 55h27q1 0 1 1v595q0 2 -1 2h-27v-598z" />
    <glyph glyph-name="uni53FD" unicode="&#x53fd;" 
d="M767 766q0 -43 1 -43q-1 -39 -1 -65v-640q1 -1 2 -1h97q2 0 2 -1v-99q0 -1 -2 -1h-217q-2 0 -2 1v783h-92v-608q-2 -3 -47 -174l-1 -1h-110v1q39 172 39 175v705h328l3 1v-33zM368 761v-545q0 -97 1 -261l-1 -1h-239q-1 0 -1 1v806h240zM234 60q0 -1 1 -1h27v597h-27
q-1 0 -1 -2v-594z" />
    <glyph glyph-name="uni5401" unicode="&#x5401;" 
d="M869 792q2 0 2 -1v-96q0 -1 -2 -1h-161v-176h169q1 0 1 -1v-105q0 -2 -1 -2h-169v-497l-8 -1h-175q-1 0 -1 1v106q0 1 1 1h64l2 1h-1l1 3v385q0 1 -2 1h-164v108h164q2 0 2 1v171l-1 4h-157v98h436zM371 754v-805q0 -1 -1 -1h-239l-1 1q1 164 1 265v275q0 101 -1 265h241
zM237 53h27q1 0 1 1v594q0 1 -1 1h-27v-596z" />
    <glyph glyph-name="uni5403" unicode="&#x5403;" 
d="M834 769v-99h-274l-10 -32h-108l50 165h107l-10 -34h245zM276 786v-1h45v1h108v-868h-4v-1h-255v1h-2v868h108zM276 14h45v673h-45v-673zM450 597h384v-99l-261 -483h261v-98h-384v98l264 483h-264v99z" />
    <glyph glyph-name="uni5404" unicode="&#x5404;" 
d="M468 558l144 104h-305l-13 -45h-115l55 188h114l-13 -46h466v-97l-226 -168l260 -154h-213l-141 87l-115 -87h-201l210 152l-182 110h202zM205 -85v393h571v-393h-571zM323 14h335v196h-335v-196z" />
    <glyph glyph-name="uni5406" unicode="&#x5406;" 
d="M587 418h235q1 0 1 -1v-107q0 -2 -1 -2h-84q-2 0 -16 -44q-50 -143 -85 -246h97l-8 145h2q21 0 113 2q1 -5 20 -252q-1 0 -1 -1l-1 1h-393h-1q130 385 133 395v0q-108 1 -183 1h-2l-1 1l170 482h139q-5 -14 -134 -374zM382 753q1 0 1 -1v-800q0 -2 -1 -2h-237q-1 0 -1 2
v801h238zM250 55h28v594h-28v-594z" />
    <glyph glyph-name="uni5408" unicode="&#x5408;" 
d="M790 429v-508q0 -2 -1 -2h-579v512h579q1 0 1 -2zM698 799h7l142 -291h-115l-96 195h-272l-96 -197h-115l142 293v2h403v-2zM334 465v101h332v-101h-332zM324 18h352v314h-352v-314z" />
    <glyph glyph-name="uni5409" unicode="&#x5409;" 
d="M209 453h576q1 0 1 -1v-534h-580v534q0 1 3 1zM163 661v100h270v41h115v-41h289v-100h-289v-76h263v-99h-630v99h252v76h-270zM320 15h353v342h-353v-342z" />
    <glyph glyph-name="uni540A" unicode="&#x540a;" 
d="M729 136v170h-175v-395h-115v395h-154v-270h-115v368h269v80h-220v314h565v-314h-230v-80h282v-268l-38 -100h-107zM337 700v-117h331v117h-331z" />
    <glyph glyph-name="uni540C" unicode="&#x540c;" 
d="M304 545v93q0 1 2 1h382v-96h-382q-2 0 -2 2zM318 505h356q3 0 3 -2v-348h-361v348q0 2 2 2zM847 -86h-182v94l1 2h67v688h-470v-787h-109v434l-1 450h694v-881zM431 252h132v156h-132v-156z" />
    <glyph glyph-name="uni540D" unicode="&#x540d;" 
d="M479 595l55 -110h109l43 171h-474l82 144h133l-26 -48h438l-88 -361h-586v94h240l-55 110h129zM188 -85v429h617v-429h-617zM285 11h425v238h-425v-238z" />
    <glyph glyph-name="uni540E" unicode="&#x540e;" 
d="M838 699l-515 -35v-55h515v-98h-515v-347l-41 -260h-119l40 262v588l635 51v-106zM706 -96v1h-204v-1h-117v526h441v-526h-120zM502 2h204v328h-204v-328z" />
    <glyph glyph-name="uni540F" unicode="&#x540f;" 
d="M566 800q1 0 1 -1v-49q1 -1 2 -1h240q1 -1 1 -2v-89q0 -1 -1 -1h-240q-2 0 -2 -1v-31q1 -1 2 -1h193q1 0 1 -1v-235q0 -1 -1 -1h-195v-50l-73 -103q277 -224 284 -231v-1h-138q-3 0 -21 16l-177 144q-111 -156 -115 -159h-123v1l161 221q-106 86 -148 121v0h138l62 -50h1
q0 2 49 68v23h-234q-1 0 -1 1v235q0 1 1 1h234v33h-289q-1 0 -1 1v89q0 2 1 2h289v50q0 1 1 1h98zM567 468h95v74h-93q-2 -1 -2 -2v-72zM333 468h134v74h-134v-74z" />
    <glyph glyph-name="uni5410" unicode="&#x5410;" 
d="M703 808q1 0 1 -1v-213h104q2 0 2 -1v-96q0 -2 -2 -2h-104v-486h126q1 0 1 -1v-99q0 -1 -1 -1h-370q-1 0 -1 1v99q0 1 1 1h125v486h-104q-1 0 -1 2v96q0 1 1 1h104v213q0 1 1 1h117zM424 783q1 -1 1 -2v-872q0 -1 -1 -1h-261q-1 0 -1 1v872q0 2 1 2h261zM272 6h44v679
h-44v-679z" />
    <glyph glyph-name="uni5411" unicode="&#x5411;" 
d="M834 -82h-177v94h61v615h-434v-709h-116v808h87l36 77h121l-32 -77h454v-808zM329 557h342v-454h-342v454zM556 201v259h-111v-259h111z" />
    <glyph glyph-name="uni5413" unicode="&#x5413;" 
d="M824 788v-97q0 -1 -2 -1h-141v-211l141 -102q-53 -84 -55 -85v0l-86 53v-437h-116v780q0 2 -1 2h-104q-1 0 -1 1v97h365zM426 763q1 0 1 -1v-852q0 -1 -1 -1h-256v853q0 1 1 1h255zM277 5q0 -1 1 -1h41q1 0 1 1v662l-3 1h-39q-1 -1 -1 -2v-661z" />
    <glyph glyph-name="uni5417" unicode="&#x5417;" 
d="M831 49h-2l-42 -132h-117l47 132h-1v111h-254v95h254v109h-238v94h1v204h113v-204h94v243h-224v94h338v-337h31v-409zM326 -42v1h-44v-1h-108v816h260v-816h-108zM282 667v-602h44v602h-44z" />
    <glyph glyph-name="uni541B" unicode="&#x541b;" 
d="M777 797q2 0 2 -1v-146h50q1 0 1 -1v-94q0 -1 -1 -1h-50v-146q0 -1 -2 -1h-412q-1 0 -23 -67h464q1 0 1 -2v-424q0 -1 -1 -1h-544q-1 0 -1 1v223h-104q-1 0 -1 2l91 268h-62q-2 0 -2 1v94q1 1 2 1h94q1 0 12 36q6 14 6 15h-131q-1 0 -1 1v94q0 1 1 1h164l16 51h-161
q-2 0 -2 1v94q1 1 2 1h592zM447 650h218v51h-201q-3 -11 -17 -51zM397 503h268v51h-251zM374 9h320v235h-320v-235z" />
    <glyph glyph-name="uni541D" unicode="&#x541d;" 
d="M553 799v-45h270q1 -1 1 -2v-96q0 -1 -1 -1h-50q-185 -127 -186 -127v-2l257 -170v-2h-65v-438q0 -1 -1 -1q-41 0 -47 -1q-107 1 -178 1h-143q-52 0 -119 -1q0 1 -73 1v442h-70v1q236 161 250 170q-2 2 -159 109v1h180q3 0 71 -47l93 63v1h-410q-2 0 -2 1v96q1 2 2 2h246
q0 5 8 5q11 5 125 41zM357 370v-1h273q-130 90 -137 94q-7 -5 -136 -93zM333 10h331v263h-331v-263z" />
    <glyph glyph-name="uni541E" unicode="&#x541e;" 
d="M812 800q1 0 1 -1v-96q0 -1 -1 -1h-315q0 -2 -64 -102v-1h409q2 0 2 -1v-96q0 -2 -2 -2h-119l121 -151v0h-144q-16 18 -123 151h-208q-38 -60 -96 -151h-131q-1 0 -1 1q3 4 96 150v0h-95q-1 0 -1 2v96q0 1 1 1h157q5 4 59 91l7 11v1h-192q-2 0 -2 1v96q1 1 2 1h639z
M802 333q2 -1 2 -2v-44v-39v-53v-279q0 -1 -2 -1q-74 0 -74 -1q-61 1 -108 1h-296q-18 0 -41 -1q-2 1 -30 1h-69q-2 0 -2 1v415q0 2 2 2h618zM297 18h392v212h-392v-212z" />
    <glyph glyph-name="uni5426" unicode="&#x5426;" 
d="M832 702h-273v-329h-115v329h-273v97h661v-97zM177 393l118 292h117l-119 -292h-116zM820 386h-116l-115 299h117zM217 -86v437h571v-437h-571zM333 10h340v246h-340v-246z" />
    </font>
</defs>
</svg>
